<svg width="416" height="147" viewBox="0 0 416 147" fill="none" xmlns="http://www.w3.org/2000/svg">
<path d="M345.923 62.0566C342.759 60.8075 341.176 57.2871 342.193 53.9939C343.211 50.9278 346.262 48.9973 349.427 49.5651L350.67 49.7922L350.784 48.543C351.01 46.1583 351.01 43.66 350.784 41.1617L350.67 39.9125L349.427 40.1397C346.036 40.7074 342.759 38.5498 341.967 35.0295C341.289 31.8498 342.985 28.6701 346.036 27.5345L347.167 27.0803L346.602 25.9447C345.584 23.7871 344.341 21.6295 342.985 19.5854L342.306 18.5634L341.402 19.3583C338.69 21.6295 334.847 21.2888 332.473 18.6769C330.326 16.2922 330.213 12.6583 332.247 10.1599L333.038 9.25147L332.021 8.57012C329.987 7.20741 327.952 5.95825 325.692 4.93621L324.561 4.36841L324.109 5.50402C322.866 8.79724 319.362 10.5006 316.084 9.4786C313.033 8.45656 311.111 5.39045 311.676 2.21078L311.902 0.961631L310.659 0.848074C308.285 0.620955 305.799 0.620955 303.425 0.848074L302.182 0.961631L302.408 2.21078C302.973 5.61757 300.826 8.9108 297.322 9.70571C294.157 10.3871 290.992 8.68367 289.862 5.61757L289.41 4.48197L288.28 5.04977C286.132 6.07181 283.985 7.32096 281.95 8.68367L280.933 9.36503L281.724 10.2735C283.985 12.9989 283.646 16.86 281.046 19.2447C278.672 21.4023 275.056 21.5159 272.569 19.4718L271.665 18.6769L270.987 19.6989C269.63 21.743 268.387 23.7871 267.37 26.0583L266.805 27.1939L267.935 27.6481C271.213 28.8973 272.908 32.4176 271.891 35.7108C270.874 38.7769 267.822 40.7074 264.657 40.1397L263.414 39.9125L263.301 41.1617C263.075 43.5464 263.075 46.0447 263.301 48.543L263.414 49.7922L264.657 49.5651C268.048 48.9973 271.326 51.1549 272.117 54.6752C272.795 57.8549 270.987 61.0346 268.048 62.1702L266.918 62.6244L267.483 63.76C268.5 65.9176 269.743 68.0753 271.1 70.1193L271.778 71.1414L272.682 70.3465C275.395 68.0753 279.351 68.416 281.611 71.0278C283.759 73.4126 283.872 77.0465 281.837 79.5448L281.046 80.4533L282.063 81.1346C284.098 82.4973 286.132 83.7465 288.393 84.7685L289.523 85.3363L289.975 84.2007C291.218 80.9075 294.722 79.2041 298 80.2261C300.713 81.1346 302.521 83.7465 302.521 86.5855H265.222C265.222 84.7685 265.335 81.2482 265.222 79.0905L265.109 77.8414L263.866 78.0685C259.684 78.7499 255.615 76.0244 254.711 71.8227C253.92 67.9617 256.067 63.9871 259.684 62.6244L260.814 62.1702L260.249 61.0346C259.006 58.4227 257.536 55.9244 255.954 53.5397L255.276 52.5176L254.372 53.3125C251.094 56.038 246.234 55.6973 243.408 52.5176C240.808 49.5651 240.695 45.1363 243.182 42.0702L243.973 41.1617L242.956 40.4803C240.582 38.7769 238.096 37.4142 235.496 36.1651L234.366 35.5973L233.914 36.7329C232.444 40.7074 228.036 42.8651 223.967 41.5024C220.238 40.2532 217.864 36.5057 218.542 32.5312L218.768 31.282L217.525 31.1684C214.699 30.9413 211.761 30.9413 208.822 31.1684L207.579 31.282L207.805 32.5312C208.483 36.7329 205.77 40.821 201.588 41.7295C197.745 42.5244 193.789 40.3668 192.433 36.7329L191.981 35.5973L190.851 36.1651C188.251 37.4142 185.764 38.8905 183.391 40.4803L182.374 41.1617L183.165 42.0702C185.877 45.3634 185.538 50.2464 182.374 53.0854C179.435 55.6973 175.027 55.8108 171.975 53.3125L171.071 52.5176L170.393 53.5397C168.81 55.9244 167.341 58.4227 166.098 61.0346L165.533 62.1702L166.663 62.6244C170.619 64.1007 172.766 68.5295 171.41 72.6176C170.167 76.3651 166.437 78.7499 162.481 78.0685L161.238 77.8414L161.125 79.0905C160.898 82.0431 160.898 84.8821 161.125 87.8346L161.238 89.0838L162.481 88.8567C166.663 88.1753 170.732 90.9007 171.636 95.1024C172.427 98.9634 170.28 102.938 166.663 104.301L165.533 104.755L166.098 105.891C167.341 108.502 168.81 111.001 170.393 113.385L171.071 114.408L171.975 113.613C175.253 110.887 180.113 111.228 182.939 114.408C185.538 117.36 185.651 121.789 183.165 124.855L182.374 125.763L183.391 126.445C185.764 128.035 188.251 129.511 190.851 130.76L191.981 131.328L192.433 130.192C193.902 126.218 198.31 124.06 202.379 125.423C205.77 126.558 208.031 129.852 207.918 133.372H17.6935V135.643H210.065L210.178 134.735C210.969 129.738 208.031 124.855 203.283 123.265C198.423 121.675 193.337 123.947 191.077 128.262C189.268 127.353 187.573 126.331 185.877 125.309C188.364 121.448 187.912 116.338 184.86 112.931C181.469 109.184 175.931 108.502 171.749 111.114C170.619 109.411 169.602 107.708 168.81 105.891C172.879 103.846 175.027 99.1906 174.123 94.6482C173.105 89.6516 168.584 86.2448 163.611 86.5855C163.498 84.6549 163.498 82.6109 163.611 80.5668C168.132 80.7939 172.427 77.8414 173.784 73.4126C175.366 68.5295 173.105 63.4193 168.81 61.1481C169.715 59.3312 170.732 57.6278 171.749 55.9244C175.592 58.4227 180.678 57.9685 184.069 54.9024C187.799 51.4956 188.477 45.9312 185.877 41.7295C187.573 40.5939 189.268 39.5718 191.077 38.7769C193.224 42.8651 197.745 45.0227 202.266 44.1142C207.239 43.0922 210.517 38.5498 210.291 33.5532C212.326 33.4396 214.247 33.4396 216.282 33.5532C216.056 38.0956 218.994 42.4108 223.402 43.7736C228.262 45.3634 233.349 43.0922 235.609 38.6634C237.418 39.5718 239.113 40.5939 240.808 41.6159C238.322 45.4769 238.774 50.5871 241.826 53.9939C245.216 57.7414 250.755 58.4227 254.937 55.8108C256.067 57.5142 257.084 59.2176 257.875 61.0346C253.806 63.1922 251.659 67.7346 252.563 72.277C253.58 77.2736 258.102 80.5668 262.962 80.3397C263.075 83.1787 262.849 87.4939 262.849 87.4939V88.6295H304.443L304.556 87.7211C305.234 83.4058 302.747 79.2041 298.565 77.8414C294.496 76.4787 290.201 78.2956 288.167 82.0431C286.81 81.3617 285.454 80.5668 284.098 79.7719C286.132 76.4787 285.68 72.1634 283.08 69.3244C280.255 66.1448 275.508 65.577 272.004 67.7346C271.213 66.4854 270.421 65.1227 269.743 63.76C273.134 61.9431 274.943 57.9685 274.151 54.221C273.247 50.0193 269.517 47.1803 265.335 47.2939C265.222 45.7041 265.222 44.2278 265.335 42.638C269.178 42.7515 272.682 40.2532 273.925 36.5057C275.282 32.4176 273.473 28.1023 269.743 26.0583C270.421 24.6956 271.213 23.3329 272.004 21.9701C275.282 24.0142 279.577 23.6735 282.402 20.9481C285.567 18.1091 286.132 13.4532 283.985 9.81926C285.228 9.02435 286.584 8.22943 287.941 7.54807C289.749 10.9549 293.705 12.7718 297.435 11.9769C301.617 11.0684 304.443 7.32096 304.329 3.11926C305.912 3.0057 307.381 3.0057 308.964 3.11926C308.851 6.98028 311.337 10.5006 315.067 11.7498C319.136 13.1125 323.431 11.2955 325.465 7.54807C326.822 8.22943 328.178 9.02435 329.534 9.81926C327.5 13.1125 327.952 17.4278 330.552 20.2667C333.377 23.4464 338.124 24.0142 341.628 21.8566C342.42 23.1057 343.211 24.4684 343.889 25.8312C340.498 27.6481 338.69 31.6227 339.481 35.3701C340.385 39.5718 344.115 42.4108 348.297 42.2973C348.41 43.8871 348.41 45.3634 348.297 46.9532C344.454 46.8397 340.95 49.338 339.707 53.0854C338.238 57.6278 340.611 62.3973 345.019 63.9871L345.245 64.1007H416V61.8295H345.923V62.0566Z" fill="url(#paint0_linear_112_610)" fill-opacity="0.7"/>
<path d="M221.933 56.2655C207.013 51.496 190.964 59.6722 186.217 74.6621C183.843 81.9299 184.521 89.6519 188.025 96.4655C191.529 103.279 197.406 108.276 204.64 110.547C207.466 111.455 210.404 111.91 213.343 111.91C217.751 111.91 222.159 110.888 226.228 108.73C233.01 105.21 237.983 99.3045 240.243 92.0367C245.103 77.1604 236.853 61.1485 221.933 56.2655ZM238.096 91.4689C235.948 98.1689 231.314 103.62 225.098 106.799C218.881 109.979 211.761 110.547 205.205 108.389C198.536 106.232 193.111 101.576 189.946 95.3299C186.782 89.0841 186.217 81.9299 188.364 75.3435C191.868 64.2146 202.266 57.1739 213.23 57.1739C215.83 57.1739 218.542 57.6282 221.255 58.4231C234.931 62.8519 242.504 77.7282 238.096 91.4689Z" fill="url(#paint1_linear_112_610)" fill-opacity="0.7"/>
<path d="M315.293 21.2889C309.19 19.3584 302.747 19.8127 296.983 22.7652C291.331 25.7178 287.036 30.7144 285.115 36.8466C281.046 49.4517 288.054 63.0788 300.6 67.167C303.086 67.9619 305.46 68.3025 307.946 68.3025C318.119 68.3025 327.5 61.8297 330.778 51.6093C332.699 45.4771 332.247 39.0042 329.308 33.2127C326.37 27.5347 321.396 23.333 315.293 21.2889ZM328.63 50.928C325.013 62.3975 312.693 68.7568 301.278 65.0093C289.862 61.3754 283.532 48.9974 287.262 37.5279C289.071 31.9635 292.914 27.4212 298 24.8093C303.199 22.1974 309.077 21.6296 314.615 23.4466C320.153 25.2635 324.674 29.1245 327.274 34.2347C329.987 39.4584 330.439 45.3635 328.63 50.928Z" fill="url(#paint2_linear_112_610)" fill-opacity="0.7"/>
<path d="M398.533 73.4131H328.23C325.065 72.1639 323.483 68.6436 324.5 65.3503C325.517 62.2842 328.569 60.3537 331.734 60.9215L332.977 61.1486L333.09 59.8995C333.316 57.5147 333.316 55.0164 333.09 52.5181L332.977 51.269L331.734 51.4961C328.343 52.0639 325.065 49.9063 324.274 46.3859C323.596 43.2062 325.291 40.0266 328.343 38.891L329.473 38.4367L328.908 37.3012C327.891 35.1435 326.647 32.9859 325.291 30.9418L324.613 29.9198L323.709 30.7147C320.996 32.9859 317.153 32.6452 314.78 30.0334C312.632 27.6486 312.519 24.0147 314.554 21.5164L315.345 20.6079L314.328 19.9266C312.293 18.5638 310.259 17.3147 307.998 16.2927L306.868 15.7249L306.416 16.8605C305.172 20.1537 301.669 21.8571 298.391 20.835C295.339 19.813 293.418 16.7469 293.983 13.5672L294.209 12.3181L292.965 12.2045C290.592 11.9774 288.105 11.9774 285.732 12.2045L284.488 12.3181L284.715 13.5672C285.28 16.974 283.132 20.2672 279.628 21.0622C276.464 21.7435 273.299 20.0401 272.169 16.974L271.716 15.8384L270.586 16.4062C268.439 17.4283 266.291 18.6774 264.257 20.0401L263.239 20.7215L264.031 21.6299C266.291 24.3554 265.952 28.2164 263.352 30.6012C260.979 32.7588 257.362 32.8723 254.875 30.8283L253.971 30.0334L253.293 31.0554C251.937 33.0995 250.693 35.1435 249.676 37.4147L249.111 38.5503L250.241 39.0045C253.519 40.2537 255.215 43.774 254.197 47.0673C253.18 50.1334 250.128 52.0639 246.964 51.4961L245.72 51.269L245.607 52.5181C245.381 54.9029 245.381 57.4012 245.607 59.8995L245.72 61.1486L246.964 60.9215C250.354 60.3537 253.632 62.5114 254.423 66.0317C255.102 69.2114 253.293 72.391 250.354 73.5266L249.224 73.9809L249.789 75.1165C250.806 77.2741 252.05 79.4317 253.406 81.4758L254.084 82.4978L254.988 81.7029C257.701 79.4317 261.657 79.7724 263.918 82.3843C266.065 84.769 266.178 88.4029 264.144 90.9012L263.352 91.8097L264.37 92.4911C266.404 93.8538 268.439 95.1029 270.699 96.125L271.829 96.6927L272.282 95.5572C273.525 92.2639 277.029 90.5605 280.306 91.5826C283.019 92.4911 284.828 95.1029 284.828 97.9419H247.529C247.529 96.1249 247.642 92.6046 247.529 90.447L247.416 89.1978L246.172 89.4249C241.99 90.1063 237.921 87.3809 237.017 83.1792C236.226 79.3181 238.374 75.3436 241.99 73.9809L243.121 73.5266L242.556 72.391C241.312 69.7792 239.843 67.2809 238.26 64.8961L237.582 63.8741L236.678 64.669C233.4 67.3944 228.54 67.0537 225.715 63.8741C223.115 60.9215 223.002 56.4927 225.488 53.4266L226.28 52.5181L225.262 51.8368C222.889 50.1334 220.402 48.7707 217.803 47.5215L216.672 46.9537L216.22 48.0893C214.751 52.0639 210.343 54.2215 206.274 52.8588C202.544 51.6096 200.17 47.8622 200.849 43.8876L201.075 42.6384L199.831 42.5249C197.006 42.2978 194.067 42.2978 191.128 42.5249L189.885 42.6384L190.111 43.8876C190.789 48.0893 188.077 52.1774 183.895 53.0859C180.052 53.8808 176.096 51.7232 174.739 48.0893L174.287 46.9537L173.157 47.5215C170.557 48.7707 168.071 50.2469 165.697 51.8368L164.68 52.5181L165.471 53.4266C168.184 56.7198 167.845 61.6029 164.68 64.4419C161.741 67.0537 157.333 67.1673 154.282 64.669L153.377 63.8741L152.699 64.8961C151.117 67.2809 149.647 69.7792 148.404 72.391L147.839 73.5266L148.969 73.9809C152.925 75.4571 155.073 79.886 153.716 83.9741C152.473 87.7216 148.743 90.1063 144.787 89.4249L143.544 89.1978L143.431 90.447C143.205 93.3995 143.205 96.2385 143.431 99.1911L143.544 100.44L144.787 100.213C148.969 99.5317 153.038 102.257 153.943 106.459C154.734 110.32 152.586 114.294 148.969 115.657L147.839 116.111L148.404 117.247C149.647 119.859 151.117 122.357 152.699 124.742L153.377 125.764L154.282 124.969C157.559 122.244 162.42 122.584 165.245 125.764C167.845 128.717 167.958 133.145 165.471 136.211L164.68 137.12L165.697 137.801C168.071 139.391 170.557 140.867 173.157 142.117L174.287 142.684L174.739 141.549C176.209 137.574 180.617 135.417 184.686 136.779C188.077 137.915 190.337 141.208 190.224 144.728H0V147H192.372L192.485 146.091C193.276 141.094 190.337 136.211 185.59 134.622C180.73 133.032 175.644 135.303 173.383 139.618C171.575 138.71 169.879 137.688 168.184 136.666C170.67 132.805 170.218 127.694 167.167 124.288C163.776 120.54 158.238 119.859 154.056 122.471C152.925 120.767 151.908 119.064 151.117 117.247C155.186 115.203 157.333 110.547 156.429 106.005C155.412 101.008 150.891 97.6012 145.918 97.9419C145.805 96.0114 145.805 93.9673 145.918 91.9233C150.439 92.1504 154.734 89.1978 156.09 84.769C157.672 79.886 155.412 74.7758 151.117 72.5046C152.021 70.6876 153.038 68.9842 154.056 67.2808C157.898 69.7792 162.985 69.3249 166.375 66.2588C170.105 62.852 170.783 57.2876 168.184 53.0859C169.879 51.9503 171.575 50.9283 173.383 50.1334C175.531 54.2215 180.052 56.3791 184.573 55.4707C189.546 54.4486 192.824 49.9062 192.598 44.9096C194.632 44.7961 196.554 44.7961 198.588 44.9096C198.362 49.452 201.301 53.7673 205.709 55.13C210.569 56.7198 215.655 54.4486 217.916 50.0198C219.724 50.9283 221.42 51.9503 223.115 52.9724C220.628 56.8334 221.08 61.9436 224.132 65.3503C227.523 69.0978 233.061 69.7792 237.243 67.1673C238.374 68.8707 239.391 70.5741 240.182 72.391C236.113 74.5486 233.965 79.091 234.87 83.6334C235.887 88.63 240.408 91.9232 245.268 91.6961C245.381 94.5351 245.155 98.8504 245.155 98.8504V99.986H286.749L286.862 99.0775C287.54 94.7622 285.054 90.5605 280.872 89.1978C276.803 87.8351 272.508 89.6521 270.473 93.3995C269.117 92.7182 267.76 91.9232 266.404 91.1283C268.439 87.8351 267.987 83.5199 265.387 80.6809C262.561 77.5012 257.814 76.9334 254.31 79.091C253.519 77.8419 252.728 76.4792 252.05 75.1165C255.441 73.2995 257.249 69.3249 256.458 65.5775C255.554 61.3758 251.824 58.5368 247.642 58.6503C247.529 57.0605 247.529 55.5842 247.642 53.9944C251.485 54.108 254.988 51.6096 256.232 47.8622C257.588 43.774 255.78 39.4588 252.05 37.4147C252.728 36.052 253.519 34.6893 254.31 33.3266C257.588 35.3706 261.883 35.03 264.709 32.3045C267.874 29.4656 268.439 24.8096 266.291 21.1757C267.534 20.3808 268.891 19.5859 270.247 18.9045C272.056 22.3113 276.011 24.1283 279.741 23.3333C283.923 22.4249 286.749 18.6774 286.636 14.4757C288.218 14.3621 289.688 14.3621 291.27 14.4757C291.157 18.3367 293.644 21.8571 297.374 23.1062C301.443 24.4689 305.738 22.652 307.772 18.9045C309.128 19.5859 310.485 20.3808 311.841 21.1757C309.806 24.4689 310.259 28.7842 312.858 31.6232C315.684 34.8028 320.431 35.3706 323.935 33.213C324.726 34.4622 325.517 35.8249 326.195 37.1876C322.805 39.0045 320.996 42.9791 321.787 46.7266C322.692 50.9283 326.421 53.7673 330.603 53.6537C330.716 55.2435 330.716 56.7198 330.603 58.3097C326.76 58.1961 323.257 60.6944 322.013 64.4419C320.544 68.9842 322.918 73.7537 327.326 75.3436L327.552 75.4571H398.306" fill="url(#paint3_linear_112_610)" fill-opacity="0.4"/>
<path d="M204.24 67.6207C189.32 62.8512 173.27 71.0275 168.523 86.0173C166.15 93.2851 166.828 101.007 170.332 107.821C173.835 114.634 179.713 119.631 186.947 121.902C189.772 122.811 192.711 123.265 195.65 123.265C200.058 123.265 204.466 122.243 208.535 120.085C215.316 116.565 220.289 110.66 222.55 103.392C227.41 88.5156 219.159 72.5037 204.24 67.6207ZM220.402 102.824C218.255 109.524 213.621 114.975 207.404 118.155C201.188 121.334 194.067 121.902 187.512 119.744C180.843 117.587 175.418 112.931 172.253 106.685C169.088 100.439 168.523 93.2851 170.671 86.6987C174.175 75.5699 184.573 68.5292 195.537 68.5292C198.136 68.5292 200.849 68.9834 203.561 69.7783C217.238 74.2071 224.811 89.0834 220.402 102.824Z" fill="url(#paint4_linear_112_610)" fill-opacity="0.4"/>
<path d="M297.6 32.6447C291.496 30.7141 285.054 31.1684 279.289 34.1209C273.638 37.0735 269.343 42.0701 267.422 48.2023C263.353 60.8074 270.36 74.4345 282.906 78.5227C285.393 79.3176 287.766 79.6583 290.253 79.6583C300.425 79.6583 309.807 73.1854 313.084 62.965C315.006 56.8328 314.554 50.3599 311.615 44.5684C308.676 38.8904 303.703 34.6887 297.6 32.6447ZM310.937 62.2837C307.32 73.7532 295 80.1125 283.584 76.365C272.169 72.7311 265.839 60.3532 269.569 48.8837C271.377 43.3192 275.22 38.7769 280.307 36.165C285.506 33.5531 291.383 32.9853 296.922 34.8023C302.46 36.6192 306.981 40.4803 309.581 45.5904C312.293 50.8142 312.745 56.7193 310.937 62.2837Z" fill="url(#paint5_linear_112_610)" fill-opacity="0.4"/>
<defs>
<linearGradient id="paint0_linear_112_610" x1="216.847" y1="0.677734" x2="216.847" y2="135.643" gradientUnits="userSpaceOnUse">
<stop stop-color="#041A2C"/>
<stop offset="0.265625" stop-color="#041A2C"/>
<stop offset="0.5" stop-color="#003452"/>
<stop offset="0.708333" stop-color="#041A2C"/>
<stop offset="0.984375" stop-color="#041A2C"/>
</linearGradient>
<linearGradient id="paint1_linear_112_610" x1="213.229" y1="54.9065" x2="213.229" y2="111.91" gradientUnits="userSpaceOnUse">
<stop stop-color="#041A2C"/>
<stop offset="0.265625" stop-color="#041A2C"/>
<stop offset="0.5" stop-color="#003452"/>
<stop offset="0.708333" stop-color="#041A2C"/>
<stop offset="0.984375" stop-color="#041A2C"/>
</linearGradient>
<linearGradient id="paint2_linear_112_610" x1="307.947" y1="20.1243" x2="307.947" y2="68.3025" gradientUnits="userSpaceOnUse">
<stop stop-color="#041A2C"/>
<stop offset="0.265625" stop-color="#041A2C"/>
<stop offset="0.5" stop-color="#003452"/>
<stop offset="0.708333" stop-color="#041A2C"/>
<stop offset="0.984375" stop-color="#041A2C"/>
</linearGradient>
<linearGradient id="paint3_linear_112_610" x1="199.266" y1="12.0342" x2="199.266" y2="147" gradientUnits="userSpaceOnUse">
<stop stop-color="#009F9F"/>
<stop offset="1" stop-color="#35DBFF"/>
</linearGradient>
<linearGradient id="paint4_linear_112_610" x1="195.535" y1="66.2617" x2="195.535" y2="123.265" gradientUnits="userSpaceOnUse">
<stop stop-color="#009F9F"/>
<stop offset="1" stop-color="#35DBFF"/>
</linearGradient>
<linearGradient id="paint5_linear_112_610" x1="290.254" y1="31.48" x2="290.254" y2="79.6583" gradientUnits="userSpaceOnUse">
<stop stop-color="#009F9F"/>
<stop offset="1" stop-color="#35DBFF"/>
</linearGradient>
</defs>
</svg>
