<svg width="107" height="70" viewBox="0 0 107 70" fill="none" xmlns="http://www.w3.org/2000/svg">
<path d="M90.6355 24.0415C85.6002 32.8689 74.5471 37.875 64.6914 35.4164C58.3052 33.8168 53.8532 29.492 52.1953 24.0415H42.8615L43.2607 26.4409C43.3221 26.7667 43.6291 26.9741 43.9975 26.9149L45.7783 26.6186C46.2389 26.5298 46.638 26.7667 46.7915 27.1518C47.3135 28.6329 48.0196 30.0252 48.8793 31.3285C49.0942 31.684 49.0328 32.1283 48.6951 32.4542L47.4056 33.7279C47.1292 33.9945 47.0985 34.3796 47.3442 34.6166L50.6908 38.0824C50.9057 38.3194 51.3356 38.3194 51.6426 38.112L53.1164 37.0456C53.4848 36.779 54.0067 36.7494 54.3445 36.9864C55.634 37.9047 57.0463 38.7045 58.5815 39.3858C58.9806 39.5635 59.1649 39.9486 59.042 40.3633L58.5508 41.9925C58.4587 42.3184 58.6429 42.6442 58.9806 42.7331L63.9545 43.9772C64.2923 44.0661 64.6914 43.8883 64.8449 43.5625L65.6432 42.0221C65.8581 41.6371 66.3187 41.3705 66.7485 41.4297C68.4986 41.5778 70.2487 41.5778 71.9681 41.4001C72.4286 41.3408 72.8277 41.5778 72.9199 41.9925L73.3497 43.5329C73.4418 43.8587 73.7795 44.0365 74.148 43.9476L79.4596 42.6146C79.828 42.5257 80.1044 42.1999 80.0737 41.874L79.9816 40.2448C79.9509 39.8301 80.2579 39.4154 80.6877 39.2377C82.3457 38.5564 83.973 37.7269 85.5081 36.779C85.9073 36.5421 86.3985 36.542 86.7055 36.8086L87.9337 37.8454C88.1793 38.0528 88.6091 38.0528 88.8855 37.7862L93.0918 34.2611C93.3681 34.0242 93.4602 33.6391 93.2453 33.3725L92.2628 32.1284C92.0172 31.8025 92.0479 31.3286 92.3549 31.0027C93.5216 29.6993 94.5655 28.2775 95.4866 26.7667C95.7323 26.3817 96.1928 26.1447 96.6226 26.2335L98.342 26.5001C98.6798 26.5594 99.0789 26.352 99.2017 26.0262L100 24.0711H90.6355V24.0415Z" fill="url(#paint0_linear_112_674)"/>
<path d="M90.6355 24.0415C85.6002 32.8689 74.5471 37.875 64.6914 35.4164C58.3052 33.8168 53.8532 29.492 52.1953 24.0415H51.397C53.0856 30.6472 58.121 35.92 65.4897 37.7269C76.5735 40.4522 89.1311 34.4389 94.9954 24.0415H90.6355Z" fill="url(#paint1_linear_112_674)"/>
<path d="M83.2361 17.9391H74.7621L72.6435 21.316L74.7621 24.6929H83.2361C81.8852 27.5663 78.907 29.551 75.4375 29.551C72.0295 29.551 69.082 27.6255 67.7003 24.8114L59.5333 24.6929C58.0596 24.6633 56.7393 23.8043 56.1867 22.5009L55.634 21.2271L46.2389 21.1679C44.366 21.1679 42.5545 20.6051 41.0193 19.5979L38.1025 17.6725L67.7003 17.8206C69.0513 15.0361 71.9988 13.0811 75.4375 13.0811C78.907 13.0811 81.8852 15.0954 83.2361 17.9391Z" fill="url(#paint2_linear_112_674)"/>
<path d="M72.6436 21.3457L55.634 21.2568L56.1867 22.5306C56.7394 23.834 58.0596 24.7226 59.5333 24.7226L67.7004 24.8411C69.0513 27.6552 71.9988 29.5807 75.4375 29.5807C78.907 29.5807 81.8852 27.596 83.2361 24.7226H74.7621L72.6436 21.3457Z" fill="url(#paint3_linear_112_674)"/>
<path d="M40.129 33.5205L0 34.6462L41.1729 35.2682C40.8351 34.6758 40.4667 34.0833 40.129 33.5205Z" fill="url(#paint4_linear_112_674)"/>
<path d="M38.4096 28.8403L2.88611 29.6994L39.2079 30.2622C38.9316 29.7882 38.6552 29.3143 38.4096 28.8403Z" fill="url(#paint5_linear_112_674)"/>
<path d="M36.6595 24.397L16.549 24.9598L37.1815 25.4041C37.028 25.0487 36.8438 24.7228 36.6595 24.397Z" fill="url(#paint6_linear_112_674)"/>
<path d="M96.3771 13.6145V20.6053H87.3811C87.3811 20.6053 88.3329 12.5185 82.5914 10.2968C76.8806 8.07515 70.8014 9.8821 67.1477 10.9781C63.5247 12.0741 54.8972 12.0445 44.7344 12.3111C37.7648 12.4889 34.9709 8.46025 28.7381 7.54196C22.6282 6.65329 19.8956 10.593 19.8035 10.7411C19.8035 10.7411 19.8035 10.7411 19.8342 10.7411C19.957 10.6819 20.6632 10.3264 21.7378 10.0598C22.8124 9.79324 24.2862 9.61551 25.9441 9.85248C29.475 10.3857 33.7427 14.4735 33.7427 14.4735C30.7338 17.4358 24.1941 17.4358 20.4483 17.8505C16.7025 18.2652 17.6543 20.5461 17.6543 20.5461C16.3955 20.5461 14.7375 19.6278 13.9085 18.5318C13.3559 17.7912 13.4173 15.2141 13.6015 12.8443C13.6936 11.7483 13.8164 10.6819 13.9085 9.85248C14.2156 7.27535 16.3034 5.82387 18.6982 5.23143C21.0931 4.63899 30.2426 2.74317 33.8963 1.8545C38.5017 0.72886 46.2696 -0.396778 52.0725 0.13642C57.8754 0.669619 67.5161 7.09763 68.5293 7.74931C68.5293 7.74931 70.4943 7.6012 75.5911 6.97914C78.6 6.62367 87.1047 6.77178 90.6663 8.57873C94.2278 10.4449 96.3771 13.6145 96.3771 13.6145Z" fill="url(#paint7_linear_112_674)"/>
<path d="M33.4664 6.29765C33.4664 6.29765 37.0587 4.13523 43.2607 2.86148C45.9319 2.29866 49.0636 1.91357 52.6252 1.91357C59.4413 1.91357 62.4502 6.68274 62.4502 6.68274C61.9589 6.38652 60.4852 5.82369 60.2088 6.53463C59.9939 7.09745 60.6694 8.25271 61.3141 8.87478C61.8668 9.40798 63.1256 9.37835 63.6169 9.55608C63.6169 9.55608 54.1603 9.91155 45.8091 9.55608C44.059 9.49684 33.4664 6.29765 33.4664 6.29765Z" fill="black"/>
<path d="M33.7427 14.533C30.7338 17.4952 24.1941 17.4952 20.4483 17.9099C16.7025 18.3246 17.6543 20.6055 17.6543 20.6055C16.3955 20.6055 14.7375 19.6872 13.9085 18.5912C13.3559 17.8507 13.4173 15.2736 13.6015 12.9038C18.3605 14.3849 24.1327 13.8517 25.7906 13.0815C27.6021 12.2521 24.4704 9.91194 21.7685 10.0897C22.8431 9.82307 24.3169 9.64534 25.9749 9.88232C29.475 10.4451 33.7427 14.533 33.7427 14.533Z" fill="url(#paint8_linear_112_674)"/>
<path d="M96.3771 17.4359V20.6055H87.381C87.381 20.6055 88.3329 12.5186 82.5914 10.2969C76.8806 8.07529 70.8014 9.88224 67.1477 10.9783C81.5782 5.6759 89.039 11.156 92.6313 15.1846C93.491 16.1621 94.8726 16.8731 96.3771 17.4359Z" fill="url(#paint9_linear_112_674)"/>
<path d="M4.88852 51.3H11.6085V53.9H4.88852V51.3ZM5.12852 59H1.88852V45H12.4685V47.6H5.12852V59ZM21.3252 59.24C20.2186 59.24 19.1919 59.06 18.2452 58.7C17.3119 58.34 16.4986 57.8333 15.8052 57.18C15.1252 56.5267 14.5919 55.76 14.2052 54.88C13.8319 54 13.6452 53.04 13.6452 52C13.6452 50.96 13.8319 50 14.2052 49.12C14.5919 48.24 15.1319 47.4733 15.8252 46.82C16.5186 46.1667 17.3319 45.66 18.2652 45.3C19.1986 44.94 20.2119 44.76 21.3052 44.76C22.4119 44.76 23.4252 44.94 24.3452 45.3C25.2786 45.66 26.0852 46.1667 26.7652 46.82C27.4586 47.4733 27.9986 48.24 28.3852 49.12C28.7719 49.9867 28.9652 50.9467 28.9652 52C28.9652 53.04 28.7719 54.0067 28.3852 54.9C27.9986 55.78 27.4586 56.5467 26.7652 57.2C26.0852 57.84 25.2786 58.34 24.3452 58.7C23.4252 59.06 22.4186 59.24 21.3252 59.24ZM21.3052 56.48C21.9319 56.48 22.5052 56.3733 23.0252 56.16C23.5586 55.9467 24.0252 55.64 24.4252 55.24C24.8252 54.84 25.1319 54.3667 25.3452 53.82C25.5719 53.2733 25.6852 52.6667 25.6852 52C25.6852 51.3333 25.5719 50.7267 25.3452 50.18C25.1319 49.6333 24.8252 49.16 24.4252 48.76C24.0386 48.36 23.5786 48.0533 23.0452 47.84C22.5119 47.6267 21.9319 47.52 21.3052 47.52C20.6786 47.52 20.0986 47.6267 19.5652 47.84C19.0452 48.0533 18.5852 48.36 18.1852 48.76C17.7852 49.16 17.4719 49.6333 17.2452 50.18C17.0319 50.7267 16.9252 51.3333 16.9252 52C16.9252 52.6533 17.0319 53.26 17.2452 53.82C17.4719 54.3667 17.7786 54.84 18.1652 55.24C18.5652 55.64 19.0319 55.9467 19.5652 56.16C20.0986 56.3733 20.6786 56.48 21.3052 56.48ZM31.4002 59V45H37.4602C38.7136 45 39.7936 45.2067 40.7002 45.62C41.6069 46.02 42.3069 46.6 42.8002 47.36C43.2936 48.12 43.5402 49.0267 43.5402 50.08C43.5402 51.12 43.2936 52.02 42.8002 52.78C42.3069 53.5267 41.6069 54.1 40.7002 54.5C39.7936 54.9 38.7136 55.1 37.4602 55.1H33.2002L34.6402 53.68V59H31.4002ZM40.3002 59L36.8002 53.92H40.2602L43.8002 59H40.3002ZM34.6402 54.04L33.2002 52.52H37.2802C38.2802 52.52 39.0269 52.3067 39.5202 51.88C40.0136 51.44 40.2602 50.84 40.2602 50.08C40.2602 49.3067 40.0136 48.7067 39.5202 48.28C39.0269 47.8533 38.2802 47.64 37.2802 47.64H33.2002L34.6402 46.1V54.04ZM46.1073 59V45H48.7873L54.7473 54.88H53.3273L59.1873 45H61.8473L61.8873 59H58.8473L58.8273 49.66H59.3873L54.7073 57.52H53.2473L48.4673 49.66H49.1473V59H46.1073ZM71.4288 59.24C69.4422 59.24 67.8888 58.6867 66.7688 57.58C65.6488 56.4733 65.0888 54.8933 65.0888 52.84V45H68.3288V52.72C68.3288 54.0533 68.6022 55.0133 69.1488 55.6C69.6955 56.1867 70.4622 56.48 71.4488 56.48C72.4355 56.48 73.2022 56.1867 73.7488 55.6C74.2955 55.0133 74.5688 54.0533 74.5688 52.72V45H77.7688V52.84C77.7688 54.8933 77.2088 56.4733 76.0888 57.58C74.9688 58.6867 73.4155 59.24 71.4288 59.24ZM80.9705 59V45H84.2105V56.36H91.2305V59H80.9705ZM91.279 59L97.519 45H100.719L106.979 59H103.579L98.459 46.64H99.739L94.599 59H91.279ZM94.399 56L95.259 53.54H102.459L103.339 56H94.399Z" fill="white"/>
<path d="M17.4166 68.05C16.9899 68.05 16.5799 67.99 16.1866 67.87C15.7999 67.7433 15.4966 67.5867 15.2766 67.4L15.5966 66.84C15.8166 67.0133 16.0933 67.1567 16.4266 67.27C16.7599 67.3767 17.1066 67.43 17.4666 67.43C17.9466 67.43 18.2999 67.3567 18.5266 67.21C18.7599 67.0567 18.8766 66.8433 18.8766 66.57C18.8766 66.3767 18.8133 66.2267 18.6866 66.12C18.5599 66.0067 18.3999 65.9233 18.2066 65.87C18.0133 65.81 17.7566 65.7533 17.4366 65.7C17.0099 65.62 16.6666 65.54 16.4066 65.46C16.1466 65.3733 15.9233 65.23 15.7366 65.03C15.5566 64.83 15.4666 64.5533 15.4666 64.2C15.4666 63.76 15.6499 63.4 16.0166 63.12C16.3833 62.84 16.8933 62.7 17.5466 62.7C17.8866 62.7 18.2266 62.7467 18.5666 62.84C18.9066 62.9267 19.1866 63.0433 19.4066 63.19L19.0966 63.76C18.6633 63.46 18.1466 63.31 17.5466 63.31C17.0933 63.31 16.7499 63.39 16.5166 63.55C16.2899 63.71 16.1766 63.92 16.1766 64.18C16.1766 64.38 16.2399 64.54 16.3666 64.66C16.4999 64.78 16.6633 64.87 16.8566 64.93C17.0499 64.9833 17.3166 65.04 17.6566 65.1C18.0766 65.18 18.4133 65.26 18.6666 65.34C18.9199 65.42 19.1366 65.5567 19.3166 65.75C19.4966 65.9433 19.5866 66.21 19.5866 66.55C19.5866 67.01 19.3933 67.3767 19.0066 67.65C18.6266 67.9167 18.0966 68.05 17.4166 68.05ZM25.4792 65.59H21.0792C21.1192 66.1367 21.3292 66.58 21.7092 66.92C22.0892 67.2533 22.5692 67.42 23.1492 67.42C23.4758 67.42 23.7758 67.3633 24.0492 67.25C24.3225 67.13 24.5592 66.9567 24.7592 66.73L25.1592 67.19C24.9258 67.47 24.6325 67.6833 24.2792 67.83C23.9325 67.9767 23.5492 68.05 23.1292 68.05C22.5892 68.05 22.1092 67.9367 21.6892 67.71C21.2758 67.4767 20.9525 67.1567 20.7192 66.75C20.4858 66.3433 20.3692 65.8833 20.3692 65.37C20.3692 64.8567 20.4792 64.3967 20.6992 63.99C20.9258 63.5833 21.2325 63.2667 21.6192 63.04C22.0125 62.8133 22.4525 62.7 22.9392 62.7C23.4258 62.7 23.8625 62.8133 24.2492 63.04C24.6358 63.2667 24.9392 63.5833 25.1592 63.99C25.3792 64.39 25.4892 64.85 25.4892 65.37L25.4792 65.59ZM22.9392 63.31C22.4325 63.31 22.0058 63.4733 21.6592 63.8C21.3192 64.12 21.1258 64.54 21.0792 65.06H24.8092C24.7625 64.54 24.5658 64.12 24.2192 63.8C23.8792 63.4733 23.4525 63.31 22.9392 63.31ZM27.6143 63.77C27.781 63.4167 28.0277 63.15 28.3543 62.97C28.6877 62.79 29.0977 62.7 29.5843 62.7V63.39L29.4143 63.38C28.861 63.38 28.4277 63.55 28.1143 63.89C27.801 64.23 27.6443 64.7067 27.6443 65.32V68H26.9343V62.74H27.6143V63.77ZM35.5145 62.74L33.1745 68H32.4445L30.1145 62.74H30.8545L32.8245 67.22L34.8145 62.74H35.5145ZM36.5144 62.74H37.2244V68H36.5144V62.74ZM36.8744 61.59C36.7277 61.59 36.6044 61.54 36.5044 61.44C36.4044 61.34 36.3544 61.22 36.3544 61.08C36.3544 60.9467 36.4044 60.83 36.5044 60.73C36.6044 60.63 36.7277 60.58 36.8744 60.58C37.0211 60.58 37.1444 60.63 37.2444 60.73C37.3444 60.8233 37.3944 60.9367 37.3944 61.07C37.3944 61.2167 37.3444 61.34 37.2444 61.44C37.1444 61.54 37.0211 61.59 36.8744 61.59ZM41.38 68.05C40.86 68.05 40.3933 67.9367 39.98 67.71C39.5733 67.4833 39.2533 67.1667 39.02 66.76C38.7866 66.3467 38.67 65.8833 38.67 65.37C38.67 64.8567 38.7866 64.3967 39.02 63.99C39.2533 63.5833 39.5733 63.2667 39.98 63.04C40.3933 62.8133 40.86 62.7 41.38 62.7C41.8333 62.7 42.2366 62.79 42.59 62.97C42.95 63.1433 43.2333 63.4 43.44 63.74L42.91 64.1C42.7366 63.84 42.5166 63.6467 42.25 63.52C41.9833 63.3867 41.6933 63.32 41.38 63.32C41 63.32 40.6566 63.4067 40.35 63.58C40.05 63.7467 39.8133 63.9867 39.64 64.3C39.4733 64.6133 39.39 64.97 39.39 65.37C39.39 65.7767 39.4733 66.1367 39.64 66.45C39.8133 66.7567 40.05 66.9967 40.35 67.17C40.6566 67.3367 41 67.42 41.38 67.42C41.6933 67.42 41.9833 67.3567 42.25 67.23C42.5166 67.1033 42.7366 66.91 42.91 66.65L43.44 67.01C43.2333 67.35 42.95 67.61 42.59 67.79C42.23 67.9633 41.8266 68.05 41.38 68.05ZM49.3268 65.59H44.9268C44.9668 66.1367 45.1768 66.58 45.5568 66.92C45.9368 67.2533 46.4168 67.42 46.9968 67.42C47.3235 67.42 47.6235 67.3633 47.8968 67.25C48.1702 67.13 48.4068 66.9567 48.6068 66.73L49.0068 67.19C48.7735 67.47 48.4802 67.6833 48.1268 67.83C47.7802 67.9767 47.3968 68.05 46.9768 68.05C46.4368 68.05 45.9568 67.9367 45.5368 67.71C45.1235 67.4767 44.8002 67.1567 44.5668 66.75C44.3335 66.3433 44.2168 65.8833 44.2168 65.37C44.2168 64.8567 44.3268 64.3967 44.5468 63.99C44.7735 63.5833 45.0802 63.2667 45.4668 63.04C45.8602 62.8133 46.3002 62.7 46.7868 62.7C47.2735 62.7 47.7102 62.8133 48.0968 63.04C48.4835 63.2667 48.7868 63.5833 49.0068 63.99C49.2268 64.39 49.3368 64.85 49.3368 65.37L49.3268 65.59ZM46.7868 63.31C46.2802 63.31 45.8535 63.4733 45.5068 63.8C45.1668 64.12 44.9735 64.54 44.9268 65.06H48.6568C48.6102 64.54 48.4135 64.12 48.0668 63.8C47.7268 63.4733 47.3002 63.31 46.7868 63.31ZM58.5592 68.11L57.5892 67.11C56.9958 67.7433 56.2158 68.06 55.2492 68.06C54.7958 68.06 54.3892 67.9867 54.0292 67.84C53.6758 67.6867 53.3992 67.4767 53.1992 67.21C52.9992 66.9367 52.8992 66.6267 52.8992 66.28C52.8992 65.86 53.0325 65.4833 53.2992 65.15C53.5658 64.8167 54.0192 64.4667 54.6592 64.1C54.3258 63.7533 54.0958 63.46 53.9692 63.22C53.8425 62.9733 53.7792 62.7133 53.7792 62.44C53.7792 61.9933 53.9392 61.6333 54.2592 61.36C54.5792 61.0867 55.0092 60.95 55.5492 60.95C56.0492 60.95 56.4458 61.0733 56.7392 61.32C57.0325 61.5667 57.1792 61.9067 57.1792 62.34C57.1792 62.6867 57.0625 63 56.8292 63.28C56.5958 63.5533 56.1925 63.8567 55.6192 64.19L57.5392 66.17C57.7525 65.79 57.9092 65.34 58.0092 64.82L58.5892 65C58.4625 65.6267 58.2558 66.1633 57.9692 66.61L58.9692 67.64L58.5592 68.11ZM55.5492 61.48C55.2025 61.48 54.9292 61.5667 54.7292 61.74C54.5358 61.9133 54.4392 62.1433 54.4392 62.43C54.4392 62.6367 54.4925 62.8333 54.5992 63.02C54.7058 63.2067 54.9158 63.46 55.2292 63.78C55.7358 63.4867 56.0858 63.2367 56.2792 63.03C56.4725 62.8233 56.5692 62.5967 56.5692 62.35C56.5692 62.0833 56.4792 61.8733 56.2992 61.72C56.1192 61.56 55.8692 61.48 55.5492 61.48ZM55.2892 67.47C56.0625 67.47 56.6892 67.2067 57.1692 66.68L55.0592 64.51C54.5058 64.8233 54.1225 65.1067 53.9092 65.36C53.7025 65.6133 53.5992 65.8967 53.5992 66.21C53.5992 66.59 53.7525 66.8967 54.0592 67.13C54.3725 67.3567 54.7825 67.47 55.2892 67.47ZM63.3858 63.77C63.5525 63.4167 63.7992 63.15 64.1258 62.97C64.4592 62.79 64.8692 62.7 65.3558 62.7V63.39L65.1858 63.38C64.6325 63.38 64.1992 63.55 63.8858 63.89C63.5725 64.23 63.4158 64.7067 63.4158 65.32V68H62.7058V62.74H63.3858V63.77ZM71.1725 65.59H66.7725C66.8125 66.1367 67.0225 66.58 67.4025 66.92C67.7825 67.2533 68.2625 67.42 68.8425 67.42C69.1692 67.42 69.4692 67.3633 69.7425 67.25C70.0159 67.13 70.2525 66.9567 70.4525 66.73L70.8525 67.19C70.6192 67.47 70.3259 67.6833 69.9725 67.83C69.6259 67.9767 69.2425 68.05 68.8225 68.05C68.2825 68.05 67.8025 67.9367 67.3825 67.71C66.9692 67.4767 66.6459 67.1567 66.4125 66.75C66.1792 66.3433 66.0625 65.8833 66.0625 65.37C66.0625 64.8567 66.1725 64.3967 66.3925 63.99C66.6192 63.5833 66.9259 63.2667 67.3125 63.04C67.7059 62.8133 68.1459 62.7 68.6325 62.7C69.1192 62.7 69.5559 62.8133 69.9425 63.04C70.3292 63.2667 70.6325 63.5833 70.8525 63.99C71.0725 64.39 71.1825 64.85 71.1825 65.37L71.1725 65.59ZM68.6325 63.31C68.1259 63.31 67.6992 63.4733 67.3525 63.8C67.0125 64.12 66.8192 64.54 66.7725 65.06H70.5025C70.4559 64.54 70.2592 64.12 69.9125 63.8C69.5725 63.4733 69.1459 63.31 68.6325 63.31ZM75.3377 62.7C75.831 62.7 76.2777 62.8133 76.6777 63.04C77.0777 63.26 77.391 63.5733 77.6177 63.98C77.8444 64.3867 77.9577 64.85 77.9577 65.37C77.9577 65.8967 77.8444 66.3633 77.6177 66.77C77.391 67.1767 77.0777 67.4933 76.6777 67.72C76.2844 67.94 75.8377 68.05 75.3377 68.05C74.911 68.05 74.5244 67.9633 74.1777 67.79C73.8377 67.61 73.5577 67.35 73.3377 67.01V69.94H72.6277V62.74H73.3077V63.78C73.521 63.4333 73.801 63.1667 74.1477 62.98C74.501 62.7933 74.8977 62.7 75.3377 62.7ZM75.2877 67.42C75.6544 67.42 75.9877 67.3367 76.2877 67.17C76.5877 66.9967 76.821 66.7533 76.9877 66.44C77.161 66.1267 77.2477 65.77 77.2477 65.37C77.2477 64.97 77.161 64.6167 76.9877 64.31C76.821 63.9967 76.5877 63.7533 76.2877 63.58C75.9877 63.4067 75.6544 63.32 75.2877 63.32C74.9144 63.32 74.5777 63.4067 74.2777 63.58C73.9844 63.7533 73.751 63.9967 73.5777 64.31C73.411 64.6167 73.3277 64.97 73.3277 65.37C73.3277 65.77 73.411 66.1267 73.5777 66.44C73.751 66.7533 73.9844 66.9967 74.2777 67.17C74.5777 67.3367 74.9144 67.42 75.2877 67.42ZM81.2157 62.7C81.9024 62.7 82.4291 62.8733 82.7957 63.22C83.1624 63.56 83.3457 64.0667 83.3457 64.74V68H82.6657V67.18C82.5057 67.4533 82.2691 67.6667 81.9557 67.82C81.6491 67.9733 81.2824 68.05 80.8557 68.05C80.2691 68.05 79.8024 67.91 79.4557 67.63C79.1091 67.35 78.9357 66.98 78.9357 66.52C78.9357 66.0733 79.0957 65.7133 79.4157 65.44C79.7424 65.1667 80.2591 65.03 80.9657 65.03H82.6357V64.71C82.6357 64.2567 82.5091 63.9133 82.2557 63.68C82.0024 63.44 81.6324 63.32 81.1457 63.32C80.8124 63.32 80.4924 63.3767 80.1857 63.49C79.8791 63.5967 79.6157 63.7467 79.3957 63.94L79.0757 63.41C79.3424 63.1833 79.6624 63.01 80.0357 62.89C80.4091 62.7633 80.8024 62.7 81.2157 62.7ZM80.9657 67.49C81.3657 67.49 81.7091 67.4 81.9957 67.22C82.2824 67.0333 82.4957 66.7667 82.6357 66.42V65.56H80.9857C80.0857 65.56 79.6357 65.8733 79.6357 66.5C79.6357 66.8067 79.7524 67.05 79.9857 67.23C80.2191 67.4033 80.5457 67.49 80.9657 67.49ZM85.2742 62.74H85.9842V68H85.2742V62.74ZM85.6342 61.59C85.4875 61.59 85.3642 61.54 85.2642 61.44C85.1642 61.34 85.1142 61.22 85.1142 61.08C85.1142 60.9467 85.1642 60.83 85.2642 60.73C85.3642 60.63 85.4875 60.58 85.6342 60.58C85.7808 60.58 85.9042 60.63 86.0042 60.73C86.1042 60.8233 86.1542 60.9367 86.1542 61.07C86.1542 61.2167 86.1042 61.34 86.0042 61.44C85.9042 61.54 85.7808 61.59 85.6342 61.59ZM88.6397 63.77C88.8064 63.4167 89.0531 63.15 89.3797 62.97C89.7131 62.79 90.1231 62.7 90.6097 62.7V63.39L90.4397 63.38C89.8864 63.38 89.4531 63.55 89.1397 63.89C88.8264 64.23 88.6697 64.7067 88.6697 65.32V68H87.9597V62.74H88.6397V63.77Z" fill="#C9C9C9"/>
<defs>
<linearGradient id="paint0_linear_112_674" x1="99.5997" y1="34.3435" x2="18.1482" y2="32.814" gradientUnits="userSpaceOnUse">
<stop stop-color="#5CBFFC"/>
<stop offset="0.9913" stop-color="#FF00C1"/>
</linearGradient>
<linearGradient id="paint1_linear_112_674" x1="48.8472" y1="38.6977" x2="95.8103" y2="14.0197" gradientUnits="userSpaceOnUse">
<stop stop-color="#412083"/>
<stop offset="0.9964" stop-color="white" stop-opacity="0"/>
</linearGradient>
<linearGradient id="paint2_linear_112_674" x1="34.0873" y1="12.0348" x2="74.0767" y2="21.6928" gradientUnits="userSpaceOnUse">
<stop stop-color="#5CBFFC"/>
<stop offset="0.9913" stop-color="#FF00C1"/>
</linearGradient>
<linearGradient id="paint3_linear_112_674" x1="64.8299" y1="30.194" x2="70.7421" y2="20.3428" gradientUnits="userSpaceOnUse">
<stop stop-color="white" stop-opacity="0"/>
<stop offset="0.1264" stop-color="#E6DDF3" stop-opacity="0.1264"/>
<stop offset="0.4452" stop-color="#AC8BD8" stop-opacity="0.4452"/>
<stop offset="0.707" stop-color="#814FC3" stop-opacity="0.707"/>
<stop offset="0.8987" stop-color="#662AB7" stop-opacity="0.8987"/>
<stop offset="1" stop-color="#5C1CB2"/>
</linearGradient>
<linearGradient id="paint4_linear_112_674" x1="99.5786" y1="35.4604" x2="18.127" y2="33.9309" gradientUnits="userSpaceOnUse">
<stop stop-color="#5CBFFC"/>
<stop offset="0.9913" stop-color="#FF00C1"/>
</linearGradient>
<linearGradient id="paint5_linear_112_674" x1="99.6692" y1="30.649" x2="18.2177" y2="29.1196" gradientUnits="userSpaceOnUse">
<stop stop-color="#5CBFFC"/>
<stop offset="0.9913" stop-color="#FF00C1"/>
</linearGradient>
<linearGradient id="paint6_linear_112_674" x1="99.7567" y1="25.9843" x2="18.305" y2="24.4548" gradientUnits="userSpaceOnUse">
<stop stop-color="#5CBFFC"/>
<stop offset="0.9913" stop-color="#FF00C1"/>
</linearGradient>
<linearGradient id="paint7_linear_112_674" x1="13.4261" y1="10.3258" x2="96.3796" y2="10.3258" gradientUnits="userSpaceOnUse">
<stop stop-color="#5CBFFC"/>
<stop offset="0.9913" stop-color="#FF00C1"/>
</linearGradient>
<linearGradient id="paint8_linear_112_674" x1="21.0602" y1="18.5798" x2="26.0889" y2="8.42266" gradientUnits="userSpaceOnUse">
<stop stop-color="white" stop-opacity="0"/>
<stop offset="0.1264" stop-color="#E6DDF3" stop-opacity="0.1264"/>
<stop offset="0.4452" stop-color="#AC8BD8" stop-opacity="0.4452"/>
<stop offset="0.707" stop-color="#814FC3" stop-opacity="0.707"/>
<stop offset="0.8987" stop-color="#662AB7" stop-opacity="0.8987"/>
<stop offset="1" stop-color="#5C1CB2"/>
</linearGradient>
<linearGradient id="paint9_linear_112_674" x1="84.4456" y1="24.026" x2="80.8376" y2="9.8152" gradientUnits="userSpaceOnUse">
<stop stop-color="white" stop-opacity="0"/>
<stop offset="0.1264" stop-color="#E6DDF3" stop-opacity="0.1264"/>
<stop offset="0.4452" stop-color="#AC8BD8" stop-opacity="0.4452"/>
<stop offset="0.707" stop-color="#814FC3" stop-opacity="0.707"/>
<stop offset="0.8987" stop-color="#662AB7" stop-opacity="0.8987"/>
<stop offset="1" stop-color="#5C1CB2"/>
</linearGradient>
</defs>
</svg>
