<svg width="29" height="30" viewBox="0 0 29 30" fill="none" xmlns="http://www.w3.org/2000/svg">
<path d="M9.14133 12.8869L10.0102 11.8947C10.7549 11.1092 11.1272 10.0344 11.0445 8.95948C11.0031 7.88461 10.5066 6.89242 9.72055 6.14828L8.23113 4.78402C7.48643 4.12256 6.53488 3.75049 5.50057 3.75049C4.34214 3.75049 3.26647 4.24658 2.48039 5.07341L1.61156 6.0656C1.48744 6.18962 1.4047 6.31364 1.28059 6.47901L1.23922 6.52035C0.411778 7.22315 -0.291557 8.95948 0.122166 11.1092C2.02529 20.9898 10.3411 28.5139 20.3946 29.4234C21.7185 29.5474 22.9597 29.258 23.8699 28.6792C24.2422 28.4725 24.5732 28.1831 24.8628 27.8937L25.7316 26.9016C27.221 25.2479 27.0969 22.6848 25.442 21.1551L23.9526 19.7909C23.2079 19.1294 22.2564 18.7573 21.2221 18.7573C20.0636 18.7573 18.9879 19.2534 18.2019 20.0803L17.333 21.0724C16.9607 21.4859 16.6711 21.982 16.5056 22.5194L16.4229 22.7674L16.1746 22.6847C12.2443 21.1138 9.01723 18.1786 7.1141 14.3752L6.98996 14.1271L7.27957 14.0444C8.02428 13.8377 8.64486 13.4243 9.14133 12.8869Z" fill="#72E6FF"/>
<path d="M14.106 1.18718C14.106 1.72461 14.5197 2.13803 15.0575 2.13803C21.6771 2.13803 27.0969 7.55372 27.0969 14.1683C27.0969 14.7057 27.5106 15.1192 28.0485 15.1192C28.5863 15.1192 29 14.7057 29 14.1683C29 6.47885 22.7528 0.236328 15.0575 0.236328C14.5197 0.236328 14.106 0.649741 14.106 1.18718Z" fill="#72E6FF"/>
<path d="M13.9406 5.81763C13.9406 6.35506 14.3543 6.76848 14.8921 6.76848C19.0707 6.76848 22.4632 10.1585 22.4632 14.3339C22.4632 14.8714 22.877 15.2848 23.4148 15.2848C23.9526 15.2848 24.3664 14.8714 24.3664 14.3339C24.3664 9.12493 20.1464 4.90812 14.9335 4.90812C14.3956 4.86678 13.9406 5.28019 13.9406 5.81763Z" fill="#72E6FF"/>
</svg>
