<svg width="117" height="136" viewBox="0 0 117 136" fill="none" xmlns="http://www.w3.org/2000/svg">
<path d="M78.4464 0.47364L17.7808 48.3978L52.9195 92.8263L113.585 44.9021L78.4464 0.47364Z" fill="url(#paint0_linear_112_505)"/>
<path d="M30.917 116.948L8.12275 135.045L0.453613 125.251L19.4134 110.348L6.20541 82.2445C4.92723 79.6896 5.77939 76.496 7.9097 74.7928L23.4609 62.6572L31.1301 72.4508L19.6264 81.6058L32.8343 109.709C33.8995 111.838 33.0473 115.032 30.917 116.948Z" fill="url(#paint1_linear_112_505)"/>
<path d="M106.743 16.4317L99.7244 21.9775L109.898 34.8384L116.917 29.2926L106.743 16.4317Z" fill="url(#paint2_linear_112_505)"/>
<defs>
<linearGradient id="paint0_linear_112_505" x1="48.1136" y1="24.4357" x2="83.2268" y2="68.8844" gradientUnits="userSpaceOnUse">
<stop stop-color="#00679A"/>
<stop offset="1" stop-color="#004D74"/>
</linearGradient>
<linearGradient id="paint1_linear_112_505" x1="16.8732" y1="62.6572" x2="16.8732" y2="135.045" gradientUnits="userSpaceOnUse">
<stop stop-color="#00679A"/>
<stop offset="1" stop-color="#004D74"/>
</linearGradient>
<linearGradient id="paint2_linear_112_505" x1="103.234" y1="19.2046" x2="113.4" y2="32.0714" gradientUnits="userSpaceOnUse">
<stop stop-color="#00679A"/>
<stop offset="1" stop-color="#004D74"/>
</linearGradient>
</defs>
</svg>
