<svg width="155" height="131" viewBox="0 0 155 131" fill="none" xmlns="http://www.w3.org/2000/svg">
<path d="M35.04 19.9705C34.6139 20.6092 34.4009 21.2479 34.1879 21.4608C33.9749 22.3124 33.7618 22.7382 33.7618 22.9511C33.3357 22.7382 32.6966 22.5254 32.2706 22.7383C31.8445 22.9512 31.8445 23.377 31.2054 23.377C30.5663 23.5899 29.7142 23.1641 29.0751 23.1641C27.7969 22.9512 26.5187 22.7382 25.2406 22.5253C23.1102 22.0995 22.4711 20.1834 22.6842 18.2672C22.8972 16.564 24.6015 15.9253 26.0927 15.7124C27.5839 15.4995 29.5012 14.8608 30.7794 15.7124C32.9097 16.7769 32.0576 20.3963 35.04 19.9705Z" fill="url(#paint0_linear_112_509)"/>
<path d="M131.33 34.0221C131.117 32.3189 127.07 28.4866 125.792 27.2091C124.939 26.3575 122.17 24.0156 121.318 23.3769C120.679 22.9511 120.679 22.951 120.466 22.7381C120.466 22.5252 120.253 22.0994 120.04 21.2478C119.827 21.0349 119.614 20.3962 119.188 19.7574C116.844 15.4993 109.814 4.64118 109.175 4.00247C108.536 3.36375 107.045 1.8734 104.701 1.6605C102.571 1.23469 80.842 0.170166 76.7944 0.170166C72.7468 0.170166 51.0176 1.23469 48.8873 1.6605C46.757 2.08631 45.2658 3.36375 44.6267 4.00247C43.9876 4.64118 37.1706 15.2864 34.8273 19.7574C34.4012 20.3962 34.1882 21.0349 33.9751 21.2478C33.7621 22.0994 33.5491 22.5252 33.5491 22.7381C33.336 22.951 32.91 23.3769 32.6969 23.3769C32.0579 23.8027 29.7145 25.5059 28.4363 26.7833C26.519 28.9124 23.1105 31.8931 22.8975 33.8092C22.8975 35.5125 22.0454 36.7899 22.2584 40.4093C22.2584 42.1125 22.8975 47.4351 23.3236 52.332C23.7497 57.6546 24.3887 62.5514 24.3887 62.9772C24.3887 63.8289 24.1757 64.6805 24.6018 65.3192C25.0279 65.9579 25.8799 66.1708 27.1581 66.1708C27.5842 66.1708 32.0579 66.1708 38.2358 66.3837C52.9349 66.5966 77.2204 66.8095 77.2204 66.8095C77.2204 66.8095 102.145 66.3837 116.844 66.1708C122.596 66.1708 126.857 65.9579 127.283 65.9579C128.561 65.9579 129.413 65.745 129.839 65.1063C130.052 64.4676 129.839 63.616 130.052 62.7643C130.052 62.3385 130.904 53.1836 131.543 46.5835C131.756 43.6029 131.969 41.2609 131.969 40.1964C132.182 37.0028 131.33 35.7254 131.33 34.0221ZM123.022 32.7447C124.939 32.7447 125.365 32.5318 125.792 34.235C126.005 35.2995 126.005 37.0028 125.792 37.8544C124.939 41.4738 120.253 41.4738 117.27 41.4738C111.732 41.4738 106.832 42.9642 102.358 35.0867C106.193 34.0221 110.666 34.0221 114.501 33.3834C117.27 32.9576 120.04 32.7447 123.022 32.7447ZM46.1179 4.64119L77.2204 3.57666L108.323 4.64119C108.323 4.64119 119.614 22.0994 118.761 22.0994C117.909 22.0994 89.7893 20.6091 77.2204 20.822C64.6516 20.6091 36.5315 22.0994 35.6794 22.0994C34.8272 22.0994 46.1179 4.64119 46.1179 4.64119ZM28.6494 34.235C29.0754 32.5318 29.5015 32.7447 31.2057 32.7447C34.1881 32.7447 36.9576 32.9576 39.94 33.5963C43.7745 34.235 48.2482 34.0221 52.0828 35.2995C47.6091 43.177 42.9225 41.8996 37.1706 41.8996C34.1882 41.8996 29.5015 41.8996 28.6494 38.2802C28.4363 37.0028 28.4363 35.5124 28.6494 34.235ZM48.6743 62.7643C46.757 63.4031 42.4964 63.1902 40.3661 63.1902C39.514 63.1902 38.8749 63.1902 38.2358 63.1902C36.5315 63.1902 34.6142 63.1902 32.91 63.1902C32.0579 63.1902 31.2057 63.1902 30.5666 63.1902C27.5842 63.1902 26.9451 62.1256 27.7973 59.1449C28.4363 57.0159 28.0102 54.8868 30.3536 54.0352C31.2057 53.8223 33.9752 53.6094 37.3837 53.6094C37.8097 53.6094 38.0227 53.6094 38.4488 53.6094C39.514 53.6094 40.7921 53.6094 42.0703 53.8223C42.7094 53.8223 43.5615 53.8223 44.2006 53.8223C44.4136 53.8223 44.6267 53.8223 45.0527 53.8223C45.4788 53.8223 45.9048 53.8223 46.1179 53.8223C46.5439 53.8223 46.97 53.8223 47.183 53.8223C47.6091 53.8223 47.8221 53.8223 48.2482 53.8223C48.8873 53.8223 49.3134 54.0352 49.9525 54.0352C50.3785 54.0352 50.5916 54.0352 51.0176 54.2481C51.2307 54.2481 51.4437 54.2481 51.8697 54.461C52.0828 54.461 52.0828 54.461 52.2958 54.461C52.5089 54.461 52.7219 54.461 52.7219 54.461H52.9349H53.1479C53.361 54.461 53.574 54.461 53.574 54.461C52.5088 57.6546 51.6567 61.6998 48.6743 62.7643ZM97.6714 58.932C96.6063 61.9127 92.3456 61.4869 91.9196 61.4869H62.5213C62.0952 61.4869 57.8346 61.9127 56.7694 58.932C55.7043 55.9514 54.0001 50.8416 53.361 48.4997C52.7219 45.9448 50.5915 41.4738 63.1604 41.6867C69.5513 41.8996 74.238 41.8996 77.2204 41.6867C80.2029 41.6867 84.8896 41.6867 91.2805 41.6867C103.849 41.4738 101.719 45.7319 101.08 48.2868C100.441 50.8416 98.7366 55.9514 97.6714 58.932ZM123.874 63.1902C121.531 63.1902 119.188 63.1901 116.844 63.403C115.779 63.403 114.927 63.403 113.862 63.403C111.731 63.403 107.471 63.6159 105.767 62.9772C102.784 61.9127 101.932 57.8675 101.08 55.0997C101.293 55.0997 101.506 55.0997 101.719 54.8868C101.932 54.8868 102.358 54.8868 102.784 54.6739C102.997 54.6739 103.21 54.6739 103.423 54.6739H103.636C103.849 54.6739 104.275 54.6739 104.488 54.461C104.701 54.461 105.128 54.461 105.554 54.2481C106.406 54.2481 107.258 54.0352 108.11 54.0352C108.323 54.0352 108.536 54.0352 108.962 54.0352C110.24 54.0352 111.731 53.8223 113.223 53.8223C113.649 53.8223 113.862 53.8223 114.288 53.8223H115.14C115.566 53.8223 115.779 53.8223 115.992 53.8223H116.631C120.253 53.8223 123.235 53.8223 124.087 54.2481C126.431 55.0998 126.005 57.2288 126.644 59.3578C127.496 62.1256 127.07 63.1902 123.874 63.1902Z" fill="url(#paint1_linear_112_509)"/>
<path d="M38.2357 68.7254V74.6868C38.2357 75.3255 37.8096 75.7513 37.1705 75.7513H24.3886C23.7495 75.7513 23.3235 75.3255 23.3235 74.6868V67.6609C24.3886 68.7254 26.0929 68.7254 26.945 68.7254C27.158 68.5125 38.2357 68.7254 38.2357 68.7254Z" fill="url(#paint2_linear_112_509)"/>
<path d="M131.756 66.3838V74.4742C131.756 75.1129 131.33 75.5387 130.691 75.5387H117.909C117.27 75.5387 116.844 75.1129 116.844 74.4742V68.5128C122.809 68.5128 127.283 68.2999 127.283 68.2999C128.135 68.5128 130.478 68.5128 131.756 66.3838Z" fill="url(#paint3_linear_112_509)"/>
<path d="M37.1705 58.5061C37.1705 60.6352 35.4662 62.3384 33.3359 62.3384C31.2056 62.3384 29.5013 60.6352 29.5013 58.5061C29.5013 56.3771 31.2056 54.6738 33.3359 54.6738C35.4662 54.6738 37.1705 56.3771 37.1705 58.5061Z" fill="url(#paint4_linear_112_509)"/>
<path d="M128.987 22.3122C127.709 22.5251 126.431 22.738 125.152 22.9509C124.513 22.9509 123.661 23.3768 123.022 23.1638C122.596 22.9509 122.383 22.5251 121.957 22.5251C121.531 22.3122 120.892 22.5251 120.466 22.738C120.466 22.5251 120.253 22.0993 120.04 21.2477C120.04 21.0348 119.614 20.3961 119.188 19.7573C122.17 20.3961 121.318 16.5638 123.235 15.4992C124.513 14.6476 126.644 15.2863 127.922 15.4992C129.413 15.7121 131.117 16.3509 131.33 18.0541C131.756 19.9703 130.904 21.8864 128.987 22.3122Z" fill="url(#paint5_linear_112_509)"/>
<path d="M43.7742 58.5061C43.7742 59.9964 42.4959 61.2738 41.0047 61.2738C39.5135 61.2738 38.2354 59.9964 38.2354 58.5061C38.2354 57.0157 39.5135 55.7383 41.0047 55.7383C42.4959 55.7383 43.7742 57.0157 43.7742 58.5061Z" fill="url(#paint6_linear_112_509)"/>
<path d="M124.726 58.2932C124.726 60.4223 123.022 62.1255 120.892 62.1255C118.761 62.1255 117.057 60.4223 117.057 58.2932C117.057 56.1642 118.761 54.4609 120.892 54.4609C123.022 54.4609 124.726 56.1642 124.726 58.2932Z" fill="url(#paint7_linear_112_509)"/>
<path d="M115.566 58.2932C115.566 59.7835 114.288 61.0609 112.796 61.0609C111.305 61.0609 110.027 59.7835 110.027 58.2932C110.027 56.8028 111.305 55.5254 112.796 55.5254C114.288 55.5254 115.566 56.8028 115.566 58.2932Z" fill="url(#paint8_linear_112_509)"/>
<path d="M29.0753 120.674H0.9552V130.894H29.0753V120.674Z" fill="url(#paint9_linear_112_509)"/>
<path d="M10.3286 118.545V32.7446H19.4889V77.6677H41.6442V81.0741H19.4889V118.545H10.3286Z" fill="url(#paint10_linear_112_509)"/>
<path d="M154.125 120.674H126.004V130.894H154.125V120.674Z" fill="url(#paint11_linear_112_509)"/>
<path d="M135.591 118.545V81.287H113.222V77.6677H135.591V32.7446H144.538V118.545H135.591Z" fill="url(#paint12_linear_112_509)"/>
<defs>
<linearGradient id="paint0_linear_112_509" x1="28.8427" y1="15.282" x2="28.8427" y2="23.4366" gradientUnits="userSpaceOnUse">
<stop stop-color="#00679A"/>
<stop offset="1" stop-color="#004D74"/>
</linearGradient>
<linearGradient id="paint1_linear_112_509" x1="77.1139" y1="0.170166" x2="77.1139" y2="66.8095" gradientUnits="userSpaceOnUse">
<stop stop-color="#00679A"/>
<stop offset="1" stop-color="#004D74"/>
</linearGradient>
<linearGradient id="paint2_linear_112_509" x1="30.7796" y1="67.6609" x2="30.7796" y2="75.7513" gradientUnits="userSpaceOnUse">
<stop stop-color="#00679A"/>
<stop offset="1" stop-color="#004D74"/>
</linearGradient>
<linearGradient id="paint3_linear_112_509" x1="124.3" y1="66.3838" x2="124.3" y2="75.5387" gradientUnits="userSpaceOnUse">
<stop stop-color="#00679A"/>
<stop offset="1" stop-color="#004D74"/>
</linearGradient>
<linearGradient id="paint4_linear_112_509" x1="33.3359" y1="54.6738" x2="33.3359" y2="62.3384" gradientUnits="userSpaceOnUse">
<stop stop-color="#00679A"/>
<stop offset="1" stop-color="#004D74"/>
</linearGradient>
<linearGradient id="paint5_linear_112_509" x1="125.313" y1="15.0688" x2="125.313" y2="23.2235" gradientUnits="userSpaceOnUse">
<stop stop-color="#00679A"/>
<stop offset="1" stop-color="#004D74"/>
</linearGradient>
<linearGradient id="paint6_linear_112_509" x1="41.0048" y1="55.7383" x2="41.0048" y2="61.2738" gradientUnits="userSpaceOnUse">
<stop stop-color="#00679A"/>
<stop offset="1" stop-color="#004D74"/>
</linearGradient>
<linearGradient id="paint7_linear_112_509" x1="120.892" y1="54.4609" x2="120.892" y2="62.1255" gradientUnits="userSpaceOnUse">
<stop stop-color="#00679A"/>
<stop offset="1" stop-color="#004D74"/>
</linearGradient>
<linearGradient id="paint8_linear_112_509" x1="112.796" y1="55.5254" x2="112.796" y2="61.0609" gradientUnits="userSpaceOnUse">
<stop stop-color="#00679A"/>
<stop offset="1" stop-color="#004D74"/>
</linearGradient>
<linearGradient id="paint9_linear_112_509" x1="15.0152" y1="120.674" x2="15.0152" y2="130.894" gradientUnits="userSpaceOnUse">
<stop stop-color="#00679A"/>
<stop offset="1" stop-color="#004D74"/>
</linearGradient>
<linearGradient id="paint10_linear_112_509" x1="25.9864" y1="32.7446" x2="25.9864" y2="118.545" gradientUnits="userSpaceOnUse">
<stop stop-color="#00679A"/>
<stop offset="1" stop-color="#004D74"/>
</linearGradient>
<linearGradient id="paint11_linear_112_509" x1="140.064" y1="120.674" x2="140.064" y2="130.894" gradientUnits="userSpaceOnUse">
<stop stop-color="#00679A"/>
<stop offset="1" stop-color="#004D74"/>
</linearGradient>
<linearGradient id="paint12_linear_112_509" x1="128.88" y1="32.7446" x2="128.88" y2="118.545" gradientUnits="userSpaceOnUse">
<stop stop-color="#00679A"/>
<stop offset="1" stop-color="#004D74"/>
</linearGradient>
</defs>
</svg>
