<svg width="110" height="110" viewBox="0 0 110 110" fill="none" xmlns="http://www.w3.org/2000/svg">
<circle cx="55" cy="55" r="55" fill="#77E218"/>
<g filter="url(#filter0_d_112_197)">
<circle cx="55" cy="55" r="41" fill="white"/>
</g>
<path d="M35.0019 47.2213C34.2214 47.0412 33.3208 47.2814 32.7204 47.8817C31.7599 48.8423 31.7599 50.4033 32.7204 51.3639C32.7204 51.3639 32.7205 51.3639 32.7805 51.3639L37.4034 55.9868L44.6679 48.7223L35.0019 47.2213Z" fill="#77E218"/>
<path d="M61.5984 73.5778C61.5984 73.5778 61.6584 73.5778 61.5984 73.5778L60.1575 64.332L52.893 71.5965L57.3357 76.0393C57.3958 76.0994 57.4558 76.2194 57.5158 76.2795C58.4764 77.2401 60.0374 77.2401 60.998 76.2795C61.7785 75.499 61.9586 74.4183 61.5984 73.5778Z" fill="#77E218"/>
<path d="M53.3733 57.608L51.332 55.5667C50.9718 55.2065 50.5515 55.0264 50.0712 55.0264C49.5909 55.0264 49.1707 55.2065 48.8105 55.5667L45.0881 59.289L44.5478 59.8294C44.1876 60.1896 44.0075 60.6098 44.0075 61.0901C44.0075 61.5704 44.1876 61.9907 44.5478 62.3509L46.5891 64.3922C46.9493 64.7524 47.3696 64.9325 47.8499 64.9325C48.3302 64.9325 48.7504 64.7524 49.1106 64.3922L53.3733 60.1295C53.7335 59.7693 53.9136 59.3491 53.9136 58.8688C53.8536 58.3885 53.6735 57.9682 53.3733 57.608Z" fill="#77E218"/>
<path d="M71.5046 51.1239L76.7879 35.3941C76.8479 35.214 76.9079 35.0339 76.968 34.8538C77.0881 34.0733 76.908 33.2928 76.3076 32.6924C75.7072 32.092 74.8667 31.8519 74.0862 32.092C73.9661 32.1521 73.846 32.1521 73.726 32.2121L58.3564 37.2552C57.8161 37.3753 57.2757 37.6155 56.9155 37.9757L45.9887 48.9025L38.1238 56.7674L36.803 58.0882C35.6623 59.2289 35.6623 61.1501 36.803 62.2908L38.6041 64.092L38.1238 64.9925L43.8874 70.7561L44.7879 70.2758L46.6491 72.137C47.7898 73.2777 49.711 73.2777 50.8517 72.137L52.1725 70.8162L59.9774 63.0113L70.9042 52.0845C71.2044 51.7843 71.3845 51.4841 71.5046 51.1239ZM49.5909 64.9325C48.6303 65.8931 47.0093 65.9531 45.9887 64.9325L43.9474 62.8912C42.9268 61.8706 42.9868 60.3096 43.9474 59.289L44.4878 58.7486L48.2101 55.0263C49.1707 54.0657 50.7917 54.0657 51.8123 55.0263L53.8536 57.0676C54.8742 58.0882 54.8142 59.6492 53.8536 60.6698L49.5909 64.9325ZM57.2757 51.6642C55.4746 49.8631 55.4746 46.9813 57.2757 45.1802C59.0768 43.3791 61.9586 43.3791 63.7598 45.1802C65.5609 46.9813 65.5609 49.8631 63.7598 51.6642C61.9586 53.4053 59.0768 53.4053 57.2757 51.6642Z" fill="#77E218"/>
<defs>
<filter id="filter0_d_112_197" x="10" y="14" width="90" height="90" filterUnits="userSpaceOnUse" color-interpolation-filters="sRGB">
<feFlood flood-opacity="0" result="BackgroundImageFix"/>
<feColorMatrix in="SourceAlpha" type="matrix" values="0 0 0 0 0 0 0 0 0 0 0 0 0 0 0 0 0 0 127 0" result="hardAlpha"/>
<feOffset dy="4"/>
<feGaussianBlur stdDeviation="2"/>
<feComposite in2="hardAlpha" operator="out"/>
<feColorMatrix type="matrix" values="0 0 0 0 0 0 0 0 0 0 0 0 0 0 0 0 0 0 0.25 0"/>
<feBlend mode="normal" in2="BackgroundImageFix" result="effect1_dropShadow_112_197"/>
<feBlend mode="normal" in="SourceGraphic" in2="effect1_dropShadow_112_197" result="shape"/>
</filter>
</defs>
</svg>
