<svg width="110" height="110" viewBox="0 0 110 110" fill="none" xmlns="http://www.w3.org/2000/svg">
<circle cx="55" cy="55" r="55" fill="#01A7BD"/>
<g filter="url(#filter0_d_112_209)">
<circle cx="55" cy="55" r="41" fill="white"/>
</g>
<path d="M66.4082 40.2312C66.4082 38.1705 65.4571 36.3211 63.9247 35.1057C63.7133 34.9472 63.3963 35.1057 63.3963 35.3699V39.7557L60.1202 41.7636L56.8441 39.7557V35.3699C56.8441 35.1057 56.5271 34.9472 56.3157 35.1057C54.8362 36.2682 53.8322 38.0119 53.8322 40.0727C53.7794 42.7147 55.3646 44.9868 57.6367 45.9908V63.9036C55.4174 64.8547 53.8322 67.074 53.8322 69.6632C53.8322 71.724 54.7834 73.5733 56.3157 74.7887C56.5271 74.9472 56.8441 74.7887 56.8441 74.5245V70.1387L60.1202 68.1308L63.3963 70.1387V74.5245C63.3963 74.7887 63.7133 74.9472 63.9247 74.7887C65.4042 73.6262 66.4082 71.8825 66.4082 69.8217C66.461 67.1797 64.8758 64.9076 62.6037 63.9036V45.938C64.823 44.9868 66.3554 42.7676 66.4082 40.2312Z" fill="#01A7BD"/>
<path d="M49.9221 53.3884H47.967V41.605L48.8124 40.2312L47.7556 35H45.642L44.5852 40.2312L45.4306 41.605V53.3884H43.4756C43.2114 53.3884 43 53.6526 43 53.9168V54.8679C43 55.185 43.2114 55.3963 43.4756 55.3963H43.5812C43.2114 56.0304 43 56.823 43 57.6684V70.9313C43 73.1506 44.5852 75 46.5403 75H46.8045C48.7596 75 50.3448 73.2034 50.3448 70.9313V57.6684C50.3448 56.823 50.1334 56.0832 49.7635 55.3963H49.8692C50.1334 55.3963 50.3448 55.1321 50.3448 54.8679V53.9168C50.3976 53.6526 50.1863 53.3884 49.9221 53.3884ZM44.7437 72.3052H43.9511V57.7213H44.7437V72.3052ZM47.0687 72.3052H46.2761V57.7213H47.0687V72.3052ZM49.3408 72.3052H48.5482V57.7213H49.3408V72.3052Z" fill="#01A7BD"/>
<defs>
<filter id="filter0_d_112_209" x="10" y="14" width="90" height="90" filterUnits="userSpaceOnUse" color-interpolation-filters="sRGB">
<feFlood flood-opacity="0" result="BackgroundImageFix"/>
<feColorMatrix in="SourceAlpha" type="matrix" values="0 0 0 0 0 0 0 0 0 0 0 0 0 0 0 0 0 0 127 0" result="hardAlpha"/>
<feOffset dy="4"/>
<feGaussianBlur stdDeviation="2"/>
<feComposite in2="hardAlpha" operator="out"/>
<feColorMatrix type="matrix" values="0 0 0 0 0 0 0 0 0 0 0 0 0 0 0 0 0 0 0.25 0"/>
<feBlend mode="normal" in2="BackgroundImageFix" result="effect1_dropShadow_112_209"/>
<feBlend mode="normal" in="SourceGraphic" in2="effect1_dropShadow_112_209" result="shape"/>
</filter>
</defs>
</svg>
