<svg width="90" height="133" viewBox="0 0 90 133" fill="none" xmlns="http://www.w3.org/2000/svg">
<path d="M88.826 62.33L88.613 61.9041L51.7586 17.194L50.6934 15.9166C50.0543 15.2778 48.9892 14.852 47.924 14.852H35.1422V11.6584H15.3303V14.852H4.67871C2.33537 14.852 0.418091 16.7682 0.418091 19.1101V128.118C0.418091 130.46 2.33537 132.376 4.67871 132.376H85.6305C87.9739 132.376 89.8912 130.46 89.8912 128.118V64.8848C89.6781 63.8202 89.4651 62.9687 88.826 62.33ZM75.192 118.537H13.413V73.6139H74.979V118.537H75.192ZM54.528 61.4783L51.9716 30.8199L75.8311 60.6267L77.1093 62.33L54.528 61.4783Z" fill="url(#paint0_linear_112_379)"/>
<path d="M51.5454 17.1939L50.4802 15.9165C50.9063 16.3423 51.3323 16.7681 51.5454 17.1939Z" fill="url(#paint1_linear_112_379)"/>
<path d="M36.6332 0.587646H13.4128V9.74255H36.6332V0.587646Z" fill="url(#paint2_linear_112_379)"/>
<path d="M53.8886 95.9691L53.6756 95.7561L44.9413 80.427L35.781 96.6078C34.9289 98.0982 34.5028 99.8014 34.5028 101.718C34.5028 107.466 39.1895 112.15 44.9413 112.15C50.6932 112.15 55.3799 107.466 55.3799 101.718C55.3799 99.5885 54.9538 97.6723 53.8886 95.9691ZM43.0241 108.956C42.385 110.021 40.8937 108.956 40.0416 108.53C38.9765 107.892 37.0592 106.401 37.2722 104.911C37.4852 102.995 39.6156 104.272 40.6807 105.124C41.9589 106.614 43.2371 108.53 43.0241 108.956Z" fill="url(#paint3_linear_112_379)"/>
<defs>
<linearGradient id="paint0_linear_112_379" x1="45.1546" y1="11.6584" x2="45.1546" y2="132.376" gradientUnits="userSpaceOnUse">
<stop stop-color="#00679A"/>
<stop offset="1" stop-color="#004D74"/>
</linearGradient>
<linearGradient id="paint1_linear_112_379" x1="51.0128" y1="15.9165" x2="51.0128" y2="17.1939" gradientUnits="userSpaceOnUse">
<stop stop-color="#00679A"/>
<stop offset="1" stop-color="#004D74"/>
</linearGradient>
<linearGradient id="paint2_linear_112_379" x1="25.023" y1="0.587646" x2="25.023" y2="9.74255" gradientUnits="userSpaceOnUse">
<stop stop-color="#00679A"/>
<stop offset="1" stop-color="#004D74"/>
</linearGradient>
<linearGradient id="paint3_linear_112_379" x1="44.9413" y1="80.427" x2="44.9413" y2="112.15" gradientUnits="userSpaceOnUse">
<stop stop-color="#00679A"/>
<stop offset="1" stop-color="#004D74"/>
</linearGradient>
</defs>
</svg>
