<svg width="88" height="54" viewBox="0 0 88 54" fill="none" xmlns="http://www.w3.org/2000/svg">
<path d="M80.5176 0H7.25273C6.02346 0 4.91711 0.982837 4.91711 2.08853V45.5792C4.91711 46.6849 5.90053 47.6677 7.25273 47.6677H80.5176C81.7469 47.6677 82.8532 46.6849 82.8532 45.5792V2.08853C82.8532 0.982837 81.7469 0 80.5176 0ZM79.5342 43.6135H8.23616V4.0542H79.5342V43.6135Z" fill="url(#paint0_linear_112_396)"/>
<path d="M87.7703 49.3875C87.7703 51.8446 86.0493 53.6874 83.8366 53.6874H3.93368C1.72098 53.6874 0 51.7217 0 49.3875H87.7703Z" fill="url(#paint1_linear_112_396)"/>
<path d="M57.4072 20.6395C55.6862 20.1481 53.3506 19.9024 52.2442 19.9024C52.1213 19.9024 52.1213 19.9024 51.9984 19.9024H51.2608V20.0253C51.5067 21.8681 51.6296 23.2195 51.5067 24.5709V24.6938H51.6296C56.7925 24.448 62.0784 23.9566 62.4472 23.8338C62.5702 23.8338 62.5701 23.7109 62.5701 23.5881C62.5701 23.0967 58.7594 21.0081 57.4072 20.6395ZM51.8754 24.4481C51.8754 23.2195 51.7525 21.8681 51.6296 20.271H51.9984C52.1213 20.271 52.2442 20.271 52.2442 20.271C53.3506 20.271 55.6862 20.5167 57.2843 21.0081C58.7594 21.3767 61.8326 23.2195 62.2014 23.7109C61.5867 23.7109 57.1613 24.0795 51.8754 24.4481ZM57.4072 20.6395C55.6862 20.1481 53.3506 19.9024 52.2442 19.9024C52.1213 19.9024 52.1213 19.9024 51.9984 19.9024H51.2608V20.0253C51.5067 21.8681 51.6296 23.2195 51.5067 24.5709V24.6938H51.6296C56.7925 24.448 62.0784 23.9566 62.4472 23.8338C62.5702 23.8338 62.5701 23.7109 62.5701 23.5881C62.5701 23.0967 58.7594 21.0081 57.4072 20.6395ZM51.8754 24.4481C51.8754 23.2195 51.7525 21.8681 51.6296 20.271H51.9984C52.1213 20.271 52.2442 20.271 52.2442 20.271C53.3506 20.271 55.6862 20.5167 57.2843 21.0081C58.7594 21.3767 61.8326 23.2195 62.2014 23.7109C61.5867 23.7109 57.1613 24.0795 51.8754 24.4481ZM57.4072 20.6395C55.6862 20.1481 53.3506 19.9024 52.2442 19.9024C52.1213 19.9024 52.1213 19.9024 51.9984 19.9024H51.2608V20.0253C51.5067 21.8681 51.6296 23.2195 51.5067 24.5709V24.6938H51.6296C56.7925 24.448 62.0784 23.9566 62.4472 23.8338C62.5702 23.8338 62.5701 23.7109 62.5701 23.5881C62.5701 23.0967 58.7594 21.0081 57.4072 20.6395ZM51.8754 24.4481C51.8754 23.2195 51.7525 21.8681 51.6296 20.271H51.9984C52.1213 20.271 52.2442 20.271 52.2442 20.271C53.3506 20.271 55.6862 20.5167 57.2843 21.0081C58.7594 21.3767 61.8326 23.2195 62.2014 23.7109C61.5867 23.7109 57.1613 24.0795 51.8754 24.4481ZM57.4072 20.6395C55.6862 20.1481 53.3506 19.9024 52.2442 19.9024C52.1213 19.9024 52.1213 19.9024 51.9984 19.9024H51.2608V20.0253C51.5067 21.8681 51.6296 23.2195 51.5067 24.5709V24.6938H51.6296C56.7925 24.448 62.0784 23.9566 62.4472 23.8338C62.5702 23.8338 62.5701 23.7109 62.5701 23.5881C62.5701 23.0967 58.7594 21.0081 57.4072 20.6395ZM51.8754 24.4481C51.8754 23.2195 51.7525 21.8681 51.6296 20.271H51.9984C52.1213 20.271 52.2442 20.271 52.2442 20.271C53.3506 20.271 55.6862 20.5167 57.2843 21.0081C58.7594 21.3767 61.8326 23.2195 62.2014 23.7109C61.5867 23.7109 57.1613 24.0795 51.8754 24.4481ZM57.4072 20.6395C55.6862 20.1481 53.3506 19.9024 52.2442 19.9024C52.1213 19.9024 52.1213 19.9024 51.9984 19.9024H51.2608V20.0253C51.5067 21.8681 51.6296 23.2195 51.5067 24.5709V24.6938H51.6296C56.7925 24.448 62.0784 23.9566 62.4472 23.8338C62.5702 23.8338 62.5701 23.7109 62.5701 23.5881C62.5701 23.0967 58.7594 21.0081 57.4072 20.6395ZM51.8754 24.4481C51.8754 23.2195 51.7525 21.8681 51.6296 20.271H51.9984C52.1213 20.271 52.2442 20.271 52.2442 20.271C53.3506 20.271 55.6862 20.5167 57.2843 21.0081C58.7594 21.3767 61.8326 23.2195 62.2014 23.7109C61.5867 23.7109 57.1613 24.0795 51.8754 24.4481ZM27.6587 28.6251L27.5358 28.3794C25.2001 28.9937 23.4792 31.0822 23.4792 33.5393C23.4792 33.9079 23.4792 34.1536 23.6021 34.5222H21.2665C20.6518 34.5222 20.6518 34.5222 19.9143 34.5222H19.1767C18.8079 34.5222 18.5621 34.3993 18.4391 34.2765L18.3162 34.1536C18.3162 34.1536 18.3162 34.1536 18.3162 34.0307C18.3162 33.9079 18.3162 33.785 18.3162 33.6622C18.3162 33.6622 18.3162 33.6622 18.3162 33.5393C18.3162 33.4165 18.3162 33.4165 18.3162 33.4165C18.3162 33.4165 18.3162 33.4165 18.3162 33.2936C18.3162 33.1708 18.3162 33.1708 18.4391 33.0479C18.4391 32.9251 18.4391 32.9251 18.4391 32.8022C18.4391 32.4336 18.4391 32.0651 18.4391 31.6965V31.0822C18.4391 30.9594 18.4391 30.8365 18.4391 30.8365V30.7137V30.5908C18.4391 30.4679 18.4391 30.468 18.4391 30.3451C18.4391 30.3451 18.4391 30.2222 18.4391 30.0994C18.4391 30.0994 18.4391 30.0994 18.4391 29.9765V29.8537C18.4391 29.7308 18.4391 29.608 18.4391 29.608C18.5621 28.6251 18.8079 28.3794 19.2996 27.7651C19.4225 27.6423 19.5455 27.5194 19.6684 27.2737C20.1601 26.5366 23.4792 26.0452 26.5524 25.7995L26.4294 25.5537C23.1104 25.9223 20.0372 26.4137 19.4226 27.1509C19.2996 27.2737 19.1767 27.5194 19.0538 27.6423C18.5621 28.2566 18.3162 28.6251 18.1933 29.608C18.1933 29.7308 18.1933 29.8537 18.1933 29.9765V30.0994V30.2222C18.1933 30.3451 18.1933 30.3451 18.1933 30.4679C18.1933 30.5908 18.1933 30.5908 18.1933 30.7137V30.8365V30.9594C18.1933 30.9594 18.1933 31.0822 18.1933 31.2051V31.8194C18.1933 32.1879 18.1933 32.5565 18.1933 32.925V33.0479C18.1933 33.0479 18.1933 33.1708 18.0703 33.1708C18.0703 33.1708 18.0703 33.1708 18.0703 33.2936C18.0703 33.2936 18.0703 33.2936 18.0703 33.4165C18.0703 33.4165 18.0703 33.4165 18.0703 33.5393V33.6622C18.0703 33.785 18.0703 34.0307 18.0703 34.1536V34.2765C18.0703 34.3993 18.1933 34.3993 18.3162 34.5222C18.562 34.645 18.8079 34.7679 19.2996 34.7679H20.0372C20.7748 34.7679 20.7747 34.7679 21.3894 34.7679H24.0938V34.645C23.9709 34.2765 23.9709 33.9079 23.9709 33.5393C23.8479 31.0822 25.446 29.1165 27.6587 28.6251ZM74.9858 28.9937C74.9858 28.8708 74.9858 28.8708 74.8629 28.748C74.8629 28.748 74.8629 28.748 74.8629 28.6251C74.8629 28.6251 74.8629 28.5023 74.74 28.3794V28.2566C74.74 28.2566 74.74 28.2566 74.74 28.1337C74.74 28.1337 74.74 28.1337 74.74 28.0108L74.6171 27.888C74.4941 27.7651 74.4941 27.7651 74.4941 27.6423V27.5194C74.4941 27.3966 74.4941 27.3966 74.4941 27.2737C74.4941 27.2737 74.4941 27.1509 74.4941 27.028V26.9052C74.4941 26.7823 74.4941 26.6594 74.3712 26.6594L74.2483 25.9223C74.2483 25.7995 74.2483 25.7995 74.1254 25.6766V25.4309V25.308C74.0024 24.9395 73.8795 24.5709 73.8795 24.4481C73.8795 24.3252 73.8795 24.3252 73.8795 24.3252V24.2023C73.7566 24.0795 73.5107 23.9566 72.2814 23.8338C71.1751 23.7109 69.7 23.4652 68.8395 23.2195C68.5936 23.0966 68.3478 22.9738 67.979 22.8509C65.5204 21.8681 59.8657 19.411 51.6296 19.1653C51.5067 19.1653 51.2608 19.1653 51.1379 19.1653C50.892 19.1653 50.6462 19.1653 50.4003 19.1653C45.4832 19.1653 45.2373 19.1653 44.131 19.5339C42.6559 20.0253 38.8451 21.8681 36.2636 23.2195C35.2802 23.7109 34.5426 24.0795 34.2968 24.2023C33.8051 24.3252 32.8217 24.5709 31.3465 24.6938V24.9395C32.8217 24.8166 33.928 24.6938 34.4197 24.4481C34.6656 24.3252 35.4032 23.9566 36.3866 23.4652C38.7222 22.2367 42.6559 20.271 44.131 19.7796C45.1144 19.411 45.4832 19.411 50.2774 19.411C50.5232 19.411 50.7691 19.411 51.0149 19.411C51.1379 19.411 51.3837 19.411 51.5067 19.411C59.7428 19.6567 65.2746 22.1138 67.7331 23.0966C68.1019 23.2195 68.3478 23.3424 68.5936 23.4652C69.577 23.8338 71.0522 24.0795 72.1585 24.2023C72.7731 24.3252 73.3878 24.3252 73.5107 24.4481C73.5107 24.4481 73.5107 24.5709 73.6336 24.5709C73.7566 24.8166 73.7566 25.0623 73.8795 25.4309V25.5537V25.6766C73.8795 25.7995 73.8795 25.9223 74.0024 25.9223L74.1254 26.5366C74.1254 26.5366 74.1254 26.5366 74.1254 26.6594C74.1254 26.7823 74.1254 26.7823 74.1254 26.9052C74.1254 26.9052 74.1254 26.9052 74.1254 27.028C74.1254 27.1509 74.1254 27.1509 74.1254 27.2737C74.1254 27.3966 74.1254 27.5194 74.1254 27.6423C74.1254 27.7651 74.2483 27.888 74.3712 28.0108C74.3712 28.0108 74.3712 28.0108 74.4941 28.1337C74.4941 28.1337 74.4941 28.2566 74.6171 28.3794C74.6171 28.5023 74.6171 28.5023 74.74 28.6251C74.9858 29.3622 74.8629 31.5736 74.74 32.0651C74.6171 32.0651 74.4941 32.1879 74.2483 32.3108C74.2483 32.3108 74.1253 32.4336 74.0024 32.4336C74.0024 32.4336 74.0024 32.4336 73.8795 32.4336L73.7566 32.5565C73.7566 32.5565 73.6336 32.5565 73.6336 32.6793C73.6336 32.6793 73.5107 32.6793 73.5107 32.8022C73.3878 32.8022 73.3878 32.925 73.2649 32.925L73.019 33.0479C72.7731 33.1708 72.4044 33.2936 71.9126 33.4165H71.7897H71.6668H71.5439C71.0522 33.5393 70.4375 33.6622 70.1917 33.6622C70.1917 33.4165 70.3146 33.0479 70.3146 32.6793C70.3146 29.7308 67.979 27.3966 65.0287 27.3966C62.0784 27.3966 59.7428 29.7308 59.7428 32.6793C59.7428 33.0479 59.7428 33.2936 59.8657 33.6622H34.4197C34.4197 33.2936 34.5427 33.0479 34.5427 32.6793C34.5427 30.4679 33.0675 28.5023 31.1007 27.7651V28.1337C32.9446 28.8708 34.2968 30.7137 34.2968 32.8022C34.2968 33.1708 34.2968 33.5393 34.1739 33.9079V34.0307H60.3575V33.9079C60.2345 33.5393 60.2345 33.1708 60.2345 32.8022C60.2345 30.0994 62.4472 27.7651 65.1516 27.7651C67.856 27.7651 70.1917 29.9765 70.1917 32.8022C70.1917 33.1708 70.1917 33.5393 70.0687 33.9079V34.1536H70.3146C70.6834 34.1536 71.298 34.0307 71.9126 33.9079H72.0356H72.1585C72.6502 33.785 73.019 33.6622 73.2649 33.5393L73.5107 33.4165C73.6336 33.4165 73.7566 33.2936 73.8795 33.2936C73.8795 33.2936 74.0024 33.2936 74.0024 33.1708L74.1254 33.0479L74.2483 32.925C74.2483 32.925 74.3712 32.9251 74.3712 32.8022C74.4941 32.8022 74.4941 32.6793 74.6171 32.6793C74.74 32.5565 74.8629 32.4336 74.9858 32.4336H75.1088L75.2317 32.3108C75.1088 32.1879 75.1088 29.8537 74.9858 28.9937Z" fill="url(#paint2_linear_112_396)"/>
<path d="M44.254 24.8164C45.3603 24.8164 46.4667 24.6936 47.6959 24.6936C46.5896 24.6936 45.3603 24.8164 44.254 24.8164ZM50.2774 20.1479C50.4003 20.1479 50.5233 20.1479 50.6462 20.1479H50.2774Z" fill="url(#paint3_linear_112_396)"/>
<path d="M51.2608 23.3423C51.2608 23.0966 51.2608 22.8509 51.2608 22.4823C51.2608 21.7452 51.1379 20.8852 51.0149 20.0252V19.9023H50.892C50.1544 19.9023 49.2939 19.9023 48.4335 19.9023C46.5895 19.9023 45.3603 19.9023 44.7456 20.0252C44.4998 20.0252 43.8851 20.2709 43.0246 20.6395C42.7788 20.7623 42.41 20.8852 42.1642 21.008C39.7056 22.1137 36.2636 23.7109 35.5261 24.5708C35.4031 24.6937 35.4031 24.6937 35.4031 24.8165C35.4031 24.9394 35.5261 24.9394 35.5261 24.9394H35.649C35.649 24.9394 35.649 24.9394 35.7719 24.9394C36.1407 25.0622 36.7553 25.0623 37.7388 25.1851C38.1075 25.1851 38.4763 25.1851 38.8451 25.1851H39.091C42.41 25.1851 47.45 24.9394 51.1379 24.6937H51.2608V24.5708C51.2608 24.2023 51.2608 23.8337 51.2608 23.3423ZM38.7222 24.448C38.5993 24.3251 38.3534 24.3251 38.2305 24.448C38.1075 24.448 38.1075 24.5708 38.1075 24.6937C38.1075 24.8165 38.2305 24.9394 38.3534 25.0623C38.1075 25.0623 37.8617 25.0623 37.6158 25.0623C36.8783 25.0623 36.2636 25.0622 35.8948 24.9394L36.0178 24.8165C36.5095 24.448 37.0012 23.9566 37.7388 23.588C37.8617 23.4651 38.1075 23.4651 38.2305 23.3423C38.4763 23.2194 38.5993 23.2194 38.8451 23.2194C38.8451 23.2194 39.2139 23.2194 39.2139 23.4651C39.2139 23.8337 39.2139 24.3251 39.091 24.5708C39.091 24.8165 38.968 24.8165 38.968 24.8165C38.968 24.5708 38.8451 24.5708 38.7222 24.448ZM49.5398 24.5708C49.294 24.5708 49.0481 24.5708 48.8022 24.5708C48.4335 24.5708 48.0647 24.5708 47.6959 24.5708C46.4666 24.6937 45.2373 24.6937 44.2539 24.6937C44.0081 24.6937 43.7622 24.6937 43.5163 24.6937C43.2705 24.6937 42.9017 24.6937 42.6559 24.6937C42.2871 24.6937 41.9183 24.6937 41.5495 24.6937C41.1807 24.6937 40.8119 24.6937 40.5661 24.6937C40.0744 24.6937 39.7056 24.6937 39.2139 24.6937C39.3368 24.6937 39.5827 24.6937 39.7056 24.2023C39.7056 23.9566 39.8285 23.4651 39.8285 23.0966C39.8285 22.728 39.5827 22.6052 39.2139 22.6052L40.1973 22.1137C40.3202 21.9909 40.5661 21.9909 40.689 21.868C40.9349 21.7452 41.1807 21.6223 41.4266 21.4995C41.6724 21.3766 41.7954 21.2537 42.0412 21.2537C43.0246 20.7623 43.8851 20.3938 44.4998 20.2709C44.6227 20.2709 44.6227 20.2709 44.7456 20.2709C44.8686 20.2709 44.8686 20.2709 44.9915 20.1481H45.1144C45.2373 20.1481 45.3603 20.1481 45.4832 20.1481C45.7291 20.1481 46.0978 20.1481 46.4666 20.1481C47.0813 20.1481 47.8188 20.1481 48.8022 20.1481C49.4169 20.1481 50.1544 20.1481 50.6462 20.1481H51.0149C51.2608 21.7452 51.2608 23.2194 51.2608 24.448C50.5232 24.448 50.0315 24.5708 49.5398 24.5708Z" fill="url(#paint4_linear_112_396)"/>
<path d="M19.6684 29.4851C19.4226 29.4851 19.1767 29.4851 18.9309 29.4851H18.4391V29.3622C18.5621 28.3794 18.8079 28.0108 19.2996 27.3965L19.4226 27.2737H19.6684C19.9143 27.2737 20.2831 27.2737 20.5289 27.2737C21.0206 27.2737 21.7582 27.2737 22.3728 27.2737H22.4958V27.3965C22.2499 28.2565 22.004 29.1165 20.8977 29.3622C20.5289 29.4851 20.1601 29.4851 19.6684 29.4851ZM18.8079 29.1165C19.1767 29.1165 19.4226 29.1165 19.6684 29.1165C20.1601 29.1165 20.5289 29.1165 20.8977 28.9936C21.7582 28.7479 22.0041 28.1337 22.2499 27.3965C21.6353 27.3965 21.0206 27.3965 20.5289 27.3965C20.2831 27.3965 19.9143 27.3965 19.6684 27.3965C19.1767 28.1337 18.9309 28.3794 18.8079 29.1165Z" fill="url(#paint5_linear_112_396)"/>
<path d="M25.6919 32.8022V32.9251C25.6919 33.0479 25.6919 33.2937 25.6919 33.4165C25.6919 34.2765 26.0607 35.0136 26.6753 35.6279L26.7982 35.7508L27.7817 34.3994L28.1504 33.9079L28.3963 33.5394L25.6919 32.8022ZM26.6753 35.3822C26.1836 34.8908 25.9378 34.1536 25.9378 33.5394C25.9378 33.4165 25.9378 33.2937 25.9378 33.2937L27.167 33.6622L27.7817 33.9079L26.6753 35.3822ZM28.3963 30.3451C27.4129 30.468 26.5524 31.0823 26.0607 32.0651L25.9378 32.188L27.5358 32.6794L28.1504 32.9251L28.6422 33.048V30.3451H28.3963ZM28.2734 32.5565L26.4295 31.9423C26.7982 31.2051 27.5358 30.7137 28.2734 30.5909V32.5565ZM28.888 33.048C28.6422 33.048 28.3963 33.2937 28.3963 33.5394C28.3963 33.7851 28.6422 34.0308 28.888 34.0308C29.1339 34.0308 29.3797 33.7851 29.3797 33.5394C29.2568 33.1708 29.1339 33.048 28.888 33.048ZM29.5026 34.8908L28.888 34.0308L27.2899 36.2422L27.4129 36.365C27.9046 36.6107 28.3963 36.7336 28.888 36.7336C29.3797 36.7336 29.8714 36.6107 30.3631 36.365L30.4861 36.2422L29.5026 34.8908ZM27.6587 36.1193L28.7651 34.5222L29.8714 36.1193C29.2568 36.4879 28.3963 36.4879 27.6587 36.1193ZM31.7153 31.9423C31.2236 31.0823 30.3631 30.468 29.3797 30.2223H29.1339V32.9251L31.7153 32.0651V31.9423ZM29.5026 32.5565V30.5909C30.2402 30.7137 30.9778 31.2051 31.3466 31.9423L29.5026 32.5565ZM32.0841 32.9251V32.8022L29.5026 33.6622L31.1007 35.8736L31.2236 35.7508C31.8383 35.1365 32.0841 34.2765 32.0841 33.5394C32.0841 33.2937 32.0841 33.1708 32.0841 32.9251ZM31.1007 35.3822L29.9943 33.9079L31.8383 33.2937C31.8383 33.4165 31.8383 33.4165 31.8383 33.5394C31.7153 34.1536 31.4695 34.8908 31.1007 35.3822ZM25.6919 32.8022V32.9251C25.6919 33.0479 25.6919 33.2937 25.6919 33.4165C25.6919 34.2765 26.0607 35.0136 26.6753 35.6279L26.7982 35.7508L27.7817 34.3994L28.1504 33.9079L28.3963 33.5394L25.6919 32.8022ZM26.6753 35.3822C26.1836 34.8908 25.9378 34.1536 25.9378 33.5394C25.9378 33.4165 25.9378 33.2937 25.9378 33.2937L27.167 33.6622L27.7817 33.9079L26.6753 35.3822ZM28.3963 30.3451C27.4129 30.468 26.5524 31.0823 26.0607 32.0651L25.9378 32.188L27.5358 32.6794L28.1504 32.9251L28.6422 33.048V30.3451H28.3963ZM28.2734 32.5565L26.4295 31.9423C26.7982 31.2051 27.5358 30.7137 28.2734 30.5909V32.5565ZM28.888 33.048C28.6422 33.048 28.3963 33.2937 28.3963 33.5394C28.3963 33.7851 28.6422 34.0308 28.888 34.0308C29.1339 34.0308 29.3797 33.7851 29.3797 33.5394C29.2568 33.1708 29.1339 33.048 28.888 33.048ZM29.5026 34.8908L28.888 34.0308L27.2899 36.2422L27.4129 36.365C27.9046 36.6107 28.3963 36.7336 28.888 36.7336C29.3797 36.7336 29.8714 36.6107 30.3631 36.365L30.4861 36.2422L29.5026 34.8908ZM27.6587 36.1193L28.7651 34.5222L29.8714 36.1193C29.2568 36.4879 28.3963 36.4879 27.6587 36.1193ZM31.7153 31.9423C31.2236 31.0823 30.3631 30.468 29.3797 30.2223H29.1339V32.9251L31.7153 32.0651V31.9423ZM29.5026 32.5565V30.5909C30.2402 30.7137 30.9778 31.2051 31.3466 31.9423L29.5026 32.5565ZM32.0841 32.9251V32.8022L29.5026 33.6622L31.1007 35.8736L31.2236 35.7508C31.8383 35.1365 32.0841 34.2765 32.0841 33.5394C32.0841 33.2937 32.0841 33.1708 32.0841 32.9251ZM31.1007 35.3822L29.9943 33.9079L31.8383 33.2937C31.8383 33.4165 31.8383 33.4165 31.8383 33.5394C31.7153 34.1536 31.4695 34.8908 31.1007 35.3822ZM25.6919 32.8022V32.9251C25.6919 33.0479 25.6919 33.2937 25.6919 33.4165C25.6919 34.2765 26.0607 35.0136 26.6753 35.6279L26.7982 35.7508L27.7817 34.3994L28.1504 33.9079L28.3963 33.5394L25.6919 32.8022ZM26.6753 35.3822C26.1836 34.8908 25.9378 34.1536 25.9378 33.5394C25.9378 33.4165 25.9378 33.2937 25.9378 33.2937L27.167 33.6622L27.7817 33.9079L26.6753 35.3822ZM28.3963 30.3451C27.4129 30.468 26.5524 31.0823 26.0607 32.0651L25.9378 32.188L27.5358 32.6794L28.1504 32.9251L28.6422 33.048V30.3451H28.3963ZM28.2734 32.5565L26.4295 31.9423C26.7982 31.2051 27.5358 30.7137 28.2734 30.5909V32.5565ZM28.888 33.048C28.6422 33.048 28.3963 33.2937 28.3963 33.5394C28.3963 33.7851 28.6422 34.0308 28.888 34.0308C29.1339 34.0308 29.3797 33.7851 29.3797 33.5394C29.2568 33.1708 29.1339 33.048 28.888 33.048ZM29.5026 34.8908L28.888 34.0308L27.2899 36.2422L27.4129 36.365C27.9046 36.6107 28.3963 36.7336 28.888 36.7336C29.3797 36.7336 29.8714 36.6107 30.3631 36.365L30.4861 36.2422L29.5026 34.8908ZM27.6587 36.1193L28.7651 34.5222L29.8714 36.1193C29.2568 36.4879 28.3963 36.4879 27.6587 36.1193ZM31.7153 31.9423C31.2236 31.0823 30.3631 30.468 29.3797 30.2223H29.1339V32.9251L31.7153 32.0651V31.9423ZM29.5026 32.5565V30.5909C30.2402 30.7137 30.9778 31.2051 31.3466 31.9423L29.5026 32.5565ZM32.0841 32.9251V32.8022L29.5026 33.6622L31.1007 35.8736L31.2236 35.7508C31.8383 35.1365 32.0841 34.2765 32.0841 33.5394C32.0841 33.2937 32.0841 33.1708 32.0841 32.9251ZM31.1007 35.3822L29.9943 33.9079L31.8383 33.2937C31.8383 33.4165 31.8383 33.4165 31.8383 33.5394C31.7153 34.1536 31.4695 34.8908 31.1007 35.3822ZM30.609 29.4852V29.8537C31.9612 30.468 32.9446 31.8194 32.9446 33.5394C32.9446 35.7508 31.1007 37.5936 28.888 37.5936C26.6753 37.5936 24.8314 35.7508 24.8314 33.5394C24.8314 31.5737 26.1836 29.9766 28.0275 29.608L27.9046 29.3623C25.9377 29.7309 24.5855 31.5737 24.5855 33.5394C24.5855 35.8736 26.5524 37.8393 28.888 37.8393C31.2236 37.8393 33.1905 35.8736 33.1905 33.5394C33.1905 31.6965 32.0841 30.2223 30.609 29.4852ZM31.1007 35.7508C31.7153 35.1365 31.9612 34.2765 31.9612 33.5394C31.9612 33.4165 31.9612 33.1708 31.9612 33.048V32.9251L29.3797 33.7851L30.9778 35.9965L31.1007 35.7508ZM29.8714 33.7851L31.7153 33.1708C31.7153 33.2937 31.7153 33.2937 31.7153 33.4165C31.7153 34.1537 31.4695 34.7679 30.9778 35.2594L29.8714 33.7851ZM31.7153 31.9423C31.2236 31.0823 30.3631 30.468 29.3797 30.2223H29.1339V32.9251L31.7153 32.0651V31.9423ZM29.5026 32.5565V30.5909C30.2402 30.7137 30.9778 31.2051 31.3466 31.9423L29.5026 32.5565ZM28.888 36.7336C29.3797 36.7336 29.8714 36.6107 30.3631 36.365L30.4861 36.2422L29.5026 34.8908L28.888 34.0308L27.2899 36.2422L27.4129 36.365C27.9046 36.6107 28.3963 36.7336 28.888 36.7336ZM28.888 34.5222L29.9943 36.1193C29.2568 36.4879 28.3963 36.4879 27.6587 36.1193L28.888 34.5222ZM28.888 33.9079C29.1339 33.9079 29.3797 33.6622 29.3797 33.4165C29.3797 33.1708 29.1339 32.9251 28.888 32.9251C28.6422 32.9251 28.3963 33.1708 28.3963 33.4165C28.3963 33.6622 28.6422 33.9079 28.888 33.9079ZM26.0607 31.9423L25.9378 32.0651L27.5358 32.5565L28.1504 32.8022L28.6422 32.9251V30.2223H28.5192C27.4129 30.468 26.5524 31.0823 26.0607 31.9423ZM28.2734 30.5909V32.5565L26.4295 31.9423C26.7982 31.328 27.4129 30.8366 28.2734 30.5909ZM28.2734 33.6622L25.6919 32.8022V32.9251C25.6919 33.0479 25.6919 33.2937 25.6919 33.4165C25.6919 34.2765 26.0607 35.0136 26.6753 35.6279L26.7982 35.7508L27.7817 34.3994L28.1504 33.9079L28.2734 33.6622ZM26.6753 35.3822C26.1836 34.8908 25.9378 34.1536 25.9378 33.5394C25.9378 33.4165 25.9378 33.2937 25.9378 33.2937L27.167 33.6622L27.7817 33.9079L26.6753 35.3822ZM32.0841 32.9251V32.8022L29.5026 33.6622L31.1007 35.8736L31.2236 35.7508C31.8383 35.1365 32.0841 34.2765 32.0841 33.5394C32.0841 33.2937 32.0841 33.1708 32.0841 32.9251ZM31.1007 35.3822L29.9943 33.9079L31.8383 33.2937C31.8383 33.4165 31.8383 33.4165 31.8383 33.5394C31.7153 34.1536 31.4695 34.8908 31.1007 35.3822ZM31.7153 31.9423C31.2236 31.0823 30.3631 30.468 29.3797 30.2223H29.1339V32.9251L31.7153 32.0651V31.9423ZM29.5026 32.5565V30.5909C30.2402 30.7137 30.9778 31.2051 31.3466 31.9423L29.5026 32.5565ZM29.5026 34.8908L28.888 34.0308L27.2899 36.2422L27.4129 36.365C27.9046 36.6107 28.3963 36.7336 28.888 36.7336C29.3797 36.7336 29.8714 36.6107 30.3631 36.365L30.4861 36.2422L29.5026 34.8908ZM27.6587 36.1193L28.7651 34.5222L29.8714 36.1193C29.2568 36.4879 28.3963 36.4879 27.6587 36.1193ZM28.888 33.048C28.6422 33.048 28.3963 33.2937 28.3963 33.5394C28.3963 33.7851 28.6422 34.0308 28.888 34.0308C29.1339 34.0308 29.3797 33.7851 29.3797 33.5394C29.2568 33.1708 29.1339 33.048 28.888 33.048ZM28.3963 30.3451C27.4129 30.468 26.5524 31.0823 26.0607 32.0651L25.9378 32.188L27.5358 32.6794L28.1504 32.9251L28.6422 33.048V30.3451H28.3963ZM28.2734 32.5565L26.4295 31.9423C26.7982 31.2051 27.5358 30.7137 28.2734 30.5909V32.5565ZM25.6919 32.8022V32.9251C25.6919 33.0479 25.6919 33.2937 25.6919 33.4165C25.6919 34.2765 26.0607 35.0136 26.6753 35.6279L26.7982 35.7508L27.7817 34.3994L28.1504 33.9079L28.3963 33.5394L25.6919 32.8022ZM26.6753 35.3822C26.1836 34.8908 25.9378 34.1536 25.9378 33.5394C25.9378 33.4165 25.9378 33.2937 25.9378 33.2937L27.167 33.6622L27.7817 33.9079L26.6753 35.3822ZM32.0841 32.9251V32.8022L29.5026 33.6622L31.1007 35.8736L31.2236 35.7508C31.8383 35.1365 32.0841 34.2765 32.0841 33.5394C32.0841 33.2937 32.0841 33.1708 32.0841 32.9251ZM31.1007 35.3822L29.9943 33.9079L31.8383 33.2937C31.8383 33.4165 31.8383 33.4165 31.8383 33.5394C31.7153 34.1536 31.4695 34.8908 31.1007 35.3822ZM31.7153 31.9423C31.2236 31.0823 30.3631 30.468 29.3797 30.2223H29.1339V32.9251L31.7153 32.0651V31.9423ZM29.5026 32.5565V30.5909C30.2402 30.7137 30.9778 31.2051 31.3466 31.9423L29.5026 32.5565ZM29.5026 34.8908L28.888 34.0308L27.2899 36.2422L27.4129 36.365C27.9046 36.6107 28.3963 36.7336 28.888 36.7336C29.3797 36.7336 29.8714 36.6107 30.3631 36.365L30.4861 36.2422L29.5026 34.8908ZM27.6587 36.1193L28.7651 34.5222L29.8714 36.1193C29.2568 36.4879 28.3963 36.4879 27.6587 36.1193ZM28.888 33.048C28.6422 33.048 28.3963 33.2937 28.3963 33.5394C28.3963 33.7851 28.6422 34.0308 28.888 34.0308C29.1339 34.0308 29.3797 33.7851 29.3797 33.5394C29.2568 33.1708 29.1339 33.048 28.888 33.048ZM28.3963 30.3451C27.4129 30.468 26.5524 31.0823 26.0607 32.0651L25.9378 32.188L27.5358 32.6794L28.1504 32.9251L28.6422 33.048V30.3451H28.3963ZM28.2734 32.5565L26.4295 31.9423C26.7982 31.2051 27.5358 30.7137 28.2734 30.5909V32.5565ZM25.6919 32.8022V32.9251C25.6919 33.0479 25.6919 33.2937 25.6919 33.4165C25.6919 34.2765 26.0607 35.0136 26.6753 35.6279L26.7982 35.7508L27.7817 34.3994L28.1504 33.9079L28.3963 33.5394L25.6919 32.8022ZM26.6753 35.3822C26.1836 34.8908 25.9378 34.1536 25.9378 33.5394C25.9378 33.4165 25.9378 33.2937 25.9378 33.2937L27.167 33.6622L27.7817 33.9079L26.6753 35.3822ZM32.0841 32.9251V32.8022L29.5026 33.6622L31.1007 35.8736L31.2236 35.7508C31.8383 35.1365 32.0841 34.2765 32.0841 33.5394C32.0841 33.2937 32.0841 33.1708 32.0841 32.9251ZM31.1007 35.3822L29.9943 33.9079L31.8383 33.2937C31.8383 33.4165 31.8383 33.4165 31.8383 33.5394C31.7153 34.1536 31.4695 34.8908 31.1007 35.3822ZM31.7153 31.9423C31.2236 31.0823 30.3631 30.468 29.3797 30.2223H29.1339V32.9251L31.7153 32.0651V31.9423ZM29.5026 32.5565V30.5909C30.2402 30.7137 30.9778 31.2051 31.3466 31.9423L29.5026 32.5565ZM29.5026 34.8908L28.888 34.0308L27.2899 36.2422L27.4129 36.365C27.9046 36.6107 28.3963 36.7336 28.888 36.7336C29.3797 36.7336 29.8714 36.6107 30.3631 36.365L30.4861 36.2422L29.5026 34.8908ZM27.6587 36.1193L28.7651 34.5222L29.8714 36.1193C29.2568 36.4879 28.3963 36.4879 27.6587 36.1193ZM28.888 33.048C28.6422 33.048 28.3963 33.2937 28.3963 33.5394C28.3963 33.7851 28.6422 34.0308 28.888 34.0308C29.1339 34.0308 29.3797 33.7851 29.3797 33.5394C29.2568 33.1708 29.1339 33.048 28.888 33.048ZM28.3963 30.3451C27.4129 30.468 26.5524 31.0823 26.0607 32.0651L25.9378 32.188L27.5358 32.6794L28.1504 32.9251L28.6422 33.048V30.3451H28.3963ZM28.2734 32.5565L26.4295 31.9423C26.7982 31.2051 27.5358 30.7137 28.2734 30.5909V32.5565ZM25.6919 32.8022V32.9251C25.6919 33.0479 25.6919 33.2937 25.6919 33.4165C25.6919 34.2765 26.0607 35.0136 26.6753 35.6279L26.7982 35.7508L27.7817 34.3994L28.1504 33.9079L28.3963 33.5394L25.6919 32.8022ZM26.6753 35.3822C26.1836 34.8908 25.9378 34.1536 25.9378 33.5394C25.9378 33.4165 25.9378 33.2937 25.9378 33.2937L27.167 33.6622L27.7817 33.9079L26.6753 35.3822ZM25.6919 32.8022V32.9251C25.6919 33.0479 25.6919 33.2937 25.6919 33.4165C25.6919 34.2765 26.0607 35.0136 26.6753 35.6279L26.7982 35.7508L27.7817 34.3994L28.1504 33.9079L28.3963 33.5394L25.6919 32.8022ZM26.6753 35.3822C26.1836 34.8908 25.9378 34.1536 25.9378 33.5394C25.9378 33.4165 25.9378 33.2937 25.9378 33.2937L27.167 33.6622L27.7817 33.9079L26.6753 35.3822ZM28.3963 30.3451C27.4129 30.468 26.5524 31.0823 26.0607 32.0651L25.9378 32.188L27.5358 32.6794L28.1504 32.9251L28.6422 33.048V30.3451H28.3963ZM28.2734 32.5565L26.4295 31.9423C26.7982 31.2051 27.5358 30.7137 28.2734 30.5909V32.5565ZM28.888 33.048C28.6422 33.048 28.3963 33.2937 28.3963 33.5394C28.3963 33.7851 28.6422 34.0308 28.888 34.0308C29.1339 34.0308 29.3797 33.7851 29.3797 33.5394C29.2568 33.1708 29.1339 33.048 28.888 33.048ZM29.5026 34.8908L28.888 34.0308L27.2899 36.2422L27.4129 36.365C27.9046 36.6107 28.3963 36.7336 28.888 36.7336C29.3797 36.7336 29.8714 36.6107 30.3631 36.365L30.4861 36.2422L29.5026 34.8908ZM27.6587 36.1193L28.7651 34.5222L29.8714 36.1193C29.2568 36.4879 28.3963 36.4879 27.6587 36.1193ZM31.7153 31.9423C31.2236 31.0823 30.3631 30.468 29.3797 30.2223H29.1339V32.9251L31.7153 32.0651V31.9423ZM29.5026 32.5565V30.5909C30.2402 30.7137 30.9778 31.2051 31.3466 31.9423L29.5026 32.5565ZM32.0841 32.9251V32.8022L29.5026 33.6622L31.1007 35.8736L31.2236 35.7508C31.8383 35.1365 32.0841 34.2765 32.0841 33.5394C32.0841 33.2937 32.0841 33.1708 32.0841 32.9251ZM31.1007 35.3822L29.9943 33.9079L31.8383 33.2937C31.8383 33.4165 31.8383 33.4165 31.8383 33.5394C31.7153 34.1536 31.4695 34.8908 31.1007 35.3822ZM32.0841 32.9251V32.8022L29.5026 33.6622L31.1007 35.8736L31.2236 35.7508C31.8383 35.1365 32.0841 34.2765 32.0841 33.5394C32.0841 33.2937 32.0841 33.1708 32.0841 32.9251ZM31.1007 35.3822L29.9943 33.9079L31.8383 33.2937C31.8383 33.4165 31.8383 33.4165 31.8383 33.5394C31.7153 34.1536 31.4695 34.8908 31.1007 35.3822ZM31.7153 31.9423C31.2236 31.0823 30.3631 30.468 29.3797 30.2223H29.1339V32.9251L31.7153 32.0651V31.9423ZM29.5026 32.5565V30.5909C30.2402 30.7137 30.9778 31.2051 31.3466 31.9423L29.5026 32.5565ZM29.5026 34.8908L28.888 34.0308L27.2899 36.2422L27.4129 36.365C27.9046 36.6107 28.3963 36.7336 28.888 36.7336C29.3797 36.7336 29.8714 36.6107 30.3631 36.365L30.4861 36.2422L29.5026 34.8908ZM27.6587 36.1193L28.7651 34.5222L29.8714 36.1193C29.2568 36.4879 28.3963 36.4879 27.6587 36.1193ZM28.888 33.048C28.6422 33.048 28.3963 33.2937 28.3963 33.5394C28.3963 33.7851 28.6422 34.0308 28.888 34.0308C29.1339 34.0308 29.3797 33.7851 29.3797 33.5394C29.2568 33.1708 29.1339 33.048 28.888 33.048ZM28.3963 30.3451C27.4129 30.468 26.5524 31.0823 26.0607 32.0651L25.9378 32.188L27.5358 32.6794L28.1504 32.9251L28.6422 33.048V30.3451H28.3963ZM28.2734 32.5565L26.4295 31.9423C26.7982 31.2051 27.5358 30.7137 28.2734 30.5909V32.5565ZM25.6919 32.8022V32.9251C25.6919 33.0479 25.6919 33.2937 25.6919 33.4165C25.6919 34.2765 26.0607 35.0136 26.6753 35.6279L26.7982 35.7508L27.7817 34.3994L28.1504 33.9079L28.3963 33.5394L25.6919 32.8022ZM26.6753 35.3822C26.1836 34.8908 25.9378 34.1536 25.9378 33.5394C25.9378 33.4165 25.9378 33.2937 25.9378 33.2937L27.167 33.6622L27.7817 33.9079L26.6753 35.3822ZM25.6919 32.8022V32.9251C25.6919 33.0479 25.6919 33.2937 25.6919 33.4165C25.6919 34.2765 26.0607 35.0136 26.6753 35.6279L26.7982 35.7508L27.7817 34.3994L28.1504 33.9079L28.3963 33.5394L25.6919 32.8022ZM26.6753 35.3822C26.1836 34.8908 25.9378 34.1536 25.9378 33.5394C25.9378 33.4165 25.9378 33.2937 25.9378 33.2937L27.167 33.6622L27.7817 33.9079L26.6753 35.3822ZM28.3963 30.3451C27.4129 30.468 26.5524 31.0823 26.0607 32.0651L25.9378 32.188L27.5358 32.6794L28.1504 32.9251L28.6422 33.048V30.3451H28.3963ZM28.2734 32.5565L26.4295 31.9423C26.7982 31.2051 27.5358 30.7137 28.2734 30.5909V32.5565ZM28.888 33.048C28.6422 33.048 28.3963 33.2937 28.3963 33.5394C28.3963 33.7851 28.6422 34.0308 28.888 34.0308C29.1339 34.0308 29.3797 33.7851 29.3797 33.5394C29.2568 33.1708 29.1339 33.048 28.888 33.048ZM29.5026 34.8908L28.888 34.0308L27.2899 36.2422L27.4129 36.365C27.9046 36.6107 28.3963 36.7336 28.888 36.7336C29.3797 36.7336 29.8714 36.6107 30.3631 36.365L30.4861 36.2422L29.5026 34.8908ZM27.6587 36.1193L28.7651 34.5222L29.8714 36.1193C29.2568 36.4879 28.3963 36.4879 27.6587 36.1193ZM31.7153 31.9423C31.2236 31.0823 30.3631 30.468 29.3797 30.2223H29.1339V32.9251L31.7153 32.0651V31.9423ZM29.5026 32.5565V30.5909C30.2402 30.7137 30.9778 31.2051 31.3466 31.9423L29.5026 32.5565ZM32.0841 32.9251V32.8022L29.5026 33.6622L31.1007 35.8736L31.2236 35.7508C31.8383 35.1365 32.0841 34.2765 32.0841 33.5394C32.0841 33.2937 32.0841 33.1708 32.0841 32.9251ZM31.1007 35.3822L29.9943 33.9079L31.8383 33.2937C31.8383 33.4165 31.8383 33.4165 31.8383 33.5394C31.7153 34.1536 31.4695 34.8908 31.1007 35.3822ZM32.0841 32.9251V32.8022L29.5026 33.6622L31.1007 35.8736L31.2236 35.7508C31.8383 35.1365 32.0841 34.2765 32.0841 33.5394C32.0841 33.2937 32.0841 33.1708 32.0841 32.9251ZM31.1007 35.3822L29.9943 33.9079L31.8383 33.2937C31.8383 33.4165 31.8383 33.4165 31.8383 33.5394C31.7153 34.1536 31.4695 34.8908 31.1007 35.3822ZM31.7153 31.9423C31.2236 31.0823 30.3631 30.468 29.3797 30.2223H29.1339V32.9251L31.7153 32.0651V31.9423ZM29.5026 32.5565V30.5909C30.2402 30.7137 30.9778 31.2051 31.3466 31.9423L29.5026 32.5565ZM29.5026 34.8908L28.888 34.0308L27.2899 36.2422L27.4129 36.365C27.9046 36.6107 28.3963 36.7336 28.888 36.7336C29.3797 36.7336 29.8714 36.6107 30.3631 36.365L30.4861 36.2422L29.5026 34.8908ZM27.6587 36.1193L28.7651 34.5222L29.8714 36.1193C29.2568 36.4879 28.3963 36.4879 27.6587 36.1193ZM28.888 33.048C28.6422 33.048 28.3963 33.2937 28.3963 33.5394C28.3963 33.7851 28.6422 34.0308 28.888 34.0308C29.1339 34.0308 29.3797 33.7851 29.3797 33.5394C29.2568 33.1708 29.1339 33.048 28.888 33.048ZM28.3963 30.3451C27.4129 30.468 26.5524 31.0823 26.0607 32.0651L25.9378 32.188L27.5358 32.6794L28.1504 32.9251L28.6422 33.048V30.3451H28.3963ZM28.2734 32.5565L26.4295 31.9423C26.7982 31.2051 27.5358 30.7137 28.2734 30.5909V32.5565ZM25.6919 32.8022V32.9251C25.6919 33.0479 25.6919 33.2937 25.6919 33.4165C25.6919 34.2765 26.0607 35.0136 26.6753 35.6279L26.7982 35.7508L27.7817 34.3994L28.1504 33.9079L28.3963 33.5394L25.6919 32.8022ZM26.6753 35.3822C26.1836 34.8908 25.9378 34.1536 25.9378 33.5394C25.9378 33.4165 25.9378 33.2937 25.9378 33.2937L27.167 33.6622L27.7817 33.9079L26.6753 35.3822ZM25.6919 32.8022V32.9251C25.6919 33.0479 25.6919 33.2937 25.6919 33.4165C25.6919 34.2765 26.0607 35.0136 26.6753 35.6279L26.7982 35.7508L27.7817 34.3994L28.1504 33.9079L28.3963 33.5394L25.6919 32.8022ZM26.6753 35.3822C26.1836 34.8908 25.9378 34.1536 25.9378 33.5394C25.9378 33.4165 25.9378 33.2937 25.9378 33.2937L27.167 33.6622L27.7817 33.9079L26.6753 35.3822ZM28.3963 30.3451C27.4129 30.468 26.5524 31.0823 26.0607 32.0651L25.9378 32.188L27.5358 32.6794L28.1504 32.9251L28.6422 33.048V30.3451H28.3963ZM28.2734 32.5565L26.4295 31.9423C26.7982 31.2051 27.5358 30.7137 28.2734 30.5909V32.5565ZM28.888 33.048C28.6422 33.048 28.3963 33.2937 28.3963 33.5394C28.3963 33.7851 28.6422 34.0308 28.888 34.0308C29.1339 34.0308 29.3797 33.7851 29.3797 33.5394C29.2568 33.1708 29.1339 33.048 28.888 33.048ZM29.5026 34.8908L28.888 34.0308L27.2899 36.2422L27.4129 36.365C27.9046 36.6107 28.3963 36.7336 28.888 36.7336C29.3797 36.7336 29.8714 36.6107 30.3631 36.365L30.4861 36.2422L29.5026 34.8908ZM27.6587 36.1193L28.7651 34.5222L29.8714 36.1193C29.2568 36.4879 28.3963 36.4879 27.6587 36.1193ZM31.7153 31.9423C31.2236 31.0823 30.3631 30.468 29.3797 30.2223H29.1339V32.9251L31.7153 32.0651V31.9423ZM29.5026 32.5565V30.5909C30.2402 30.7137 30.9778 31.2051 31.3466 31.9423L29.5026 32.5565ZM32.0841 32.9251V32.8022L29.5026 33.6622L31.1007 35.8736L31.2236 35.7508C31.8383 35.1365 32.0841 34.2765 32.0841 33.5394C32.0841 33.2937 32.0841 33.1708 32.0841 32.9251ZM31.1007 35.3822L29.9943 33.9079L31.8383 33.2937C31.8383 33.4165 31.8383 33.4165 31.8383 33.5394C31.7153 34.1536 31.4695 34.8908 31.1007 35.3822ZM32.0841 32.9251V32.8022L29.5026 33.6622L31.1007 35.8736L31.2236 35.7508C31.8383 35.1365 32.0841 34.2765 32.0841 33.5394C32.0841 33.2937 32.0841 33.1708 32.0841 32.9251ZM31.1007 35.3822L29.9943 33.9079L31.8383 33.2937C31.8383 33.4165 31.8383 33.4165 31.8383 33.5394C31.7153 34.1536 31.4695 34.8908 31.1007 35.3822ZM31.7153 31.9423C31.2236 31.0823 30.3631 30.468 29.3797 30.2223H29.1339V32.9251L31.7153 32.0651V31.9423ZM29.5026 32.5565V30.5909C30.2402 30.7137 30.9778 31.2051 31.3466 31.9423L29.5026 32.5565ZM29.5026 34.8908L28.888 34.0308L27.2899 36.2422L27.4129 36.365C27.9046 36.6107 28.3963 36.7336 28.888 36.7336C29.3797 36.7336 29.8714 36.6107 30.3631 36.365L30.4861 36.2422L29.5026 34.8908ZM27.6587 36.1193L28.7651 34.5222L29.8714 36.1193C29.2568 36.4879 28.3963 36.4879 27.6587 36.1193ZM28.888 33.048C28.6422 33.048 28.3963 33.2937 28.3963 33.5394C28.3963 33.7851 28.6422 34.0308 28.888 34.0308C29.1339 34.0308 29.3797 33.7851 29.3797 33.5394C29.2568 33.1708 29.1339 33.048 28.888 33.048ZM28.3963 30.3451C27.4129 30.468 26.5524 31.0823 26.0607 32.0651L25.9378 32.188L27.5358 32.6794L28.1504 32.9251L28.6422 33.048V30.3451H28.3963ZM28.2734 32.5565L26.4295 31.9423C26.7982 31.2051 27.5358 30.7137 28.2734 30.5909V32.5565ZM25.6919 32.8022V32.9251C25.6919 33.0479 25.6919 33.2937 25.6919 33.4165C25.6919 34.2765 26.0607 35.0136 26.6753 35.6279L26.7982 35.7508L27.7817 34.3994L28.1504 33.9079L28.3963 33.5394L25.6919 32.8022ZM26.6753 35.3822C26.1836 34.8908 25.9378 34.1536 25.9378 33.5394C25.9378 33.4165 25.9378 33.2937 25.9378 33.2937L27.167 33.6622L27.7817 33.9079L26.6753 35.3822ZM25.6919 32.8022V32.9251C25.6919 33.0479 25.6919 33.2937 25.6919 33.4165C25.6919 34.2765 26.0607 35.0136 26.6753 35.6279L26.7982 35.7508L27.7817 34.3994L28.1504 33.9079L28.3963 33.5394L25.6919 32.8022ZM26.6753 35.3822C26.1836 34.8908 25.9378 34.1536 25.9378 33.5394C25.9378 33.4165 25.9378 33.2937 25.9378 33.2937L27.167 33.6622L27.7817 33.9079L26.6753 35.3822ZM28.3963 30.3451C27.4129 30.468 26.5524 31.0823 26.0607 32.0651L25.9378 32.188L27.5358 32.6794L28.1504 32.9251L28.6422 33.048V30.3451H28.3963ZM28.2734 32.5565L26.4295 31.9423C26.7982 31.2051 27.5358 30.7137 28.2734 30.5909V32.5565ZM28.888 33.048C28.6422 33.048 28.3963 33.2937 28.3963 33.5394C28.3963 33.7851 28.6422 34.0308 28.888 34.0308C29.1339 34.0308 29.3797 33.7851 29.3797 33.5394C29.2568 33.1708 29.1339 33.048 28.888 33.048ZM29.5026 34.8908L28.888 34.0308L27.2899 36.2422L27.4129 36.365C27.9046 36.6107 28.3963 36.7336 28.888 36.7336C29.3797 36.7336 29.8714 36.6107 30.3631 36.365L30.4861 36.2422L29.5026 34.8908ZM27.6587 36.1193L28.7651 34.5222L29.8714 36.1193C29.2568 36.4879 28.3963 36.4879 27.6587 36.1193ZM31.7153 31.9423C31.2236 31.0823 30.3631 30.468 29.3797 30.2223H29.1339V32.9251L31.7153 32.0651V31.9423ZM29.5026 32.5565V30.5909C30.2402 30.7137 30.9778 31.2051 31.3466 31.9423L29.5026 32.5565ZM32.0841 32.9251V32.8022L29.5026 33.6622L31.1007 35.8736L31.2236 35.7508C31.8383 35.1365 32.0841 34.2765 32.0841 33.5394C32.0841 33.2937 32.0841 33.1708 32.0841 32.9251ZM31.1007 35.3822L29.9943 33.9079L31.8383 33.2937C31.8383 33.4165 31.8383 33.4165 31.8383 33.5394C31.7153 34.1536 31.4695 34.8908 31.1007 35.3822ZM32.0841 32.9251V32.8022L29.5026 33.6622L31.1007 35.8736L31.2236 35.7508C31.8383 35.1365 32.0841 34.2765 32.0841 33.5394C32.0841 33.2937 32.0841 33.1708 32.0841 32.9251ZM31.1007 35.3822L29.9943 33.9079L31.8383 33.2937C31.8383 33.4165 31.8383 33.4165 31.8383 33.5394C31.7153 34.1536 31.4695 34.8908 31.1007 35.3822ZM31.7153 31.9423C31.2236 31.0823 30.3631 30.468 29.3797 30.2223H29.1339V32.9251L31.7153 32.0651V31.9423ZM29.5026 32.5565V30.5909C30.2402 30.7137 30.9778 31.2051 31.3466 31.9423L29.5026 32.5565ZM29.5026 34.8908L28.888 34.0308L27.2899 36.2422L27.4129 36.365C27.9046 36.6107 28.3963 36.7336 28.888 36.7336C29.3797 36.7336 29.8714 36.6107 30.3631 36.365L30.4861 36.2422L29.5026 34.8908ZM27.6587 36.1193L28.7651 34.5222L29.8714 36.1193C29.2568 36.4879 28.3963 36.4879 27.6587 36.1193ZM28.888 33.048C28.6422 33.048 28.3963 33.2937 28.3963 33.5394C28.3963 33.7851 28.6422 34.0308 28.888 34.0308C29.1339 34.0308 29.3797 33.7851 29.3797 33.5394C29.2568 33.1708 29.1339 33.048 28.888 33.048ZM28.3963 30.3451C27.4129 30.468 26.5524 31.0823 26.0607 32.0651L25.9378 32.188L27.5358 32.6794L28.1504 32.9251L28.6422 33.048V30.3451H28.3963ZM28.2734 32.5565L26.4295 31.9423C26.7982 31.2051 27.5358 30.7137 28.2734 30.5909V32.5565ZM25.6919 32.8022V32.9251C25.6919 33.0479 25.6919 33.2937 25.6919 33.4165C25.6919 34.2765 26.0607 35.0136 26.6753 35.6279L26.7982 35.7508L27.7817 34.3994L28.1504 33.9079L28.3963 33.5394L25.6919 32.8022ZM26.6753 35.3822C26.1836 34.8908 25.9378 34.1536 25.9378 33.5394C25.9378 33.4165 25.9378 33.2937 25.9378 33.2937L27.167 33.6622L27.7817 33.9079L26.6753 35.3822ZM25.6919 32.8022V32.9251C25.6919 33.0479 25.6919 33.2937 25.6919 33.4165C25.6919 34.2765 26.0607 35.0136 26.6753 35.6279L26.7982 35.7508L27.7817 34.3994L28.1504 33.9079L28.3963 33.5394L25.6919 32.8022ZM26.6753 35.3822C26.1836 34.8908 25.9378 34.1536 25.9378 33.5394C25.9378 33.4165 25.9378 33.2937 25.9378 33.2937L27.167 33.6622L27.7817 33.9079L26.6753 35.3822ZM28.3963 30.3451C27.4129 30.468 26.5524 31.0823 26.0607 32.0651L25.9378 32.188L27.5358 32.6794L28.1504 32.9251L28.6422 33.048V30.3451H28.3963ZM28.2734 32.5565L26.4295 31.9423C26.7982 31.2051 27.5358 30.7137 28.2734 30.5909V32.5565ZM28.888 33.048C28.6422 33.048 28.3963 33.2937 28.3963 33.5394C28.3963 33.7851 28.6422 34.0308 28.888 34.0308C29.1339 34.0308 29.3797 33.7851 29.3797 33.5394C29.2568 33.1708 29.1339 33.048 28.888 33.048ZM29.5026 34.8908L28.888 34.0308L27.2899 36.2422L27.4129 36.365C27.9046 36.6107 28.3963 36.7336 28.888 36.7336C29.3797 36.7336 29.8714 36.6107 30.3631 36.365L30.4861 36.2422L29.5026 34.8908ZM27.6587 36.1193L28.7651 34.5222L29.8714 36.1193C29.2568 36.4879 28.3963 36.4879 27.6587 36.1193ZM31.7153 31.9423C31.2236 31.0823 30.3631 30.468 29.3797 30.2223H29.1339V32.9251L31.7153 32.0651V31.9423ZM29.5026 32.5565V30.5909C30.2402 30.7137 30.9778 31.2051 31.3466 31.9423L29.5026 32.5565ZM32.0841 32.9251V32.8022L29.5026 33.6622L31.1007 35.8736L31.2236 35.7508C31.8383 35.1365 32.0841 34.2765 32.0841 33.5394C32.0841 33.2937 32.0841 33.1708 32.0841 32.9251ZM31.1007 35.3822L29.9943 33.9079L31.8383 33.2937C31.8383 33.4165 31.8383 33.4165 31.8383 33.5394C31.7153 34.1536 31.4695 34.8908 31.1007 35.3822ZM32.0841 32.9251V32.8022L29.5026 33.6622L31.1007 35.8736L31.2236 35.7508C31.8383 35.1365 32.0841 34.2765 32.0841 33.5394C32.0841 33.2937 32.0841 33.1708 32.0841 32.9251ZM31.1007 35.3822L29.9943 33.9079L31.8383 33.2937C31.8383 33.4165 31.8383 33.4165 31.8383 33.5394C31.7153 34.1536 31.4695 34.8908 31.1007 35.3822ZM31.7153 31.9423C31.2236 31.0823 30.3631 30.468 29.3797 30.2223H29.1339V32.9251L31.7153 32.0651V31.9423ZM29.5026 32.5565V30.5909C30.2402 30.7137 30.9778 31.2051 31.3466 31.9423L29.5026 32.5565ZM29.5026 34.8908L28.888 34.0308L27.2899 36.2422L27.4129 36.365C27.9046 36.6107 28.3963 36.7336 28.888 36.7336C29.3797 36.7336 29.8714 36.6107 30.3631 36.365L30.4861 36.2422L29.5026 34.8908ZM27.6587 36.1193L28.7651 34.5222L29.8714 36.1193C29.2568 36.4879 28.3963 36.4879 27.6587 36.1193ZM28.888 33.048C28.6422 33.048 28.3963 33.2937 28.3963 33.5394C28.3963 33.7851 28.6422 34.0308 28.888 34.0308C29.1339 34.0308 29.3797 33.7851 29.3797 33.5394C29.2568 33.1708 29.1339 33.048 28.888 33.048ZM28.3963 30.3451C27.4129 30.468 26.5524 31.0823 26.0607 32.0651L25.9378 32.188L27.5358 32.6794L28.1504 32.9251L28.6422 33.048V30.3451H28.3963ZM28.2734 32.5565L26.4295 31.9423C26.7982 31.2051 27.5358 30.7137 28.2734 30.5909V32.5565ZM25.6919 32.8022V32.9251C25.6919 33.0479 25.6919 33.2937 25.6919 33.4165C25.6919 34.2765 26.0607 35.0136 26.6753 35.6279L26.7982 35.7508L27.7817 34.3994L28.1504 33.9079L28.3963 33.5394L25.6919 32.8022ZM26.6753 35.3822C26.1836 34.8908 25.9378 34.1536 25.9378 33.5394C25.9378 33.4165 25.9378 33.2937 25.9378 33.2937L27.167 33.6622L27.7817 33.9079L26.6753 35.3822ZM25.6919 32.8022V32.9251C25.6919 33.0479 25.6919 33.2937 25.6919 33.4165C25.6919 34.2765 26.0607 35.0136 26.6753 35.6279L26.7982 35.7508L27.7817 34.3994L28.1504 33.9079L28.3963 33.5394L25.6919 32.8022ZM26.6753 35.3822C26.1836 34.8908 25.9378 34.1536 25.9378 33.5394C25.9378 33.4165 25.9378 33.2937 25.9378 33.2937L27.167 33.6622L27.7817 33.9079L26.6753 35.3822ZM28.3963 30.3451C27.4129 30.468 26.5524 31.0823 26.0607 32.0651L25.9378 32.188L27.5358 32.6794L28.1504 32.9251L28.6422 33.048V30.3451H28.3963ZM28.2734 32.5565L26.4295 31.9423C26.7982 31.2051 27.5358 30.7137 28.2734 30.5909V32.5565ZM28.888 33.048C28.6422 33.048 28.3963 33.2937 28.3963 33.5394C28.3963 33.7851 28.6422 34.0308 28.888 34.0308C29.1339 34.0308 29.3797 33.7851 29.3797 33.5394C29.2568 33.1708 29.1339 33.048 28.888 33.048ZM29.5026 34.8908L28.888 34.0308L27.2899 36.2422L27.4129 36.365C27.9046 36.6107 28.3963 36.7336 28.888 36.7336C29.3797 36.7336 29.8714 36.6107 30.3631 36.365L30.4861 36.2422L29.5026 34.8908ZM27.6587 36.1193L28.7651 34.5222L29.8714 36.1193C29.2568 36.4879 28.3963 36.4879 27.6587 36.1193ZM31.7153 31.9423C31.2236 31.0823 30.3631 30.468 29.3797 30.2223H29.1339V32.9251L31.7153 32.0651V31.9423ZM29.5026 32.5565V30.5909C30.2402 30.7137 30.9778 31.2051 31.3466 31.9423L29.5026 32.5565ZM32.0841 32.9251V32.8022L29.5026 33.6622L31.1007 35.8736L31.2236 35.7508C31.8383 35.1365 32.0841 34.2765 32.0841 33.5394C32.0841 33.2937 32.0841 33.1708 32.0841 32.9251ZM31.1007 35.3822L29.9943 33.9079L31.8383 33.2937C31.8383 33.4165 31.8383 33.4165 31.8383 33.5394C31.7153 34.1536 31.4695 34.8908 31.1007 35.3822ZM29.5026 34.8908L28.888 34.0308L27.2899 36.2422L27.4129 36.365C27.9046 36.6107 28.3963 36.7336 28.888 36.7336C29.3797 36.7336 29.8714 36.6107 30.3631 36.365L30.4861 36.2422L29.5026 34.8908ZM27.6587 36.1193L28.7651 34.5222L29.8714 36.1193C29.2568 36.4879 28.3963 36.4879 27.6587 36.1193ZM32.0841 32.9251V32.8022L29.5026 33.6622L31.1007 35.8736L31.2236 35.7508C31.8383 35.1365 32.0841 34.2765 32.0841 33.5394C32.0841 33.2937 32.0841 33.1708 32.0841 32.9251ZM31.1007 35.3822L29.9943 33.9079L31.8383 33.2937C31.8383 33.4165 31.8383 33.4165 31.8383 33.5394C31.7153 34.1536 31.4695 34.8908 31.1007 35.3822ZM25.6919 32.8022V32.9251C25.6919 33.0479 25.6919 33.2937 25.6919 33.4165C25.6919 34.2765 26.0607 35.0136 26.6753 35.6279L26.7982 35.7508L27.7817 34.3994L28.1504 33.9079L28.3963 33.5394L25.6919 32.8022ZM26.6753 35.3822C26.1836 34.8908 25.9378 34.1536 25.9378 33.5394C25.9378 33.4165 25.9378 33.2937 25.9378 33.2937L27.167 33.6622L27.7817 33.9079L26.6753 35.3822ZM28.888 33.048C28.6422 33.048 28.3963 33.2937 28.3963 33.5394C28.3963 33.7851 28.6422 34.0308 28.888 34.0308C29.1339 34.0308 29.3797 33.7851 29.3797 33.5394C29.2568 33.1708 29.1339 33.048 28.888 33.048ZM31.7153 31.9423C31.2236 31.0823 30.3631 30.468 29.3797 30.2223H29.1339V32.9251L31.7153 32.0651V31.9423ZM29.5026 32.5565V30.5909C30.2402 30.7137 30.9778 31.2051 31.3466 31.9423L29.5026 32.5565ZM28.3963 30.3451C27.4129 30.468 26.5524 31.0823 26.0607 32.0651L25.9378 32.188L27.5358 32.6794L28.1504 32.9251L28.6422 33.048V30.3451H28.3963ZM28.2734 32.5565L26.4295 31.9423C26.7982 31.2051 27.5358 30.7137 28.2734 30.5909V32.5565Z" fill="url(#paint6_linear_112_396)"/>
<path d="M26.6752 35.8736L26.5523 35.7507C25.9377 35.1364 25.5689 34.3993 25.5689 33.5393C25.5689 33.4165 25.5689 33.1708 25.5689 33.0479V32.925L28.1504 33.785L27.9045 34.1536L27.5357 34.645L26.6752 35.8736ZM25.9377 33.1708C25.9377 33.2936 25.9377 33.4165 25.9377 33.4165C25.9377 34.1536 26.1835 34.7679 26.6752 35.2593L27.7816 33.6622L27.167 33.4165L25.9377 33.1708Z" fill="url(#paint7_linear_112_396)"/>
<path d="M28.5192 32.925L28.0275 32.8021L27.4128 32.5564L25.8148 32.065L25.9377 31.9421C26.4294 31.0822 27.2899 30.4679 28.2733 30.2222H28.3962V32.925H28.5192ZM26.4294 31.9421L28.2733 32.5564V30.5907C27.4128 30.8364 26.7982 31.3279 26.4294 31.9421Z" fill="url(#paint8_linear_112_396)"/>
<path d="M28.888 36.7336C28.3963 36.7336 27.9046 36.6107 27.4129 36.365L27.2899 36.2422L28.888 34.0308L29.5026 34.8907L30.4861 36.2422L30.3631 36.365C29.8714 36.6107 29.3797 36.7336 28.888 36.7336ZM27.6587 36.1193C28.3963 36.4879 29.1339 36.4879 29.9944 36.1193L28.888 34.5222L27.6587 36.1193Z" fill="url(#paint9_linear_112_396)"/>
<path d="M29.2567 32.925V30.2222H29.3796C30.3631 30.345 31.2236 30.9593 31.7153 31.9421L31.8382 32.065L29.2567 32.925ZM29.5026 30.5907V32.5564L31.3465 31.9421C30.9777 31.3279 30.2401 30.8364 29.5026 30.5907Z" fill="url(#paint10_linear_112_396)"/>
<path d="M30.9777 35.8736L29.3797 33.6622L31.9612 32.8022V32.9251C31.9612 33.0479 31.9612 33.2937 31.9612 33.4165C31.9612 34.2765 31.5924 35.0136 31.1007 35.6279L30.9777 35.8736ZM29.8714 33.7851L30.9777 35.3822C31.4694 34.8908 31.7153 34.1536 31.7153 33.5394C31.7153 33.4165 31.7153 33.4165 31.7153 33.2937L29.8714 33.7851Z" fill="url(#paint11_linear_112_396)"/>
<path d="M26.6752 35.8736L26.5523 35.7507C25.9377 35.1364 25.5689 34.3993 25.5689 33.5393C25.5689 33.4165 25.5689 33.1708 25.5689 33.0479V32.925L28.1504 33.785L27.9045 34.1536L27.5357 34.645L26.6752 35.8736ZM25.9377 33.1708C25.9377 33.2936 25.9377 33.4165 25.9377 33.4165C25.9377 34.1536 26.1835 34.7679 26.6752 35.2593L27.7816 33.6622L27.167 33.4165L25.9377 33.1708Z" fill="url(#paint12_linear_112_396)"/>
<path d="M28.5192 32.925L28.0275 32.8021L27.4128 32.5564L25.8148 32.065L25.9377 31.9421C26.4294 31.0822 27.2899 30.4679 28.2733 30.2222H28.3962V32.925H28.5192ZM26.4294 31.9421L28.2733 32.5564V30.5907C27.4128 30.8364 26.7982 31.3279 26.4294 31.9421Z" fill="url(#paint13_linear_112_396)"/>
<path d="M28.888 36.7336C28.3963 36.7336 27.9046 36.6107 27.4129 36.365L27.2899 36.2422L28.888 34.0308L29.5026 34.8907L30.4861 36.2422L30.3631 36.365C29.8714 36.6107 29.3797 36.7336 28.888 36.7336ZM27.6587 36.1193C28.3963 36.4879 29.1339 36.4879 29.9944 36.1193L28.888 34.5222L27.6587 36.1193Z" fill="url(#paint14_linear_112_396)"/>
<path d="M29.2567 32.925V30.2222H29.3796C30.3631 30.345 31.2236 30.9593 31.7153 31.9421L31.8382 32.065L29.2567 32.925ZM29.5026 30.5907V32.5564L31.3465 31.9421C30.9777 31.3279 30.2401 30.8364 29.5026 30.5907Z" fill="url(#paint15_linear_112_396)"/>
<path d="M30.9777 35.8736L29.3797 33.6622L31.9612 32.8022V32.9251C31.9612 33.0479 31.9612 33.2937 31.9612 33.4165C31.9612 34.2765 31.5924 35.0136 31.1007 35.6279L30.9777 35.8736ZM29.8714 33.7851L30.9777 35.3822C31.4694 34.8908 31.7153 34.1536 31.7153 33.5394C31.7153 33.4165 31.7153 33.4165 31.7153 33.2937L29.8714 33.7851Z" fill="url(#paint16_linear_112_396)"/>
<path d="M64.6599 37.7166C62.3242 37.7166 60.3574 35.7509 60.3574 33.4166C60.3574 31.0824 62.3242 29.1167 64.6599 29.1167C66.9955 29.1167 68.9623 31.0824 68.9623 33.4166C68.9623 35.8737 67.1184 37.7166 64.6599 37.7166ZM64.6599 29.4853C62.4472 29.4853 60.6032 31.3281 60.6032 33.5395C60.6032 35.7509 62.4472 37.5937 64.6599 37.5937C66.8726 37.5937 68.7165 35.7509 68.7165 33.5395C68.7165 31.2052 66.8726 29.4853 64.6599 29.4853ZM64.6599 36.7337C64.1681 36.7337 63.6764 36.6108 63.1847 36.3651L63.0618 36.2423L64.6599 34.0309L65.2745 34.8909L66.2579 36.2423L66.135 36.3651C65.6433 36.6108 65.1516 36.7337 64.6599 36.7337ZM63.5535 36.1194C64.2911 36.488 65.0286 36.488 65.8891 36.1194L64.7828 34.5223L63.5535 36.1194ZM66.8725 35.8737L65.2745 33.6623L67.856 32.8024V32.9252C67.856 33.048 67.856 33.2938 67.856 33.4166C67.856 34.2766 67.4872 35.0137 66.9955 35.628L66.8725 35.8737ZM65.7662 33.7852L66.8725 35.3823C67.3643 34.8909 67.6101 34.1537 67.6101 33.5395C67.6101 33.4166 67.6101 33.4166 67.6101 33.2938L65.7662 33.7852ZM62.5701 35.8737L62.4472 35.7509C61.8325 35.1366 61.4637 34.3995 61.4637 33.5395C61.4637 33.4166 61.4637 33.1709 61.4637 33.0481V32.9252L64.0452 33.7852L63.7994 34.1537L63.4306 34.6452L62.5701 35.8737ZM61.8325 33.1709C61.8325 33.2938 61.8325 33.4166 61.8325 33.4166C61.8325 34.1538 62.0784 34.768 62.5701 35.2595L63.6764 33.6623L63.0618 33.4166L61.8325 33.1709ZM64.6599 33.908C64.414 33.908 64.1681 33.6623 64.1681 33.4166C64.1681 33.1709 64.414 32.9252 64.6599 32.9252C64.9057 32.9252 65.1516 33.1709 65.1516 33.4166C65.1516 33.6623 64.9057 33.908 64.6599 33.908ZM65.0286 32.9252V30.2224H65.1516C66.135 30.3452 66.9955 30.9595 67.4872 31.9424L67.6101 32.0652L65.0286 32.9252ZM65.2745 30.591V32.5566L67.1184 31.9424C66.7496 31.3281 66.135 30.8367 65.2745 30.591ZM64.2911 32.9252L63.7994 32.8024L63.1847 32.5566L61.5867 32.0652L61.7096 31.9424C62.2013 31.0824 63.0618 30.4681 64.0452 30.2224H64.1681V32.9252H64.2911ZM62.2013 31.9424L64.0452 32.5566V30.591C63.3077 30.8367 62.5701 31.3281 62.2013 31.9424Z" fill="url(#paint17_linear_112_396)"/>
<path d="M62.5701 35.8736L62.4472 35.7507C61.8325 35.1364 61.4637 34.3993 61.4637 33.5393C61.4637 33.4165 61.4637 33.1708 61.4637 33.0479V32.925L64.0452 33.785L63.7994 34.1536L63.4306 34.645L62.5701 35.8736ZM61.8325 33.1708C61.8325 33.2936 61.8325 33.4165 61.8325 33.4165C61.8325 34.1536 62.0784 34.7679 62.5701 35.2593L63.6764 33.6622L63.0618 33.4165L61.8325 33.1708Z" fill="url(#paint18_linear_112_396)"/>
<path d="M64.2911 32.925L63.7994 32.8021L63.1847 32.5564L61.5867 32.065L61.7096 31.9421C62.2013 31.0822 63.0618 30.4679 64.0452 30.2222H64.1681V32.925H64.2911ZM62.2013 31.9421L64.0452 32.5564V30.5907C63.3077 30.8364 62.5701 31.3279 62.2013 31.9421Z" fill="url(#paint19_linear_112_396)"/>
<path d="M64.6598 36.7336C64.1681 36.7336 63.6764 36.6107 63.1847 36.365L63.0618 36.2422L64.6598 34.0308L65.2745 34.8907L66.2579 36.2422L66.135 36.365C65.6432 36.6107 65.1515 36.7336 64.6598 36.7336ZM63.5535 36.1193C64.291 36.4879 65.0286 36.4879 65.8891 36.1193L64.7827 34.5222L63.5535 36.1193Z" fill="url(#paint20_linear_112_396)"/>
<path d="M65.0287 32.925V30.2222H65.1516C66.135 30.345 66.9955 30.9593 67.4872 31.9421L67.6102 32.065L65.0287 32.925ZM65.2746 30.5907V32.5564L67.1185 31.9421C66.7497 31.3279 66.1351 30.8364 65.2746 30.5907Z" fill="url(#paint21_linear_112_396)"/>
<path d="M66.8726 35.8736L65.2745 33.6622L67.856 32.8022V32.9251C67.856 33.0479 67.856 33.2937 67.856 33.4165C67.856 34.2765 67.4872 35.0136 66.9955 35.6279L66.8726 35.8736ZM65.7662 33.7851L66.8726 35.3822C67.3643 34.8908 67.6102 34.1536 67.6102 33.5394C67.6102 33.4165 67.6102 33.4165 67.6102 33.2937L65.7662 33.7851Z" fill="url(#paint22_linear_112_396)"/>
<path d="M62.5701 35.8736L62.4472 35.7507C61.8325 35.1364 61.4637 34.3993 61.4637 33.5393C61.4637 33.4165 61.4637 33.1708 61.4637 33.0479V32.925L64.0452 33.785L63.7994 34.1536L63.4306 34.645L62.5701 35.8736ZM61.8325 33.1708C61.8325 33.2936 61.8325 33.4165 61.8325 33.4165C61.8325 34.1536 62.0784 34.7679 62.5701 35.2593L63.6764 33.6622L63.0618 33.4165L61.8325 33.1708Z" fill="url(#paint23_linear_112_396)"/>
<path d="M64.2911 32.925L63.7994 32.8021L63.1847 32.5564L61.5867 32.065L61.7096 31.9421C62.2013 31.0822 63.0618 30.4679 64.0452 30.2222H64.1681V32.925H64.2911ZM62.2013 31.9421L64.0452 32.5564V30.5907C63.3077 30.8364 62.5701 31.3279 62.2013 31.9421Z" fill="url(#paint24_linear_112_396)"/>
<path d="M64.6598 36.7336C64.1681 36.7336 63.6764 36.6107 63.1847 36.365L63.0618 36.2422L64.6598 34.0308L65.2745 34.8907L66.2579 36.2422L66.135 36.365C65.6432 36.6107 65.1515 36.7336 64.6598 36.7336ZM63.5535 36.1193C64.291 36.4879 65.0286 36.4879 65.8891 36.1193L64.7827 34.5222L63.5535 36.1193Z" fill="url(#paint25_linear_112_396)"/>
<path d="M65.0287 32.925V30.2222H65.1516C66.135 30.345 66.9955 30.9593 67.4872 31.9421L67.6102 32.065L65.0287 32.925ZM65.2746 30.5907V32.5564L67.1185 31.9421C66.7497 31.3279 66.1351 30.8364 65.2746 30.5907Z" fill="url(#paint26_linear_112_396)"/>
<path d="M66.8726 35.8736L65.2745 33.6622L67.856 32.8022V32.9251C67.856 33.0479 67.856 33.2937 67.856 33.4165C67.856 34.2765 67.4872 35.0136 66.9955 35.6279L66.8726 35.8736ZM65.7662 33.7851L66.8726 35.3822C67.3643 34.8908 67.6102 34.1536 67.6102 33.5394C67.6102 33.4165 67.6102 33.4165 67.6102 33.2937L65.7662 33.7851Z" fill="url(#paint27_linear_112_396)"/>
<path d="M14.3825 8.84546V20.6395H26.6752L29.3796 29.7308L30.2402 20.6395H34.2968V8.84546H14.3825ZM16.1035 13.0225H27.044V14.2511H16.1035V13.0225ZM28.2733 18.551H16.1035V17.3224H28.2733V18.551ZM29.2567 16.3396H15.9805V15.1111H29.2567V16.3396ZM30.8548 12.0397H15.9805V10.8111H30.8548V12.0397Z" fill="url(#paint28_linear_112_396)"/>
<path d="M60.4803 11.0569H57.2842V16.5854H60.4803V11.0569Z" fill="url(#paint29_linear_112_396)"/>
<path d="M65.2745 10.3198H62.0784V16.5854H65.2745V10.3198Z" fill="url(#paint30_linear_112_396)"/>
<path d="M70.0688 11.917H66.8727V16.5855H70.0688V11.917Z" fill="url(#paint31_linear_112_396)"/>
<path d="M74.8629 8.72266H71.6668V16.5854H74.8629V8.72266Z" fill="url(#paint32_linear_112_396)"/>
<path d="M68.4707 10.9338C68.3478 10.9338 68.3478 10.9338 68.2249 10.9338L63.5536 8.84526L58.8824 9.95095C58.7594 9.95095 58.6365 9.95095 58.5136 9.95095L56.9155 9.45954C56.5467 9.33668 56.4238 8.96811 56.5467 8.7224C56.6697 8.35383 57.0385 8.23097 57.2843 8.35383L58.7594 8.84526L63.4307 7.73955C63.5536 7.73955 63.6765 7.73955 63.7995 7.73955L68.2249 9.8281L72.7732 6.01959C72.8961 5.89674 73.019 5.89673 73.142 5.89673H74.74C75.1088 5.89673 75.3547 6.14244 75.3547 6.511C75.3547 6.87957 75.1088 7.12528 74.74 7.12528H73.3878L68.7166 10.9338C68.7166 10.9338 68.5936 10.9338 68.4707 10.9338Z" fill="url(#paint33_linear_112_396)"/>
<defs>
<linearGradient id="paint0_linear_112_396" x1="43.8852" y1="0" x2="43.8852" y2="47.6677" gradientUnits="userSpaceOnUse">
<stop stop-color="#00679A"/>
<stop offset="1" stop-color="#004D74"/>
</linearGradient>
<linearGradient id="paint1_linear_112_396" x1="43.8852" y1="49.3875" x2="43.8852" y2="53.6874" gradientUnits="userSpaceOnUse">
<stop stop-color="#00679A"/>
<stop offset="1" stop-color="#004D74"/>
</linearGradient>
<linearGradient id="paint2_linear_112_396" x1="46.651" y1="19.1653" x2="46.651" y2="34.7679" gradientUnits="userSpaceOnUse">
<stop stop-color="#00679A"/>
<stop offset="1" stop-color="#004D74"/>
</linearGradient>
<linearGradient id="paint3_linear_112_396" x1="47.4501" y1="20.1479" x2="47.4501" y2="24.8164" gradientUnits="userSpaceOnUse">
<stop stop-color="#00679A"/>
<stop offset="1" stop-color="#004D74"/>
</linearGradient>
<linearGradient id="paint4_linear_112_396" x1="43.332" y1="19.9023" x2="43.332" y2="25.1851" gradientUnits="userSpaceOnUse">
<stop stop-color="#00679A"/>
<stop offset="1" stop-color="#004D74"/>
</linearGradient>
<linearGradient id="paint5_linear_112_396" x1="20.4675" y1="27.2737" x2="20.4675" y2="29.4851" gradientUnits="userSpaceOnUse">
<stop stop-color="#00679A"/>
<stop offset="1" stop-color="#004D74"/>
</linearGradient>
<linearGradient id="paint6_linear_112_396" x1="28.888" y1="29.3623" x2="28.888" y2="37.8393" gradientUnits="userSpaceOnUse">
<stop stop-color="#00679A"/>
<stop offset="1" stop-color="#004D74"/>
</linearGradient>
<linearGradient id="paint7_linear_112_396" x1="26.8596" y1="32.925" x2="26.8596" y2="35.8736" gradientUnits="userSpaceOnUse">
<stop stop-color="#00679A"/>
<stop offset="1" stop-color="#004D74"/>
</linearGradient>
<linearGradient id="paint8_linear_112_396" x1="27.167" y1="30.2222" x2="27.167" y2="32.925" gradientUnits="userSpaceOnUse">
<stop stop-color="#00679A"/>
<stop offset="1" stop-color="#004D74"/>
</linearGradient>
<linearGradient id="paint9_linear_112_396" x1="28.888" y1="34.0308" x2="28.888" y2="36.7336" gradientUnits="userSpaceOnUse">
<stop stop-color="#00679A"/>
<stop offset="1" stop-color="#004D74"/>
</linearGradient>
<linearGradient id="paint10_linear_112_396" x1="30.5474" y1="30.2222" x2="30.5474" y2="32.925" gradientUnits="userSpaceOnUse">
<stop stop-color="#00679A"/>
<stop offset="1" stop-color="#004D74"/>
</linearGradient>
<linearGradient id="paint11_linear_112_396" x1="30.6704" y1="32.8022" x2="30.6704" y2="35.8736" gradientUnits="userSpaceOnUse">
<stop stop-color="#00679A"/>
<stop offset="1" stop-color="#004D74"/>
</linearGradient>
<linearGradient id="paint12_linear_112_396" x1="26.8596" y1="32.925" x2="26.8596" y2="35.8736" gradientUnits="userSpaceOnUse">
<stop stop-color="#00679A"/>
<stop offset="1" stop-color="#004D74"/>
</linearGradient>
<linearGradient id="paint13_linear_112_396" x1="27.167" y1="30.2222" x2="27.167" y2="32.925" gradientUnits="userSpaceOnUse">
<stop stop-color="#00679A"/>
<stop offset="1" stop-color="#004D74"/>
</linearGradient>
<linearGradient id="paint14_linear_112_396" x1="28.888" y1="34.0308" x2="28.888" y2="36.7336" gradientUnits="userSpaceOnUse">
<stop stop-color="#00679A"/>
<stop offset="1" stop-color="#004D74"/>
</linearGradient>
<linearGradient id="paint15_linear_112_396" x1="30.5474" y1="30.2222" x2="30.5474" y2="32.925" gradientUnits="userSpaceOnUse">
<stop stop-color="#00679A"/>
<stop offset="1" stop-color="#004D74"/>
</linearGradient>
<linearGradient id="paint16_linear_112_396" x1="30.6704" y1="32.8022" x2="30.6704" y2="35.8736" gradientUnits="userSpaceOnUse">
<stop stop-color="#00679A"/>
<stop offset="1" stop-color="#004D74"/>
</linearGradient>
<linearGradient id="paint17_linear_112_396" x1="64.6599" y1="29.1167" x2="64.6599" y2="37.7166" gradientUnits="userSpaceOnUse">
<stop stop-color="#00679A"/>
<stop offset="1" stop-color="#004D74"/>
</linearGradient>
<linearGradient id="paint18_linear_112_396" x1="62.7545" y1="32.925" x2="62.7545" y2="35.8736" gradientUnits="userSpaceOnUse">
<stop stop-color="#00679A"/>
<stop offset="1" stop-color="#004D74"/>
</linearGradient>
<linearGradient id="paint19_linear_112_396" x1="62.9389" y1="30.2222" x2="62.9389" y2="32.925" gradientUnits="userSpaceOnUse">
<stop stop-color="#00679A"/>
<stop offset="1" stop-color="#004D74"/>
</linearGradient>
<linearGradient id="paint20_linear_112_396" x1="64.6598" y1="34.0308" x2="64.6598" y2="36.7336" gradientUnits="userSpaceOnUse">
<stop stop-color="#00679A"/>
<stop offset="1" stop-color="#004D74"/>
</linearGradient>
<linearGradient id="paint21_linear_112_396" x1="66.3194" y1="30.2222" x2="66.3194" y2="32.925" gradientUnits="userSpaceOnUse">
<stop stop-color="#00679A"/>
<stop offset="1" stop-color="#004D74"/>
</linearGradient>
<linearGradient id="paint22_linear_112_396" x1="66.5653" y1="32.8022" x2="66.5653" y2="35.8736" gradientUnits="userSpaceOnUse">
<stop stop-color="#00679A"/>
<stop offset="1" stop-color="#004D74"/>
</linearGradient>
<linearGradient id="paint23_linear_112_396" x1="62.7545" y1="32.925" x2="62.7545" y2="35.8736" gradientUnits="userSpaceOnUse">
<stop stop-color="#00679A"/>
<stop offset="1" stop-color="#004D74"/>
</linearGradient>
<linearGradient id="paint24_linear_112_396" x1="62.9389" y1="30.2222" x2="62.9389" y2="32.925" gradientUnits="userSpaceOnUse">
<stop stop-color="#00679A"/>
<stop offset="1" stop-color="#004D74"/>
</linearGradient>
<linearGradient id="paint25_linear_112_396" x1="64.6598" y1="34.0308" x2="64.6598" y2="36.7336" gradientUnits="userSpaceOnUse">
<stop stop-color="#00679A"/>
<stop offset="1" stop-color="#004D74"/>
</linearGradient>
<linearGradient id="paint26_linear_112_396" x1="66.3194" y1="30.2222" x2="66.3194" y2="32.925" gradientUnits="userSpaceOnUse">
<stop stop-color="#00679A"/>
<stop offset="1" stop-color="#004D74"/>
</linearGradient>
<linearGradient id="paint27_linear_112_396" x1="66.5653" y1="32.8022" x2="66.5653" y2="35.8736" gradientUnits="userSpaceOnUse">
<stop stop-color="#00679A"/>
<stop offset="1" stop-color="#004D74"/>
</linearGradient>
<linearGradient id="paint28_linear_112_396" x1="24.3396" y1="8.84546" x2="24.3396" y2="29.7308" gradientUnits="userSpaceOnUse">
<stop stop-color="#00679A"/>
<stop offset="1" stop-color="#004D74"/>
</linearGradient>
<linearGradient id="paint29_linear_112_396" x1="58.8823" y1="11.0569" x2="58.8823" y2="16.5854" gradientUnits="userSpaceOnUse">
<stop stop-color="#00679A"/>
<stop offset="1" stop-color="#004D74"/>
</linearGradient>
<linearGradient id="paint30_linear_112_396" x1="63.6764" y1="10.3198" x2="63.6764" y2="16.5854" gradientUnits="userSpaceOnUse">
<stop stop-color="#00679A"/>
<stop offset="1" stop-color="#004D74"/>
</linearGradient>
<linearGradient id="paint31_linear_112_396" x1="68.4708" y1="11.917" x2="68.4708" y2="16.5855" gradientUnits="userSpaceOnUse">
<stop stop-color="#00679A"/>
<stop offset="1" stop-color="#004D74"/>
</linearGradient>
<linearGradient id="paint32_linear_112_396" x1="73.2648" y1="8.72266" x2="73.2648" y2="16.5854" gradientUnits="userSpaceOnUse">
<stop stop-color="#00679A"/>
<stop offset="1" stop-color="#004D74"/>
</linearGradient>
<linearGradient id="paint33_linear_112_396" x1="65.9277" y1="5.89673" x2="65.9277" y2="10.9338" gradientUnits="userSpaceOnUse">
<stop stop-color="#00679A"/>
<stop offset="1" stop-color="#004D74"/>
</linearGradient>
</defs>
</svg>
