<svg width="124" height="119" viewBox="0 0 124 119" fill="none" xmlns="http://www.w3.org/2000/svg">
<path d="M7.04128 96.7622L3.39996 100.349L21.3457 118.545L24.987 114.958L7.04128 96.7622Z" fill="url(#paint0_linear_112_472)"/>
<path d="M41.0148 54.8871L38.739 57.129L65.0594 83.8161L67.3352 81.5742L41.0148 54.8871Z" fill="url(#paint1_linear_112_472)"/>
<path d="M40.7823 49.1601L42.0605 47.8827C41.4214 48.5214 41.4214 49.7988 42.0605 50.4375L48.0253 56.3989C48.6644 57.2505 49.9426 57.2505 50.5817 56.3989C49.9426 57.0376 49.7296 58.315 50.5817 58.9537L62.9375 71.5151C63.5766 72.1538 64.8548 72.1538 65.4939 71.5151C64.8548 72.1538 64.8548 73.4313 65.4939 74.07L71.4588 80.0313C72.3109 80.883 73.376 80.883 74.0151 80.0313L72.737 81.3088C72.0979 81.9475 70.8197 81.9475 70.1806 81.3088L40.3562 51.0763C39.9301 51.0763 39.9302 49.7988 40.7823 49.1601Z" fill="url(#paint2_linear_112_472)"/>
<path d="M79.341 75.7735L78.2758 76.838C78.7019 76.1993 78.7019 75.1348 78.0628 74.4961L72.0979 68.5347C71.2458 67.896 70.1807 67.6831 69.3285 68.5347C69.9676 67.896 70.1807 66.6186 69.3285 65.9799L56.9727 53.4184C56.3336 52.7797 55.0555 52.5668 54.4164 53.4184C55.0555 52.7797 55.0555 51.5023 54.4164 50.6507L48.4515 44.6893C47.5994 44.0506 46.5342 43.8377 45.6821 44.6893L42.0605 48.3087L46.9603 43.4119C47.5994 42.7732 48.8775 42.7732 49.5166 43.4119L79.341 73.6444C80.1931 73.8573 80.1931 74.9218 79.341 75.7735Z" fill="url(#paint3_linear_112_472)"/>
<path d="M33.9654 69.173C33.3263 68.5343 31.8351 68.5343 30.983 69.3859C30.1308 70.2375 29.9178 71.515 30.7699 72.3666C30.1308 71.7279 28.6396 71.7278 27.7875 72.5795C26.9354 73.4311 26.7223 74.7086 27.5744 75.5602C26.9354 74.9215 25.4441 74.9214 24.592 75.773C23.7399 76.6247 23.5269 77.9022 24.379 78.7538C23.7399 78.1151 22.2487 78.115 21.3966 78.9666C20.5444 79.8182 20.3314 81.0957 21.1835 81.9474C20.5444 81.3086 19.0532 81.3086 18.2011 82.1602C17.349 83.0118 17.1359 84.2893 17.988 85.1409C17.349 84.5022 15.8577 84.5022 15.0056 85.3538C14.1535 86.2054 13.9405 87.4829 14.7926 88.3345C14.1535 87.6958 12.6623 87.6957 11.8102 88.5474C10.958 89.399 10.745 90.6765 11.5971 91.5281C10.958 90.8894 9.46682 90.8893 8.61469 91.7409C7.76257 92.5926 7.54952 93.8701 8.40165 94.7217L27.3614 113.883C28.0005 114.522 29.4917 114.522 30.3439 113.67C31.196 112.819 31.409 111.541 30.5569 110.69C31.196 111.328 32.6872 111.328 33.5393 110.477C34.3915 109.625 34.6045 108.348 33.7524 107.496C34.3915 108.135 35.8827 108.135 36.7348 107.283C37.5869 106.431 37.8 105.154 36.9478 104.302C37.5869 104.941 39.0781 104.941 39.9303 104.089C40.7824 103.238 40.9954 101.96 40.1433 101.109C40.7824 101.748 42.2736 101.748 43.1257 100.896C43.9778 100.044 44.1909 98.7669 43.3388 97.9152C43.9779 98.554 45.4691 98.554 46.3212 97.7023C47.1733 96.8507 47.3864 95.5733 46.5342 94.7217C47.1733 95.3604 48.6645 95.3604 49.5167 94.5088C50.3688 93.6571 50.5818 92.3797 49.7297 91.5281C50.3688 92.1668 51.86 92.1668 52.7121 91.3152C53.5642 90.4636 53.7773 89.1861 52.9252 88.3345C53.5643 88.9732 55.0555 88.9732 55.9076 88.1216C56.7597 87.27 56.9728 85.9926 56.1206 85.1409C56.7597 85.7796 58.2509 85.7796 59.1031 84.928C59.9552 84.0764 60.1682 82.799 59.3161 81.9474L40.3563 62.7859C39.7172 62.1472 38.226 62.1471 37.3739 62.9987C36.5218 63.8503 36.3087 65.1278 37.1608 65.9795C36.5218 65.3407 35.0306 65.3407 34.1784 66.1923C33.3263 67.0439 33.3263 68.3214 33.9654 69.173Z" fill="url(#paint4_linear_112_472)"/>
<path d="M86.158 59.8054L77.8498 67.8958L54.8424 45.1149L63.3637 36.8117C65.92 34.2568 69.9676 34.2568 72.524 36.8117L86.158 50.6505C88.7143 53.2054 88.7143 57.2505 86.158 59.8054Z" fill="url(#paint5_linear_112_472)"/>
<path d="M82.1103 26.5923C80.8322 25.3149 78.9149 25.3149 77.8497 26.3794C76.7846 27.4439 76.7846 29.3601 78.0628 30.6375C76.7846 29.3601 74.8673 29.3601 73.8021 30.4246C72.737 31.4891 72.737 33.4053 74.0152 34.6827L88.9273 49.799C90.2055 51.0764 92.1228 51.0764 93.188 50.0119C94.2531 48.9474 94.2531 47.0312 92.9749 45.7538C94.2531 47.0312 96.1704 47.0312 97.2356 45.9667C98.3007 44.9021 98.3007 42.986 97.0225 41.7086C98.3007 42.986 100.218 42.986 101.283 41.9215C102.348 40.857 102.348 38.9408 101.07 37.6634C102.348 38.9408 104.266 38.9408 105.331 37.8763C106.396 36.8118 106.396 34.8956 105.118 33.6182L90.2055 18.5019C88.9273 17.2245 87.0101 17.2244 85.9449 18.289C84.8798 19.3535 84.8797 21.2696 86.1579 22.5471C84.8797 21.2696 82.9625 21.2697 81.8973 22.3342C80.8321 23.3988 80.8322 25.3149 82.1103 26.5923Z" fill="url(#paint6_linear_112_472)"/>
<path d="M101.496 8.92119L92.7618 17.4374L106.396 31.2762L115.13 22.76C117.047 20.8439 117.047 17.8632 115.343 15.5213C115.13 15.0955 114.917 14.8825 114.491 14.4567L109.591 9.55991C109.378 9.347 108.952 8.92121 108.526 8.7083C106.183 7.00506 103.2 7.00504 101.496 8.92119Z" fill="url(#paint7_linear_112_472)"/>
<path d="M6.67906 106.973L4.40356 109.215L12.3296 117.25L14.6051 115.008L6.67906 106.973Z" fill="url(#paint8_linear_112_472)"/>
<path d="M6.5385 111.264L4.86932 112.908L8.75702 116.851L10.4262 115.207L6.5385 111.264Z" fill="url(#paint9_linear_112_472)"/>
<path d="M116.408 1.04349L110.017 7.43065C110.443 7.64355 110.656 7.85648 111.083 8.28229L115.982 13.1791C116.195 13.392 116.621 13.8178 116.834 14.2436L123.225 7.85645C123.864 7.21774 124.077 5.94031 123.225 5.3016L119.178 1.04349C118.113 0.404774 117.047 0.404774 116.408 1.04349Z" fill="url(#paint10_linear_112_472)"/>
<path d="M3.50192 103.664C-0.545669 107.709 -0.758713 114.522 3.28888 118.567L4.56708 117.29C1.15858 113.884 1.15858 108.348 4.56708 104.942L3.50192 103.664Z" fill="url(#paint11_linear_112_472)"/>
<defs>
<linearGradient id="paint0_linear_112_472" x1="5.22062" y1="98.5557" x2="23.1556" y2="116.762" gradientUnits="userSpaceOnUse">
<stop stop-color="#00679A"/>
<stop offset="1" stop-color="#004D74"/>
</linearGradient>
<linearGradient id="paint1_linear_112_472" x1="39.8769" y1="56.0081" x2="66.1816" y2="82.7107" gradientUnits="userSpaceOnUse">
<stop stop-color="#00679A"/>
<stop offset="1" stop-color="#004D74"/>
</linearGradient>
<linearGradient id="paint2_linear_112_472" x1="57.0457" y1="47.8827" x2="57.0457" y2="81.7878" gradientUnits="userSpaceOnUse">
<stop stop-color="#00679A"/>
<stop offset="1" stop-color="#004D74"/>
</linearGradient>
<linearGradient id="paint3_linear_112_472" x1="61.0203" y1="42.9329" x2="61.0203" y2="76.838" gradientUnits="userSpaceOnUse">
<stop stop-color="#00679A"/>
<stop offset="1" stop-color="#004D74"/>
</linearGradient>
<linearGradient id="paint4_linear_112_472" x1="33.8589" y1="62.3306" x2="33.8589" y2="114.338" gradientUnits="userSpaceOnUse">
<stop stop-color="#00679A"/>
<stop offset="1" stop-color="#004D74"/>
</linearGradient>
<linearGradient id="paint5_linear_112_472" x1="71.4588" y1="34.8955" x2="71.4588" y2="67.8958" gradientUnits="userSpaceOnUse">
<stop stop-color="#00679A"/>
<stop offset="1" stop-color="#004D74"/>
</linearGradient>
<linearGradient id="paint6_linear_112_472" x1="89.5664" y1="17.5154" x2="89.5664" y2="50.7855" gradientUnits="userSpaceOnUse">
<stop stop-color="#00679A"/>
<stop offset="1" stop-color="#004D74"/>
</linearGradient>
<linearGradient id="paint7_linear_112_472" x1="104.679" y1="7.4563" x2="104.679" y2="31.2762" gradientUnits="userSpaceOnUse">
<stop stop-color="#00679A"/>
<stop offset="1" stop-color="#004D74"/>
</linearGradient>
<linearGradient id="paint8_linear_112_472" x1="5.54131" y1="108.094" x2="13.4626" y2="116.134" gradientUnits="userSpaceOnUse">
<stop stop-color="#00679A"/>
<stop offset="1" stop-color="#004D74"/>
</linearGradient>
<linearGradient id="paint9_linear_112_472" x1="5.70391" y1="112.086" x2="9.58928" y2="116.032" gradientUnits="userSpaceOnUse">
<stop stop-color="#00679A"/>
<stop offset="1" stop-color="#004D74"/>
</linearGradient>
<linearGradient id="paint10_linear_112_472" x1="116.902" y1="0.564453" x2="116.902" y2="14.2436" gradientUnits="userSpaceOnUse">
<stop stop-color="#00679A"/>
<stop offset="1" stop-color="#004D74"/>
</linearGradient>
<linearGradient id="paint11_linear_112_472" x1="2.46234" y1="103.664" x2="2.46234" y2="118.567" gradientUnits="userSpaceOnUse">
<stop stop-color="#00679A"/>
<stop offset="1" stop-color="#004D74"/>
</linearGradient>
</defs>
</svg>
