<svg width="137" height="111" viewBox="0 0 137 111" fill="none" xmlns="http://www.w3.org/2000/svg">
<path d="M46.72 46.2149C46.72 46.8536 46.294 47.2794 45.6549 47.2794C45.0158 47.2794 44.5897 46.8536 44.5897 46.2149C44.5897 45.5762 45.0158 45.1504 45.6549 45.1504C46.0809 45.1504 46.72 45.5762 46.72 46.2149Z" fill="url(#paint0_linear_112_457)"/>
<path d="M83.7874 57.4991C82.0832 57.4991 80.5919 58.9895 80.5919 60.6927C80.5919 62.396 82.0832 63.8863 83.7874 63.8863C85.4917 63.8863 86.9829 62.396 86.9829 60.6927C87.1959 58.7766 85.7047 57.4991 83.7874 57.4991ZM83.7874 57.4991C82.0832 57.4991 80.5919 58.9895 80.5919 60.6927C80.5919 62.396 82.0832 63.8863 83.7874 63.8863C85.4917 63.8863 86.9829 62.396 86.9829 60.6927C87.1959 58.7766 85.7047 57.4991 83.7874 57.4991ZM75.2662 77.0865C69.3013 73.8929 65.2537 67.7186 65.2537 60.6927C65.2537 54.7314 68.0231 49.4088 72.4968 46.0023L57.7976 42.8087C58.2237 43.8732 58.2237 45.1507 58.2237 46.4281C58.2237 53.454 52.4718 59.2024 45.4418 59.2024C44.8027 59.2024 43.9506 59.2024 43.3115 58.9895L47.3591 72.8283C49.2764 71.338 51.4067 70.4864 53.9631 70.4864C59.9279 70.4864 64.8276 75.3832 64.8276 81.3446L75.2662 77.0865ZM54.1761 80.7059C53.75 80.7059 53.537 80.9188 53.537 81.3446C53.537 81.5575 53.75 81.9832 54.1761 81.9832C54.3891 81.9832 54.6021 81.7704 54.6021 81.3446C54.8152 80.9188 54.6021 80.7059 54.1761 80.7059ZM83.7874 57.4991C82.0832 57.4991 80.5919 58.9895 80.5919 60.6927C80.5919 62.396 82.0832 63.8863 83.7874 63.8863C85.4917 63.8863 86.9829 62.396 86.9829 60.6927C87.1959 58.7766 85.7047 57.4991 83.7874 57.4991ZM83.7874 57.4991C82.0832 57.4991 80.5919 58.9895 80.5919 60.6927C80.5919 62.396 82.0832 63.8863 83.7874 63.8863C85.4917 63.8863 86.9829 62.396 86.9829 60.6927C87.1959 58.7766 85.7047 57.4991 83.7874 57.4991ZM75.2662 77.0865C69.3013 73.8929 65.2537 67.7186 65.2537 60.6927C65.2537 54.7314 68.0231 49.4088 72.4968 46.0023L57.7976 42.8087C58.2237 43.8732 58.2237 45.1507 58.2237 46.4281C58.2237 53.454 52.4718 59.2024 45.4418 59.2024C44.8027 59.2024 43.9506 59.2024 43.3115 58.9895L47.3591 72.8283C49.2764 71.338 51.4067 70.4864 53.9631 70.4864C59.9279 70.4864 64.8276 75.3832 64.8276 81.3446L75.2662 77.0865ZM54.1761 80.7059C53.75 80.7059 53.537 80.9188 53.537 81.3446C53.537 81.5575 53.75 81.9832 54.1761 81.9832C54.3891 81.9832 54.6021 81.7704 54.6021 81.3446C54.8152 80.9188 54.6021 80.7059 54.1761 80.7059ZM54.1761 80.7059C53.75 80.7059 53.537 80.9188 53.537 81.3446C53.537 81.5575 53.75 81.9832 54.1761 81.9832C54.3891 81.9832 54.6021 81.7704 54.6021 81.3446C54.8152 80.9188 54.6021 80.7059 54.1761 80.7059ZM75.2662 77.0865C69.3013 73.8929 65.2537 67.7186 65.2537 60.6927C65.2537 54.7314 68.0231 49.4088 72.4968 46.0023L57.7976 42.8087C58.2237 43.8732 58.2237 45.1507 58.2237 46.4281C58.2237 53.454 52.4718 59.2024 45.4418 59.2024C44.8027 59.2024 43.9506 59.2024 43.3115 58.9895L47.3591 72.8283C49.2764 71.338 51.4067 70.4864 53.9631 70.4864C59.9279 70.4864 64.8276 75.3832 64.8276 81.3446L75.2662 77.0865ZM83.7874 57.4991C82.0832 57.4991 80.5919 58.9895 80.5919 60.6927C80.5919 62.396 82.0832 63.8863 83.7874 63.8863C85.4917 63.8863 86.9829 62.396 86.9829 60.6927C87.1959 58.7766 85.7047 57.4991 83.7874 57.4991ZM83.7874 57.4991C82.0832 57.4991 80.5919 58.9895 80.5919 60.6927C80.5919 62.396 82.0832 63.8863 83.7874 63.8863C85.4917 63.8863 86.9829 62.396 86.9829 60.6927C87.1959 58.7766 85.7047 57.4991 83.7874 57.4991ZM75.2662 77.0865C69.3013 73.8929 65.2537 67.7186 65.2537 60.6927C65.2537 54.7314 68.0231 49.4088 72.4968 46.0023L57.7976 42.8087C58.2237 43.8732 58.2237 45.1507 58.2237 46.4281C58.2237 53.454 52.4718 59.2024 45.4418 59.2024C44.8027 59.2024 43.9506 59.2024 43.3115 58.9895L47.3591 72.8283C49.2764 71.338 51.4067 70.4864 53.9631 70.4864C59.9279 70.4864 64.8276 75.3832 64.8276 81.3446L75.2662 77.0865ZM54.1761 80.7059C53.75 80.7059 53.537 80.9188 53.537 81.3446C53.537 81.5575 53.75 81.9832 54.1761 81.9832C54.3891 81.9832 54.6021 81.7704 54.6021 81.3446C54.8152 80.9188 54.6021 80.7059 54.1761 80.7059ZM54.1761 80.7059C53.75 80.7059 53.537 80.9188 53.537 81.3446C53.537 81.5575 53.75 81.9832 54.1761 81.9832C54.3891 81.9832 54.6021 81.7704 54.6021 81.3446C54.8152 80.9188 54.6021 80.7059 54.1761 80.7059ZM75.2662 77.0865C69.3013 73.8929 65.2537 67.7186 65.2537 60.6927C65.2537 54.7314 68.0231 49.4088 72.4968 46.0023L57.7976 42.8087C58.2237 43.8732 58.2237 45.1507 58.2237 46.4281C58.2237 53.454 52.4718 59.2024 45.4418 59.2024C44.8027 59.2024 43.9506 59.2024 43.3115 58.9895L47.3591 72.8283C49.2764 71.338 51.4067 70.4864 53.9631 70.4864C59.9279 70.4864 64.8276 75.3832 64.8276 81.3446L75.2662 77.0865ZM83.7874 57.4991C82.0832 57.4991 80.5919 58.9895 80.5919 60.6927C80.5919 62.396 82.0832 63.8863 83.7874 63.8863C85.4917 63.8863 86.9829 62.396 86.9829 60.6927C87.1959 58.7766 85.7047 57.4991 83.7874 57.4991ZM82.0832 24.7117L80.3789 23.4343L80.5919 23.2214H55.8803L56.0934 23.4343L53.9631 24.9247L39.903 34.5054L40.116 34.7183C41.8203 33.8667 43.7376 33.2279 45.8679 33.2279C47.7851 33.2279 49.7024 33.6538 51.4067 34.5054L84.8526 41.7442C94.865 41.9571 102.96 50.2604 102.96 60.2669C102.96 68.1444 98.0605 74.9574 91.2435 77.7251L90.8174 77.9381L82.9353 80.9187L61.2061 89.8608C59.5019 91.1382 57.1585 91.9898 54.8152 91.9898C48.8503 91.9898 43.9506 87.093 43.9506 81.1316C43.9506 80.9187 43.9506 80.9188 43.9506 80.7059L35.8554 53.6669C34.1512 51.5378 33.299 48.9829 33.299 46.0023C33.299 42.3829 34.7902 39.1893 37.1336 36.8474L36.9206 36.6344L22.4344 46.641L32.0208 70.9122L47.3591 110.087H89.7523L105.091 70.9122L114.677 46.641L82.0832 24.7117ZM87.1959 60.6927C87.1959 58.9895 85.7047 57.4991 84.0004 57.4991C82.2962 57.4991 80.805 58.9895 80.805 60.6927C80.805 62.396 82.2962 63.8863 84.0004 63.8863C85.7047 63.8863 87.1959 62.396 87.1959 60.6927ZM45.4418 58.9895C44.8027 58.9895 43.9506 58.9895 43.3115 58.7766L47.3591 72.6154C49.2764 71.1251 51.4067 70.2735 53.9631 70.2735C59.9279 70.2735 64.8276 75.1703 64.8276 81.1316L75.0531 77.0865C69.0883 73.8929 65.0407 67.7186 65.0407 60.6927C65.0407 54.7314 67.8101 49.4088 72.2837 46.0023L57.5846 42.8087C58.0106 43.8732 58.0106 45.1507 58.0106 46.4281C58.2237 53.2411 52.6849 58.9895 45.4418 58.9895ZM53.75 81.1316C53.75 81.3445 53.9631 81.7704 54.3891 81.7704C54.6021 81.7704 54.8152 81.5575 54.8152 81.1316C54.8152 80.9187 54.6021 80.493 54.3891 80.493C53.9631 80.7059 53.75 80.9187 53.75 81.1316ZM83.7874 57.4991C82.0832 57.4991 80.5919 58.9895 80.5919 60.6927C80.5919 62.396 82.0832 63.8863 83.7874 63.8863C85.4917 63.8863 86.9829 62.396 86.9829 60.6927C87.1959 58.7766 85.7047 57.4991 83.7874 57.4991ZM75.2662 77.0865C69.3013 73.8929 65.2537 67.7186 65.2537 60.6927C65.2537 54.7314 68.0231 49.4088 72.4968 46.0023L57.7976 42.8087C58.2237 43.8732 58.2237 45.1507 58.2237 46.4281C58.2237 53.454 52.4718 59.2024 45.4418 59.2024C44.8027 59.2024 43.9506 59.2024 43.3115 58.9895L47.3591 72.8283C49.2764 71.338 51.4067 70.4864 53.9631 70.4864C59.9279 70.4864 64.8276 75.3832 64.8276 81.3446L75.2662 77.0865ZM54.1761 80.7059C53.75 80.7059 53.537 80.9188 53.537 81.3446C53.537 81.5575 53.75 81.9832 54.1761 81.9832C54.3891 81.9832 54.6021 81.7704 54.6021 81.3446C54.8152 80.9188 54.6021 80.7059 54.1761 80.7059ZM54.1761 80.7059C53.75 80.7059 53.537 80.9188 53.537 81.3446C53.537 81.5575 53.75 81.9832 54.1761 81.9832C54.3891 81.9832 54.6021 81.7704 54.6021 81.3446C54.8152 80.9188 54.6021 80.7059 54.1761 80.7059ZM75.2662 77.0865C69.3013 73.8929 65.2537 67.7186 65.2537 60.6927C65.2537 54.7314 68.0231 49.4088 72.4968 46.0023L57.7976 42.8087C58.2237 43.8732 58.2237 45.1507 58.2237 46.4281C58.2237 53.454 52.4718 59.2024 45.4418 59.2024C44.8027 59.2024 43.9506 59.2024 43.3115 58.9895L47.3591 72.8283C49.2764 71.338 51.4067 70.4864 53.9631 70.4864C59.9279 70.4864 64.8276 75.3832 64.8276 81.3446L75.2662 77.0865ZM83.7874 57.4991C82.0832 57.4991 80.5919 58.9895 80.5919 60.6927C80.5919 62.396 82.0832 63.8863 83.7874 63.8863C85.4917 63.8863 86.9829 62.396 86.9829 60.6927C87.1959 58.7766 85.7047 57.4991 83.7874 57.4991ZM83.7874 57.4991C82.0832 57.4991 80.5919 58.9895 80.5919 60.6927C80.5919 62.396 82.0832 63.8863 83.7874 63.8863C85.4917 63.8863 86.9829 62.396 86.9829 60.6927C87.1959 58.7766 85.7047 57.4991 83.7874 57.4991ZM75.2662 77.0865C69.3013 73.8929 65.2537 67.7186 65.2537 60.6927C65.2537 54.7314 68.0231 49.4088 72.4968 46.0023L57.7976 42.8087C58.2237 43.8732 58.2237 45.1507 58.2237 46.4281C58.2237 53.454 52.4718 59.2024 45.4418 59.2024C44.8027 59.2024 43.9506 59.2024 43.3115 58.9895L47.3591 72.8283C49.2764 71.338 51.4067 70.4864 53.9631 70.4864C59.9279 70.4864 64.8276 75.3832 64.8276 81.3446L75.2662 77.0865ZM54.1761 80.7059C53.75 80.7059 53.537 80.9188 53.537 81.3446C53.537 81.5575 53.75 81.9832 54.1761 81.9832C54.3891 81.9832 54.6021 81.7704 54.6021 81.3446C54.8152 80.9188 54.6021 80.7059 54.1761 80.7059ZM75.2662 77.0865C69.3013 73.8929 65.2537 67.7186 65.2537 60.6927C65.2537 54.7314 68.0231 49.4088 72.4968 46.0023L57.7976 42.8087C58.2237 43.8732 58.2237 45.1507 58.2237 46.4281C58.2237 53.454 52.4718 59.2024 45.4418 59.2024C44.8027 59.2024 43.9506 59.2024 43.3115 58.9895L47.3591 72.8283C49.2764 71.338 51.4067 70.4864 53.9631 70.4864C59.9279 70.4864 64.8276 75.3832 64.8276 81.3446L75.2662 77.0865ZM83.7874 57.4991C82.0832 57.4991 80.5919 58.9895 80.5919 60.6927C80.5919 62.396 82.0832 63.8863 83.7874 63.8863C85.4917 63.8863 86.9829 62.396 86.9829 60.6927C87.1959 58.7766 85.7047 57.4991 83.7874 57.4991ZM83.7874 57.4991C82.0832 57.4991 80.5919 58.9895 80.5919 60.6927C80.5919 62.396 82.0832 63.8863 83.7874 63.8863C85.4917 63.8863 86.9829 62.396 86.9829 60.6927C87.1959 58.7766 85.7047 57.4991 83.7874 57.4991ZM75.2662 77.0865C69.3013 73.8929 65.2537 67.7186 65.2537 60.6927C65.2537 54.7314 68.0231 49.4088 72.4968 46.0023L57.7976 42.8087C58.2237 43.8732 58.2237 45.1507 58.2237 46.4281C58.2237 53.454 52.4718 59.2024 45.4418 59.2024C44.8027 59.2024 43.9506 59.2024 43.3115 58.9895L47.3591 72.8283C49.2764 71.338 51.4067 70.4864 53.9631 70.4864C59.9279 70.4864 64.8276 75.3832 64.8276 81.3446L75.2662 77.0865ZM83.7874 57.4991C82.0832 57.4991 80.5919 58.9895 80.5919 60.6927C80.5919 62.396 82.0832 63.8863 83.7874 63.8863C85.4917 63.8863 86.9829 62.396 86.9829 60.6927C87.1959 58.7766 85.7047 57.4991 83.7874 57.4991ZM83.7874 57.4991C82.0832 57.4991 80.5919 58.9895 80.5919 60.6927C80.5919 62.396 82.0832 63.8863 83.7874 63.8863C85.4917 63.8863 86.9829 62.396 86.9829 60.6927C87.1959 58.7766 85.7047 57.4991 83.7874 57.4991ZM54.1761 80.7059C53.75 80.7059 53.537 80.9188 53.537 81.3446C53.537 81.5575 53.75 81.9832 54.1761 81.9832C54.3891 81.9832 54.6021 81.7704 54.6021 81.3446C54.8152 80.9188 54.6021 80.7059 54.1761 80.7059ZM75.2662 77.0865C69.3013 73.8929 65.2537 67.7186 65.2537 60.6927C65.2537 54.7314 68.0231 49.4088 72.4968 46.0023L57.7976 42.8087C58.2237 43.8732 58.2237 45.1507 58.2237 46.4281C58.2237 53.454 52.4718 59.2024 45.4418 59.2024C44.8027 59.2024 43.9506 59.2024 43.3115 58.9895L47.3591 72.8283C49.2764 71.338 51.4067 70.4864 53.9631 70.4864C59.9279 70.4864 64.8276 75.3832 64.8276 81.3446L75.2662 77.0865ZM83.7874 57.4991C82.0832 57.4991 80.5919 58.9895 80.5919 60.6927C80.5919 62.396 82.0832 63.8863 83.7874 63.8863C85.4917 63.8863 86.9829 62.396 86.9829 60.6927C87.1959 58.7766 85.7047 57.4991 83.7874 57.4991Z" fill="url(#paint1_linear_112_457)"/>
<path d="M81.6573 79.2154L63.7627 86.4541C64.1888 85.6025 64.6148 84.7509 64.8279 83.6864L78.0358 78.3638C79.1009 78.7896 80.3791 79.0025 81.6573 79.2154Z" fill="url(#paint2_linear_112_457)"/>
<path d="M78.2487 42.8084C77.1835 43.2343 75.9053 43.6601 74.8402 44.2988L56.7325 40.2536C56.3065 39.402 55.6674 38.5504 55.0283 37.6987L78.2487 42.8084Z" fill="url(#paint3_linear_112_457)"/>
<path d="M45.868 74.3184C45.2289 74.9571 44.8028 75.8087 44.3767 76.6603L38.4119 56.8601C39.264 57.4988 40.1161 57.9246 40.9682 58.1376L45.868 74.3184Z" fill="url(#paint4_linear_112_457)"/>
<path d="M84.0006 44.0862C74.8403 44.0862 67.3842 51.5378 67.3842 60.6928C67.3842 69.8477 74.8403 77.2994 84.0006 77.2994C93.1609 77.2994 100.617 69.8477 100.617 60.6928C100.404 51.5378 92.9479 44.0862 84.0006 44.0862ZM84.0006 66.0154C81.0182 66.0154 78.6748 63.6734 78.6748 60.6928C78.6748 57.7121 81.0182 55.3701 84.0006 55.3701C86.983 55.3701 89.3264 57.7121 89.3264 60.6928C89.3264 63.6734 86.77 66.0154 84.0006 66.0154Z" fill="url(#paint5_linear_112_457)"/>
<path d="M45.6549 35.5698C39.69 35.5698 35.0033 40.2537 35.0033 46.2151C35.0033 52.1764 39.69 56.8604 45.6549 56.8604C51.6197 56.8604 56.3064 52.1764 56.3064 46.2151C56.0934 40.4666 51.4067 35.5698 45.6549 35.5698ZM45.6549 49.4087C43.9506 49.4087 42.4594 47.9183 42.4594 46.2151C42.4594 44.5118 43.9506 43.0215 45.6549 43.0215C47.3591 43.0215 48.8503 44.5118 48.8503 46.2151C48.8503 48.1312 47.3591 49.4087 45.6549 49.4087Z" fill="url(#paint6_linear_112_457)"/>
<path d="M54.1762 72.6155C49.2764 72.6155 45.4419 76.4478 45.4419 81.3446C45.4419 86.2414 49.2764 90.0737 54.1762 90.0737C58.8628 90.0737 62.9104 86.2414 62.9104 81.3446C62.9104 76.4478 59.0759 72.6155 54.1762 72.6155ZM54.1762 83.8995C52.6849 83.8995 51.4067 82.622 51.4067 81.1317C51.4067 79.6414 52.6849 78.3639 54.1762 78.3639C55.6674 78.3639 56.7325 79.6414 56.7325 81.1317C56.9455 82.622 55.6674 83.8995 54.1762 83.8995Z" fill="url(#paint7_linear_112_457)"/>
<path d="M40.542 0.0146484V15.3439H95.504V0.0146484H40.542ZM43.3114 13.8535H41.6071V1.29209H43.3114V13.8535ZM46.2938 13.8535H44.5896V1.29209H46.2938V13.8535ZM49.2762 13.8535H47.572V1.29209H49.2762V13.8535ZM52.4717 13.8535H50.7675V1.29209H52.4717V13.8535ZM55.4542 13.8535H53.7499V1.29209H55.4542V13.8535ZM58.4366 13.8535H56.7323V1.29209H58.4366V13.8535ZM61.419 13.8535H59.7148V1.29209H61.419V13.8535ZM64.4015 13.8535H62.6972V1.29209H64.4015V13.8535ZM67.3839 13.8535H65.6797V1.29209H67.3839V13.8535ZM70.3664 13.8535H68.6621V1.29209H70.3664V13.8535ZM73.3488 13.8535H71.6445V1.29209H73.3488V13.8535ZM76.3312 13.8535H74.627V1.29209H76.3312V13.8535ZM79.3137 13.8535H77.6094V1.29209H79.3137V13.8535ZM82.2961 13.8535H80.5919V1.29209H82.2961V13.8535ZM85.2785 13.8535H83.5743V1.29209H85.2785V13.8535ZM88.261 13.8535H86.5567V1.29209H88.261V13.8535ZM91.2434 13.8535H89.5392V1.29209H91.2434V13.8535ZM94.4389 13.8535H92.7346V1.29209H94.4389V13.8535Z" fill="url(#paint8_linear_112_457)"/>
<path d="M82.2964 16.8342H53.9633V20.8794H82.2964V16.8342Z" fill="url(#paint9_linear_112_457)"/>
<path d="M52.8979 23.0084L52.4718 23.4341L21.1562 45.1505L8.37437 54.0925L6.88316 55.1571L1.55738 47.2795C-1.21202 43.4473 -0.146865 38.1246 3.6877 35.3568L35.8554 13.2147C36.7075 12.576 37.5596 12.1502 38.6248 11.9373V17.4728H49.2763L52.8979 23.0084Z" fill="url(#paint10_linear_112_457)"/>
<path d="M29.0384 71.3377H19.8781C17.3217 71.3377 16.4696 68.57 16.4696 68.57L9.43958 55.7957L20.3042 48.344L29.0384 71.3377Z" fill="url(#paint11_linear_112_457)"/>
<path d="M134.702 47.0664L129.163 54.9439L127.672 53.8794L114.89 44.9374L83.5742 23.2211L83.1482 22.7952L86.9828 17.2597H97.6343V11.7241C98.4864 11.937 99.5516 12.3628 100.404 13.0016L132.571 35.1437C136.406 37.9115 137.471 43.0212 134.702 47.0664Z" fill="url(#paint12_linear_112_457)"/>
<path d="M126.607 55.7957L119.577 68.57C119.577 68.57 118.725 71.3377 116.168 71.3377H107.008L115.955 48.344L126.607 55.7957Z" fill="url(#paint13_linear_112_457)"/>
<defs>
<linearGradient id="paint0_linear_112_457" x1="45.6549" y1="45.1504" x2="45.6549" y2="47.2794" gradientUnits="userSpaceOnUse">
<stop stop-color="#00679A"/>
<stop offset="1" stop-color="#004D74"/>
</linearGradient>
<linearGradient id="paint1_linear_112_457" x1="68.5557" y1="23.2214" x2="68.5557" y2="110.087" gradientUnits="userSpaceOnUse">
<stop stop-color="#00679A"/>
<stop offset="1" stop-color="#004D74"/>
</linearGradient>
<linearGradient id="paint2_linear_112_457" x1="72.71" y1="78.3638" x2="72.71" y2="86.4541" gradientUnits="userSpaceOnUse">
<stop stop-color="#00679A"/>
<stop offset="1" stop-color="#004D74"/>
</linearGradient>
<linearGradient id="paint3_linear_112_457" x1="66.6385" y1="37.6987" x2="66.6385" y2="44.2988" gradientUnits="userSpaceOnUse">
<stop stop-color="#00679A"/>
<stop offset="1" stop-color="#004D74"/>
</linearGradient>
<linearGradient id="paint4_linear_112_457" x1="42.1399" y1="56.8601" x2="42.1399" y2="76.6603" gradientUnits="userSpaceOnUse">
<stop stop-color="#00679A"/>
<stop offset="1" stop-color="#004D74"/>
</linearGradient>
<linearGradient id="paint5_linear_112_457" x1="84.0006" y1="44.0862" x2="84.0006" y2="77.2994" gradientUnits="userSpaceOnUse">
<stop stop-color="#00679A"/>
<stop offset="1" stop-color="#004D74"/>
</linearGradient>
<linearGradient id="paint6_linear_112_457" x1="45.6549" y1="35.5698" x2="45.6549" y2="56.8604" gradientUnits="userSpaceOnUse">
<stop stop-color="#00679A"/>
<stop offset="1" stop-color="#004D74"/>
</linearGradient>
<linearGradient id="paint7_linear_112_457" x1="54.1762" y1="72.6155" x2="54.1762" y2="90.0737" gradientUnits="userSpaceOnUse">
<stop stop-color="#00679A"/>
<stop offset="1" stop-color="#004D74"/>
</linearGradient>
<linearGradient id="paint8_linear_112_457" x1="68.023" y1="0.0146484" x2="68.023" y2="15.3439" gradientUnits="userSpaceOnUse">
<stop stop-color="#00679A"/>
<stop offset="1" stop-color="#004D74"/>
</linearGradient>
<linearGradient id="paint9_linear_112_457" x1="68.1298" y1="16.8342" x2="68.1298" y2="20.8794" gradientUnits="userSpaceOnUse">
<stop stop-color="#00679A"/>
<stop offset="1" stop-color="#004D74"/>
</linearGradient>
<linearGradient id="paint10_linear_112_457" x1="26.4504" y1="11.9373" x2="26.4504" y2="55.1571" gradientUnits="userSpaceOnUse">
<stop stop-color="#00679A"/>
<stop offset="1" stop-color="#004D74"/>
</linearGradient>
<linearGradient id="paint11_linear_112_457" x1="19.239" y1="48.344" x2="19.239" y2="71.3377" gradientUnits="userSpaceOnUse">
<stop stop-color="#00679A"/>
<stop offset="1" stop-color="#004D74"/>
</linearGradient>
<linearGradient id="paint12_linear_112_457" x1="109.702" y1="11.7241" x2="109.702" y2="54.9439" gradientUnits="userSpaceOnUse">
<stop stop-color="#00679A"/>
<stop offset="1" stop-color="#004D74"/>
</linearGradient>
<linearGradient id="paint13_linear_112_457" x1="116.807" y1="48.344" x2="116.807" y2="71.3377" gradientUnits="userSpaceOnUse">
<stop stop-color="#00679A"/>
<stop offset="1" stop-color="#004D74"/>
</linearGradient>
</defs>
</svg>
