<svg width="129" height="119" viewBox="0 0 129 119" fill="none" xmlns="http://www.w3.org/2000/svg">
<path d="M97.3574 62.6667C99.0616 49.2536 93.0967 37.5439 83.9364 30.0922L98.6355 15.4017C88.197 6.24673 74.563 0.498291 59.4378 0.498291C26.844 0.498291 0.428223 26.8986 0.428223 59.4731C0.428223 92.0476 26.844 118.448 59.4378 118.448C90.9664 118.448 116.743 93.7508 118.447 62.6667H97.3574ZM59.6508 94.1766C40.478 94.1766 24.9268 78.6346 24.9268 59.4731C24.9268 40.3116 40.478 24.7695 59.6508 24.7695C78.8236 24.7695 94.3749 40.3116 94.3749 59.4731C94.1619 78.6346 78.8236 94.1766 59.6508 94.1766Z" fill="url(#paint0_linear_112_387)"/>
<path d="M59.6508 27.1116C41.7562 27.1116 27.057 41.8021 27.057 59.6861C27.057 77.5702 41.5431 92.2606 59.6508 92.2606C77.5454 92.2606 92.2445 77.5702 92.2445 59.6861C92.0315 41.5892 77.5454 27.1116 59.6508 27.1116ZM59.4377 33.2859C61.9941 33.2859 63.9114 35.4149 63.9114 37.7568C63.9114 40.3117 61.7811 42.2279 59.4377 42.2279C56.8814 42.2279 54.9641 40.3117 54.9641 37.7568C54.9641 35.4149 57.0944 33.2859 59.4377 33.2859ZM38.9867 57.5571C36.4304 57.5571 34.5131 55.6409 34.5131 53.086C34.5131 50.5312 36.4304 48.615 38.9867 48.615C41.5431 48.615 43.4604 50.5312 43.4604 53.086C43.4604 55.6409 41.3301 57.5571 38.9867 57.5571ZM46.6559 81.8283C44.0995 81.8283 42.1822 79.6992 42.1822 77.3572C42.1822 74.8024 44.0995 72.8862 46.6559 72.8862C49.2122 72.8862 51.1295 74.8024 51.1295 77.3572C51.1295 79.9121 49.2122 81.8283 46.6559 81.8283ZM45.8038 59.4732C45.8038 51.8086 51.9816 45.8473 59.4377 45.8473C66.8938 45.8473 73.0717 52.0215 73.0717 59.4732C73.0717 66.9249 66.8938 73.0991 59.4377 73.0991C51.9816 73.0991 45.8038 67.1378 45.8038 59.4732ZM72.4326 81.8283C69.8763 81.8283 67.959 79.6992 67.959 77.3572C67.959 74.8024 69.8763 72.8862 72.4326 72.8862C74.989 72.8862 76.9063 74.8024 76.9063 77.3572C76.9063 79.9121 74.776 81.8283 72.4326 81.8283ZM80.3148 57.5571C77.7584 57.5571 75.8412 55.6409 75.8412 53.086C75.8412 50.5312 77.7584 48.615 80.3148 48.615C82.8712 48.615 84.7884 50.5312 84.7884 53.086C84.7884 55.6409 82.6582 57.5571 80.3148 57.5571Z" fill="url(#paint1_linear_112_387)"/>
<path d="M99.7007 60.5377C100.34 49.0408 95.8661 37.9698 86.9188 29.8794L107.583 9.22754C120.791 23.2793 128.247 41.1633 128.673 60.3248H99.7007V60.5377Z" fill="url(#paint2_linear_112_387)"/>
<defs>
<linearGradient id="paint0_linear_112_387" x1="59.4378" y1="0.498291" x2="59.4378" y2="118.448" gradientUnits="userSpaceOnUse">
<stop stop-color="#00679A"/>
<stop offset="1" stop-color="#004D74"/>
</linearGradient>
<linearGradient id="paint1_linear_112_387" x1="59.6508" y1="27.1116" x2="59.6508" y2="92.2606" gradientUnits="userSpaceOnUse">
<stop stop-color="#00679A"/>
<stop offset="1" stop-color="#004D74"/>
</linearGradient>
<linearGradient id="paint2_linear_112_387" x1="107.796" y1="9.22754" x2="107.796" y2="60.5377" gradientUnits="userSpaceOnUse">
<stop stop-color="#00679A"/>
<stop offset="1" stop-color="#004D74"/>
</linearGradient>
</defs>
</svg>
