<svg width="146" height="51" viewBox="0 0 146 51" fill="none" xmlns="http://www.w3.org/2000/svg">
<path d="M117.635 21.7411V29.8315H83.5501C81.8459 34.3025 77.5852 37.4961 72.4725 37.4961C67.3597 37.4961 63.0991 34.3025 61.6079 29.8315H27.5229V21.7411H61.6079C62.673 18.5475 65.2294 15.9927 68.4249 14.9281V9.39257H66.2946V5.5603H78.8634V9.39257H76.7331V14.9281C79.9286 16.2056 82.2719 18.7604 83.5501 21.7411H117.635Z" fill="url(#paint0_linear_112_536)"/>
<path d="M143.625 0.237305C143.412 0.237305 143.412 0.237305 143.199 0.237305H142.986C142.773 0.237305 142.773 0.237305 142.56 0.237305H122.322C121.256 0.237305 120.617 1.0889 120.617 1.94052V48.7797C120.617 49.8442 121.469 50.4829 122.322 50.4829H143.199C143.412 50.4829 143.412 50.4829 143.625 50.4829C144.477 50.27 145.116 49.6313 145.116 48.7797V1.94052C145.116 1.0889 144.477 0.45021 143.625 0.237305ZM136.382 1.30183H142.986L136.382 3.64374V1.30183ZM122.748 1.08891H129.352V3.43088L122.748 1.08891ZM122.535 2.57921L129.352 4.92118V9.60513L122.535 7.26315V2.57921ZM122.535 8.75352L129.352 11.0954V15.7794L122.535 13.4374V8.75352ZM122.535 14.9278L129.352 17.2697V21.9536L122.535 19.6116V14.9278ZM122.535 21.102L129.352 23.444V28.1279L122.535 25.7859V21.102ZM122.535 27.2762L129.352 29.6182V34.3022L122.535 31.9602V27.2762ZM122.535 33.6634L129.352 36.0054V40.6893L122.535 38.3473V33.6634ZM122.535 39.8376L129.352 42.1796V46.8636L122.535 44.5216V39.8376ZM122.535 49.4184V46.012L129.352 48.3539V49.4184H122.535ZM130.63 49.4184V1.30183H132.121V49.4184H130.63ZM134.89 49.4184H133.399V1.30183H134.89V49.4184ZM142.986 49.4184H136.169V48.3539L142.986 46.012V49.4184ZM142.986 44.5216L136.169 46.8636V42.1796L142.986 39.8376V44.5216ZM142.986 38.3473L136.169 40.6893V36.0054L142.986 33.6634V38.3473ZM142.986 32.1731L136.169 34.515V29.8311L142.986 27.4892V32.1731ZM142.986 25.9988L136.169 28.3408V23.6569L142.986 21.3149V25.9988ZM142.986 19.8246L136.169 22.1665V17.4826L142.986 15.1407V19.8246ZM142.986 13.4374L136.169 15.7794V11.0954L142.986 8.75352V13.4374ZM142.986 7.26315L136.169 9.60513V4.92118L142.986 2.57921V7.26315Z" fill="url(#paint1_linear_112_536)"/>
<path d="M23.0494 0.237305C22.8363 0.237305 22.8363 0.237305 22.6233 0.237305H22.4103C22.1972 0.237305 22.1972 0.237305 21.9842 0.237305H1.74625C0.681092 0.237305 0.0419922 1.0889 0.0419922 1.94052V48.7797C0.0419922 49.8442 0.894123 50.4829 1.74625 50.4829H22.6233C22.8363 50.4829 22.8363 50.4829 23.0494 50.4829C23.9015 50.27 24.5406 49.6313 24.5406 48.7797V1.94052C24.5406 1.0889 23.9015 0.45021 23.0494 0.237305ZM15.8063 1.30183H22.4103L15.8063 3.64374V1.30183ZM2.1723 1.08891H8.77628V3.43088L2.1723 1.08891ZM1.95929 2.57921L8.77628 4.92118V9.60513L1.95929 7.26315V2.57921ZM1.95929 8.75352L8.77628 11.0954V15.7794L1.95929 13.4374V8.75352ZM1.95929 14.9278L8.77628 17.2697V21.9536L1.95929 19.6116V14.9278ZM1.95929 21.102L8.77628 23.444V28.1279L1.95929 25.7859V21.102ZM1.95929 27.2762L8.77628 29.6182V34.3022L1.95929 31.9602V27.2762ZM1.95929 33.6634L8.77628 36.0054V40.6893L1.95929 38.3473V33.6634ZM1.95929 39.8376L8.77628 42.1796V46.8636L1.95929 44.5216V39.8376ZM1.95929 49.4184V46.012L8.77628 48.3539V49.4184H1.95929ZM10.0545 49.4184V1.30183H11.5457V49.4184H10.0545ZM14.3151 49.4184H12.8239V1.30183H14.3151V49.4184ZM22.6233 49.4184H15.8063V48.3539L22.6233 46.012V49.4184ZM22.6233 44.5216L15.8063 46.8636V42.1796L22.6233 39.8376V44.5216ZM22.6233 38.3473L15.8063 40.6893V36.0054L22.6233 33.6634V38.3473ZM22.6233 32.1731L15.8063 34.515V29.8311L22.6233 27.4892V32.1731ZM22.6233 25.9988L15.8063 28.3408V23.6569L22.6233 21.3149V25.9988ZM22.6233 19.8246L15.8063 22.1665V17.4826L22.6233 15.1407V19.8246ZM22.6233 13.4374L15.8063 15.7794V11.0954L22.6233 8.75352V13.4374ZM22.6233 7.26315L15.8063 9.60513V4.92118L22.6233 2.57921V7.26315Z" fill="url(#paint2_linear_112_536)"/>
<defs>
<linearGradient id="paint0_linear_112_536" x1="72.579" y1="5.5603" x2="72.579" y2="37.4961" gradientUnits="userSpaceOnUse">
<stop stop-color="#00679A"/>
<stop offset="1" stop-color="#004D74"/>
</linearGradient>
<linearGradient id="paint1_linear_112_536" x1="132.867" y1="0.237305" x2="132.867" y2="50.4829" gradientUnits="userSpaceOnUse">
<stop stop-color="#00679A"/>
<stop offset="1" stop-color="#004D74"/>
</linearGradient>
<linearGradient id="paint2_linear_112_536" x1="12.2913" y1="0.237305" x2="12.2913" y2="50.4829" gradientUnits="userSpaceOnUse">
<stop stop-color="#00679A"/>
<stop offset="1" stop-color="#004D74"/>
</linearGradient>
</defs>
</svg>
