<svg width="110" height="110" viewBox="0 0 110 110" fill="none" xmlns="http://www.w3.org/2000/svg">
<circle cx="55" cy="55" r="55" fill="#01CB9A"/>
<g filter="url(#filter0_d_112_219)">
<circle cx="55" cy="55" r="41" fill="white"/>
</g>
<path d="M55.5301 35C55.4699 35 55.4699 35 55.5301 35C54.5677 35.1203 52.0414 35.7819 48.9135 36.985C45.7857 38.188 42.718 38.609 40.1316 39.2707C37.6053 39.9323 38.0263 43 38.0263 43C38.0263 43 38.9887 55.391 39.3496 57.4361C41.2143 67.1804 55.2293 75 55.2293 75C55.2293 75 69.5451 67.421 71.4699 57.4962C71.891 55.391 72.8534 42.7594 72.8534 42.7594C72.8534 42.7594 73.3346 39.6315 70.688 39.03C68.0414 38.4285 64.8534 38.0075 61.6654 36.8646C58.5977 35.6616 56.4925 35.0602 55.5301 35ZM60.5827 39.5113C63.0489 40.4135 65.3947 40.8346 67.5 41.2556C67.5 41.2556 69.4248 41.7368 69.7256 41.797C69.7256 41.797 69.7857 41.797 69.7857 42.3383C69.7857 42.3985 69.7857 42.4586 69.7857 42.5188C69.4248 47.3308 68.703 55.5113 68.4023 56.9549C67.5601 61.2256 63.7105 65.1955 60.6429 67.7218C58.5977 69.406 56.6128 70.7293 55.2895 71.5714C54.0263 70.7293 52.0414 69.406 50.0564 67.7218C46.9887 65.1353 43.1992 61.1654 42.3571 56.9549C42.1165 55.5714 41.3947 47.5714 41.0338 42.8195C41.0338 42.6992 41.0338 42.6992 41.0338 42.6391C41.0338 42.4586 41.0338 42.218 41.094 42.0376C41.7556 41.8571 42.4774 41.7368 43.2594 41.5564C45.3045 41.1353 47.6504 40.594 50.0564 39.6917C52.7632 38.6692 54.688 38.1278 55.4699 37.9473C56.0113 38.0075 57.3346 38.3684 60.5827 39.5113Z" fill="#01CB9A"/>
<path d="M55.4699 39.03C55.4098 39.03 55.4699 39.03 55.4699 39.03C54.7481 39.0902 52.8835 39.6316 50.5978 40.594C48.2519 41.5564 45.9662 41.8571 44.1015 42.3985C42.1767 42.9398 42.5376 45.3458 42.5376 45.3458C42.5376 45.3458 43.2594 55.0902 43.5602 56.6541C44.9436 64.2932 55.3496 70.4285 55.3496 70.4285C55.3496 70.4285 65.9361 64.4737 67.3196 56.7143C67.6203 55.0902 68.3421 45.1654 68.3421 45.1654C68.3421 45.1654 68.703 42.6992 66.7181 42.218C64.7331 41.7368 62.4474 41.436 60.0414 40.5338C57.7556 39.5714 56.1917 39.0902 55.4699 39.03Z" fill="#01CB9A"/>
<defs>
<filter id="filter0_d_112_219" x="10" y="14" width="90" height="90" filterUnits="userSpaceOnUse" color-interpolation-filters="sRGB">
<feFlood flood-opacity="0" result="BackgroundImageFix"/>
<feColorMatrix in="SourceAlpha" type="matrix" values="0 0 0 0 0 0 0 0 0 0 0 0 0 0 0 0 0 0 127 0" result="hardAlpha"/>
<feOffset dy="4"/>
<feGaussianBlur stdDeviation="2"/>
<feComposite in2="hardAlpha" operator="out"/>
<feColorMatrix type="matrix" values="0 0 0 0 0 0 0 0 0 0 0 0 0 0 0 0 0 0 0.25 0"/>
<feBlend mode="normal" in2="BackgroundImageFix" result="effect1_dropShadow_112_219"/>
<feBlend mode="normal" in="SourceGraphic" in2="effect1_dropShadow_112_219" result="shape"/>
</filter>
</defs>
</svg>
