<svg width="148" height="142" viewBox="0 0 148 142" fill="none" xmlns="http://www.w3.org/2000/svg">
<path d="M120.287 82.0525C120.074 82.4783 120.074 82.6912 120.5 82.9041C120.5 82.9041 120.713 82.9041 120.713 83.117C123.483 80.7751 126.252 78.2202 130.087 76.0912C130.726 75.6654 131.578 75.2396 132.217 75.0267C133.282 74.6008 134.134 74.175 135.199 74.175C136.052 74.175 137.756 74.3879 137.756 75.8783C137.756 77.5815 137.543 79.4977 137.33 80.988C136.904 84.8203 133.708 81.2009 132.856 81.8396C131.791 82.4783 134.986 83.5429 135.413 84.3945C139.034 84.3945 143.082 84.3945 147.555 84.1816V128.253H112.192C112.618 126.55 112.831 124.846 112.831 122.93C112.831 109.943 102.18 99.2978 89.1848 99.2978C76.1899 99.2978 65.5383 109.943 65.5383 122.93C65.5383 124.634 65.7513 126.55 66.1774 128.253H54.4607C52.3304 128.253 51.6913 128.253 50.2001 128.04C49.561 128.04 48.9219 128.04 47.6437 127.827C47.0046 127.827 46.5785 127.827 45.7264 127.827C45.3003 127.827 44.8743 127.827 44.4482 127.827C43.3831 127.827 42.744 127.614 42.1049 127.401C41.8918 127.401 41.8918 127.401 41.6788 127.401C41.4658 127.401 41.4658 127.401 41.2528 127.188C41.0397 127.188 40.8267 126.976 40.6137 126.763C40.1876 126.55 39.9746 126.337 39.7615 125.911C39.5485 125.698 39.5485 125.485 39.5485 125.272C39.3355 124.634 39.3355 123.782 39.5485 123.143V122.93V122.717C39.5485 122.505 39.5485 122.292 39.7615 122.292C39.7615 122.079 39.9746 121.866 39.9746 121.866V121.653C39.9746 121.653 39.9746 121.653 39.9746 121.44C39.9746 121.44 40.1876 121.227 40.1876 121.014C40.1876 120.801 40.4006 120.588 40.4006 120.375C40.4006 120.163 40.6137 119.95 40.6137 119.737C40.6137 119.311 40.8267 119.098 40.8267 118.672C40.8267 116.756 40.8267 115.053 40.8267 113.563C40.8267 113.137 40.8267 112.498 40.8267 112.072V111.646C40.8267 111.221 40.8267 111.008 40.8267 110.795V110.582C40.8267 110.156 40.8267 109.73 40.8267 109.517C40.8267 109.091 40.8267 108.666 40.8267 108.24C40.8267 107.814 40.8267 107.601 40.8267 107.175C40.8267 106.75 40.8267 106.537 40.8267 106.111C40.8267 105.898 40.8267 105.472 40.8267 105.259C40.8267 104.833 40.8267 104.408 41.0397 103.769C44.6613 103.769 48.2828 103.982 51.4783 103.343C55.9519 102.279 57.2301 98.6591 58.2952 94.6139C54.0346 94.1881 49.561 94.401 45.3003 94.401C45.7264 93.9752 46.1525 93.3365 46.5785 92.6978C46.7916 92.272 46.5785 92.4849 47.0046 92.272L47.2176 92.0591L58.0822 91.4204H58.5083H59.1474L108.145 88.6526L71.2901 55.0136L70.225 54.1619L59.3604 44.3683C67.8816 44.1554 100.262 74.8137 111.127 81.8396C111.979 81.6267 112.618 81.4138 113.044 81.2009C116.027 79.9235 134.773 70.1298 147.981 64.1685V67.1491C137.117 71.6202 123.483 78.4331 120.287 82.0525Z" fill="url(#paint0_linear_112_486)"/>
<path d="M44.8742 102.066C44.0221 102.066 43.17 102.066 42.3178 102.066C42.9569 99.7239 43.8091 98.4464 45.3003 96.3174C46.5785 96.3174 47.8567 96.3174 49.1348 96.3174C51.6912 96.3174 53.8215 96.3174 55.5258 96.5303C54.4606 99.511 53.1824 101.214 50.413 101.853C49.1348 101.853 47.4306 102.066 44.8742 102.066Z" fill="url(#paint1_linear_112_486)"/>
<path d="M89.1848 103.556C78.5332 103.556 70.012 112.072 70.012 122.717C70.012 133.363 78.5332 141.879 89.1848 141.879C99.8363 141.879 108.358 133.15 108.358 122.717C108.358 112.072 99.8363 103.556 89.1848 103.556ZM100.688 134.427L99.4103 135.705H99.1973C98.9842 135.918 98.5582 136.13 98.1321 136.343L96.6409 137.195C94.2975 138.472 91.7412 139.111 88.9718 139.111C86.2024 139.111 83.646 138.472 81.3026 137.195C80.8766 136.982 80.2375 136.556 79.8114 136.343C79.3854 136.13 78.9593 135.918 78.7463 135.492L77.4681 134.427C75.7638 132.724 74.2726 130.595 73.4205 128.253C72.7814 126.337 72.3553 124.634 72.3553 122.717C72.3553 121.866 72.3553 120.801 72.5684 119.95C72.5684 119.524 72.7814 118.885 72.9944 118.246C72.9944 117.821 73.2075 117.395 73.4205 116.969C73.6335 116.33 73.8466 115.904 74.2726 115.266C76.616 110.582 81.3026 107.175 86.6284 106.324C87.2675 106.324 87.6936 106.111 88.3327 106.111C88.5457 106.111 88.7587 106.111 88.9718 106.111C89.1848 106.111 89.3978 106.111 89.8239 106.111C90.25 106.111 90.889 106.111 91.5281 106.324C96.8539 107.175 101.328 110.369 103.671 115.266C103.884 115.692 104.097 116.117 104.31 116.969C104.523 117.395 104.736 117.821 104.736 118.246C104.949 118.672 104.949 119.311 105.162 119.95C105.375 120.801 105.375 121.653 105.375 122.717C105.375 124.634 105.162 126.55 104.31 128.253C103.884 130.595 102.393 132.724 100.688 134.427Z" fill="url(#paint2_linear_112_486)"/>
<path d="M104.31 120.163C104.31 119.737 104.097 119.098 103.884 118.672C103.884 118.247 103.671 117.821 103.458 117.395C103.245 116.969 103.032 116.33 102.819 115.905C100.688 111.647 96.4278 108.453 91.3151 107.601C90.889 107.601 90.2499 107.388 89.6108 107.388C89.3978 107.388 89.1848 107.388 88.9717 107.388C88.7587 107.388 88.5457 107.388 88.3326 107.388C87.9066 107.388 87.2675 107.388 86.6284 107.601C81.5156 108.453 77.4681 111.434 75.1247 115.905C74.9117 116.33 74.6986 116.969 74.4856 117.395C74.2726 117.821 74.2726 118.247 74.0596 118.672C74.2726 119.098 74.0596 119.524 74.0596 120.163C73.8465 121.014 73.8465 121.866 73.8465 122.718C73.8465 124.634 74.2726 126.337 74.6987 128.04C75.5508 130.169 76.829 132.085 78.3202 133.789L79.5984 134.853C80.0244 135.066 80.2375 135.279 80.6635 135.705C81.0896 135.918 81.5157 136.344 82.1547 136.556C84.2851 137.621 86.6284 138.26 89.1848 138.26C91.7411 138.26 94.0845 137.621 96.2148 136.556L97.706 135.705C98.1321 135.492 98.3451 135.279 98.7712 134.853L99.8363 133.789C101.541 132.298 102.606 130.169 103.458 128.04C104.097 126.337 104.31 124.634 104.31 122.718C104.523 121.866 104.523 121.014 104.31 120.163ZM102.393 117.821C102.606 118.247 102.606 118.46 102.819 118.885L93.8715 121.653L92.1672 122.079C92.1672 121.653 91.9542 121.227 91.7411 121.014L93.4454 120.589L102.393 117.821ZM91.5281 108.879C95.7887 109.517 99.6233 112.285 101.754 116.33L95.1496 118.459L92.5933 119.311L91.5281 119.737V108.879ZM88.5457 108.666C88.7587 108.666 88.9717 108.666 89.1848 108.666H89.8239C89.8239 108.666 89.8239 108.666 90.0369 108.666V119.737C89.8239 119.737 89.6108 119.737 89.3978 119.737C89.1848 119.737 88.9717 119.737 88.7587 119.737V108.666H88.5457ZM89.1848 121.44C90.0369 121.44 90.676 122.079 90.676 122.931C90.676 123.782 90.0369 124.421 89.1848 124.421C88.3326 124.421 87.6936 123.782 87.6936 122.931C87.6936 121.866 88.3326 121.44 89.1848 121.44ZM86.8414 108.879V119.524L85.7763 119.098L83.2199 118.247L76.6159 116.118C78.7462 112.285 82.5808 109.517 86.8414 108.879ZM75.5508 118.885C75.7638 118.46 75.7638 118.034 75.9768 117.821L84.9241 120.801L86.6284 121.227C86.4154 121.653 86.2023 122.079 86.2023 122.505L84.4981 121.866L75.5508 118.885ZM79.1723 132.724C77.8941 131.447 76.829 129.743 76.1899 128.04C75.5508 126.337 75.1247 124.634 75.1247 122.718C75.1247 121.866 75.1247 121.227 75.3377 120.589L81.9417 122.718L84.4981 123.569L85.5632 123.995L84.9241 124.847L83.2199 126.976L82.5808 128.04L79.1723 132.724ZM81.5156 134.427C81.3026 134.427 81.3026 134.427 81.5156 134.427C81.0896 134.214 80.8766 134.002 80.4505 133.576L84.7111 127.827L85.9893 125.911L87.0545 124.634C87.2675 124.847 87.6935 125.06 87.9066 125.272L86.8414 126.976L85.9893 128.04L81.5156 134.427ZM89.1848 136.769C86.8414 136.769 84.7111 136.344 82.7938 135.279L86.8414 129.743L88.1196 128.04L88.5457 127.614L89.1848 126.763L89.8239 127.614L90.2499 128.04L91.5281 129.743L95.5757 135.279C93.6584 136.344 91.5281 136.769 89.1848 136.769ZM97.919 133.789C97.706 134.002 97.28 134.214 97.0669 134.427L92.3802 128.04L91.5281 126.976L90.4629 125.485C90.676 125.272 91.102 125.06 91.3151 124.847L92.3802 126.124L93.6584 128.04L97.919 133.789ZM102.393 128.04C101.754 129.743 100.688 131.234 99.4103 132.724L96.0018 128.04L95.3627 126.976L93.6584 124.847L93.0193 123.995L94.0845 123.569L96.6409 122.718L103.245 120.589C103.245 121.227 103.458 122.079 103.458 122.718C103.245 124.634 103.032 126.337 102.393 128.04Z" fill="url(#paint3_linear_112_486)"/>
<path d="M62.1297 71.8334C62.3428 71.8334 62.3428 71.8334 62.5558 71.8334L59.5734 81.8399C58.7212 80.9883 58.0822 80.1367 57.8691 78.8592C57.4431 79.0721 57.017 79.285 56.3779 79.4979C52.5433 80.7754 49.3479 79.285 47.4306 76.9431C45.5133 77.156 43.596 77.156 41.8918 76.5173C41.2527 76.3044 40.6136 76.0914 39.7615 75.8785C38.6963 75.4527 37.8442 75.2398 36.9921 74.814C33.5836 73.1108 31.0272 69.9172 29.749 66.2978C29.1099 64.1687 28.8969 61.8268 29.3229 59.6977C22.932 58.6332 18.6714 52.6719 18.4584 46.7105C14.4108 45.0073 10.7892 42.0266 8.65893 38.1943C-0.927473 34.5749 -3.69688 17.9683 9.08499 13.9231C10.5762 13.4973 12.0674 13.2844 13.3456 13.2844C15.2629 11.794 17.3932 10.5166 19.9496 9.66498C30.1751 6.4714 41.4657 12.2198 44.6612 22.4393C45.0873 23.9296 45.3003 25.42 45.5133 26.9103C49.7739 30.7426 49.987 38.833 43.596 41.6008C44.2351 43.5169 44.6612 45.4331 44.6612 47.5621C45.5133 47.5621 46.3654 47.775 47.4306 47.9879C48.0697 46.7105 49.3479 45.4331 51.0521 45.0073C57.4431 42.8782 61.2776 50.7557 57.8691 55.0138C58.5082 56.0784 58.9343 57.1429 59.3603 58.2074C59.9994 60.3365 60.2125 62.6784 59.7864 65.0204C61.2776 66.7236 62.1297 69.2785 62.1297 71.8334Z" fill="url(#paint4_linear_112_486)"/>
<path d="M68.0946 88.44C66.1774 89.0787 64.6861 88.44 63.621 87.3755L67.8816 73.3237C69.5858 75.027 70.2249 77.7947 69.1598 79.9238C71.9292 82.0528 72.3553 87.1626 68.0946 88.44Z" fill="url(#paint5_linear_112_486)"/>
<path d="M51.6912 21.1618C47.8566 22.4392 49.7739 28.4005 53.6085 27.336C57.656 26.0586 55.7388 19.8843 51.6912 21.1618Z" fill="url(#paint6_linear_112_486)"/>
<path d="M6.5287 0.722983C0.989895 2.42623 3.7593 10.9424 9.29811 9.23919C14.8369 7.53595 12.0675 -0.980259 6.5287 0.722983Z" fill="url(#paint7_linear_112_486)"/>
<path d="M70.438 57.1429L60.8516 89.2916H59.3604L69.5859 56.2913L69.7989 56.5042L70.438 57.1429Z" fill="url(#paint8_linear_112_486)"/>
<defs>
<linearGradient id="paint0_linear_112_486" x1="93.685" y1="44.3672" x2="93.685" y2="128.253" gradientUnits="userSpaceOnUse">
<stop stop-color="#00679A"/>
<stop offset="1" stop-color="#004D74"/>
</linearGradient>
<linearGradient id="paint1_linear_112_486" x1="48.9218" y1="96.3174" x2="48.9218" y2="102.066" gradientUnits="userSpaceOnUse">
<stop stop-color="#00679A"/>
<stop offset="1" stop-color="#004D74"/>
</linearGradient>
<linearGradient id="paint2_linear_112_486" x1="89.1848" y1="103.556" x2="89.1848" y2="141.879" gradientUnits="userSpaceOnUse">
<stop stop-color="#00679A"/>
<stop offset="1" stop-color="#004D74"/>
</linearGradient>
<linearGradient id="paint3_linear_112_486" x1="89.1581" y1="107.388" x2="89.1581" y2="138.26" gradientUnits="userSpaceOnUse">
<stop stop-color="#00679A"/>
<stop offset="1" stop-color="#004D74"/>
</linearGradient>
<linearGradient id="paint4_linear_112_486" x1="31.5084" y1="8.78223" x2="31.5084" y2="81.8399" gradientUnits="userSpaceOnUse">
<stop stop-color="#00679A"/>
<stop offset="1" stop-color="#004D74"/>
</linearGradient>
<linearGradient id="paint5_linear_112_486" x1="67.445" y1="73.3237" x2="67.445" y2="88.6948" gradientUnits="userSpaceOnUse">
<stop stop-color="#00679A"/>
<stop offset="1" stop-color="#004D74"/>
</linearGradient>
<linearGradient id="paint6_linear_112_486" x1="52.7255" y1="20.9888" x2="52.7255" y2="27.4626" gradientUnits="userSpaceOnUse">
<stop stop-color="#00679A"/>
<stop offset="1" stop-color="#004D74"/>
</linearGradient>
<linearGradient id="paint7_linear_112_486" x1="7.91341" y1="0.499023" x2="7.91341" y2="9.46315" gradientUnits="userSpaceOnUse">
<stop stop-color="#00679A"/>
<stop offset="1" stop-color="#004D74"/>
</linearGradient>
<linearGradient id="paint8_linear_112_486" x1="64.8992" y1="56.2913" x2="64.8992" y2="89.2916" gradientUnits="userSpaceOnUse">
<stop stop-color="#00679A"/>
<stop offset="1" stop-color="#004D74"/>
</linearGradient>
</defs>
</svg>
