<svg width="124" height="125" viewBox="0 0 124 125" fill="none" xmlns="http://www.w3.org/2000/svg">
<path d="M62.1897 0.811035C28.3177 0.598129 0.410645 28.2758 0.410645 62.1277C0.197614 96.1926 27.8917 123.87 61.7636 124.083C95.6356 124.296 123.543 96.6184 123.543 62.7665C123.756 28.7016 96.2747 1.02394 62.1897 0.811035ZM97.9789 99.1733L94.1443 102.793C93.0792 103.644 91.801 104.496 90.5228 105.348C89.0316 106.412 87.3273 107.264 85.8361 108.115C78.5931 111.948 70.4979 113.864 62.1897 113.864H61.9766C53.4554 113.864 45.5732 111.735 38.1172 107.902L33.4305 105.135C32.1523 104.283 31.0871 103.431 30.022 102.793L29.5959 102.58L25.9744 99.3862L25.7614 99.1733C15.9619 89.3797 10.4231 76.3924 10.6361 62.5536C10.6361 59.5729 10.8492 56.8051 11.4883 53.8244C11.7013 51.9083 12.1274 50.2051 12.7664 48.5018C13.1925 47.4373 13.4055 46.1598 13.8316 45.0953L14.0446 44.4566C14.8968 42.3276 15.5359 40.8372 16.388 39.3469C23.8441 24.4435 38.1172 14.2241 54.7336 11.8821C56.4378 11.6692 58.1421 11.4563 60.0594 11.4563C60.6985 11.4563 61.3376 11.4563 61.7636 11.4563C61.7636 11.4563 62.1897 11.4563 62.4027 11.4563C63.2548 11.4563 63.8939 11.4563 64.746 11.6692C66.0242 11.6692 67.7285 11.8821 69.8588 12.095C86.2622 14.6499 100.748 25.0822 108.204 39.9856C109.27 41.9017 109.909 43.605 110.335 45.0953C110.974 46.3727 111.4 47.8631 111.613 49.1406C112.252 51.0567 112.678 52.9729 112.891 54.4632C113.317 57.0181 113.53 59.9987 113.53 62.9794C113.53 76.6054 107.991 89.5926 97.9789 99.1733Z" fill="url(#paint0_linear_112_384)"/>
<path d="M110.761 54.4631C110.548 52.7599 110.122 51.0566 109.696 49.3533C109.27 48.0759 109.057 46.5856 108.417 45.3081C107.778 43.6049 107.139 42.1146 106.287 40.6243C99.2571 26.5725 85.6231 16.353 69.6458 13.7982C67.9415 13.5853 66.2373 13.3723 64.533 13.3723C63.8939 13.3723 63.2549 13.1594 62.4027 13.1594C61.5506 13.1594 60.9115 13.1594 60.2724 13.3723C58.5682 13.3723 56.8639 13.5853 55.1597 13.7982C38.9693 16.1401 25.3353 26.3596 18.3053 40.1984C17.4532 41.6888 16.8141 43.392 16.175 44.8824C15.7489 46.1598 15.3229 47.4372 14.8968 48.7146C14.4707 50.4179 14.0447 52.1211 13.8316 53.8244C13.4056 56.5921 12.9795 59.3599 12.9795 62.1277C12.9795 75.7536 18.5183 88.315 27.4656 97.257L27.6787 97.4699L31.3002 100.664H31.5132C32.5784 101.515 33.6435 102.367 34.7087 103.006L39.1823 105.773C45.9993 109.393 53.6685 111.522 61.9767 111.522C70.2849 111.522 77.954 109.606 84.771 105.986C86.2622 105.135 87.9665 104.283 89.2446 103.431C90.5228 102.58 91.588 101.728 92.6532 101.089L96.4877 97.6829C105.648 88.7408 111.4 76.3923 111.4 62.5535C111.4 59.7857 111.187 57.018 110.761 54.4631ZM104.37 46.7985C104.796 48.0759 105.222 49.3533 105.435 50.4179L77.741 59.3599C77.5279 57.8696 77.1019 56.5922 76.4628 55.3147L104.157 46.3727C104.37 46.5856 104.37 46.7985 104.37 46.7985ZM102.24 41.6888L71.5631 49.3533L69.4328 18.0563C83.4928 20.1853 95.6356 29.1274 102.24 41.6888ZM75.3976 58.7212C75.3976 59.9986 74.3325 61.0631 73.0543 61.0631C71.7761 61.0631 70.7109 59.9986 70.7109 58.7212C70.7109 57.4438 71.7761 56.3792 73.0543 56.3792C74.3325 56.3792 75.3976 57.4438 75.3976 58.7212ZM71.137 71.4955C71.137 72.773 70.0718 73.8374 68.7937 73.8374C67.5155 73.8374 66.4503 72.773 66.4503 71.4955C66.4503 70.2181 67.5155 69.1536 68.7937 69.1536C70.0718 69.1536 71.137 70.2181 71.137 71.4955ZM60.0594 17.4175C60.2724 17.4175 60.4854 17.4175 60.4854 17.4175C60.9115 17.4175 61.3376 17.4175 61.7636 17.4175H62.4027C62.8288 17.4175 63.2549 17.4175 64.107 17.4175V46.3727C63.4679 46.3727 62.6158 46.1598 61.9767 46.1598C61.3376 46.1598 60.4855 46.1598 59.8464 46.3727L60.0594 17.4175ZM61.9767 48.5017C63.2549 48.5017 64.32 49.5663 64.32 50.8437C64.32 52.1211 63.2549 53.1857 61.9767 53.1857C60.6985 53.1857 59.6333 52.1211 59.6333 50.8437C59.6333 49.5663 60.6985 48.5017 61.9767 48.5017ZM61.9767 55.9534C65.5982 55.9534 68.5806 58.9341 68.5806 62.5535C68.5806 66.1729 65.5982 69.1536 61.9767 69.1536C58.3551 69.1536 55.3727 66.1729 55.3727 62.5535C55.5857 58.9341 58.3551 55.9534 61.9767 55.9534ZM55.3727 69.1536C56.6509 69.1536 57.716 70.2181 57.716 71.4955C57.716 72.773 56.6509 73.8374 55.3727 73.8374C54.0945 73.8374 53.0294 72.773 53.0294 71.4955C53.0294 70.2181 54.0945 69.1536 55.3727 69.1536ZM51.3251 61.0631C50.0469 61.0631 48.9818 59.9986 48.9818 58.7212C48.9818 57.4438 50.0469 56.3792 51.3251 56.3792C52.6033 56.3792 53.6685 57.4438 53.6685 58.7212C53.6685 59.9986 52.6033 61.0631 51.3251 61.0631ZM54.9466 17.8434L52.6033 49.1405L21.9268 41.263C28.7438 28.9144 40.8866 19.9724 54.9466 17.8434ZM18.5183 49.9921C18.7314 48.7147 19.3704 47.6501 19.7965 46.3727V46.1598L47.4906 55.3147C46.8515 56.5922 46.4254 57.8696 46.2124 59.3599L18.5183 49.9921ZM29.809 94.0635C21.5008 85.5472 16.8141 74.2633 16.8141 62.3406C16.8141 59.9986 17.0271 57.6567 17.4532 55.3147H17.6662L46.4254 67.2374L29.809 94.0635ZM36.839 100.025C35.5608 99.1732 34.4957 98.5345 33.6435 97.6829L33.4305 97.4699L50.473 74.0504C51.5381 75.1149 52.6033 75.9665 53.8815 76.6053L36.839 100.025ZM61.9767 107.689C54.7336 107.689 47.9166 105.986 41.5257 102.793L61.7636 78.7343L82.2146 103.006C76.0367 106.199 69.0067 107.689 61.9767 107.689ZM90.0968 97.8958C89.0316 98.7474 87.9665 99.3861 86.9013 100.238L69.8588 76.6053C71.137 75.9665 72.2022 75.1149 73.2673 74.0504L90.0968 97.8958ZM94.1444 94.2764L77.741 67.2374L106.926 55.5276C107.352 57.8696 107.565 60.2115 107.352 62.5535C107.139 74.6891 102.453 85.9731 94.1444 94.2764Z" fill="url(#paint1_linear_112_384)"/>
<defs>
<linearGradient id="paint0_linear_112_384" x1="61.9766" y1="0.809814" x2="61.9766" y2="124.084" gradientUnits="userSpaceOnUse">
<stop stop-color="#00679A"/>
<stop offset="1" stop-color="#004D74"/>
</linearGradient>
<linearGradient id="paint1_linear_112_384" x1="62.1897" y1="13.1594" x2="62.1897" y2="111.522" gradientUnits="userSpaceOnUse">
<stop stop-color="#00679A"/>
<stop offset="1" stop-color="#004D74"/>
</linearGradient>
</defs>
</svg>
