<svg width="125" height="130" viewBox="0 0 125 130" fill="none" xmlns="http://www.w3.org/2000/svg">
<path d="M120.417 91.7195C114.452 83.2033 104.013 79.5839 94.6401 82.1388L76.9585 64.4676L73.1239 68.2999L85.0537 80.2227C86.7579 81.9259 86.7579 84.6937 85.0537 86.3969C84.2015 87.2485 83.1364 87.6743 81.8582 87.6743C80.793 87.6743 79.7279 87.2485 78.8758 86.3969L66.946 74.4742L63.1115 78.3065L79.3018 94.4873C75.2542 102.152 75.4673 111.52 80.793 119.184C85.9058 126.423 94.214 130.042 102.522 129.617L91.6576 113.862C90.1664 111.733 90.8055 108.752 92.9358 107.262L104.866 98.9583C106.996 97.468 109.978 98.1067 111.47 100.236L122.334 115.991C125.743 108.113 125.317 98.9583 120.417 91.7195ZM45.0038 41.8997C46.069 41.8997 47.3472 42.3255 47.9863 43.1771L61.1941 56.3773L65.0287 52.545L47.7732 35.2996C51.6078 27.635 51.1817 18.2672 45.8559 10.8155C40.7432 3.57673 32.435 -0.042663 24.1267 0.596053L35.2044 16.3511C36.6956 18.4801 36.2695 21.4608 33.9262 22.9511L21.9964 31.2544C19.8661 32.7448 16.8837 32.319 15.3925 29.977L4.31487 14.222C0.906376 21.6737 1.33244 30.8286 6.44519 38.0674C12.4101 46.5836 23.0616 50.203 32.861 47.4352L51.3948 65.958L55.2293 62.1257L42.0213 48.9256C40.3171 47.2223 40.3171 44.4546 42.0213 42.7513C42.8735 42.3255 43.9387 41.8997 45.0038 41.8997Z" fill="url(#paint0_linear_112_367)"/>
<path d="M58.8507 86.8223C57.9986 87.6739 56.7204 87.6739 55.8683 86.8223L42.4473 73.4093C41.5952 72.5576 41.5952 71.2802 42.4473 70.4286L43.0864 69.7898C43.9385 68.9382 45.2168 68.9382 46.0689 69.7898L59.4898 83.2029C60.3419 84.0545 60.3419 85.332 59.4898 86.1836L58.8507 86.8223Z" fill="url(#paint1_linear_112_367)"/>
<path d="M52.8859 89.8032L23.4876 121.739L19.8661 125.571C18.8009 126.636 17.5228 127.487 16.0315 128.126C14.9664 128.552 13.9012 128.765 12.8361 128.978C12.41 128.978 12.197 128.978 11.7709 128.978C8.78849 128.978 5.80605 127.913 3.67574 125.571C-0.797918 121.1 -0.797918 113.649 3.67574 109.178L7.5103 105.558L39.465 76.1772L52.8859 89.8032Z" fill="url(#paint2_linear_112_367)"/>
<path d="M112.961 21.4605L107.422 30.1897L102.522 32.3187L58.2117 76.603L52.6729 71.0675L96.9834 26.7832L99.1137 21.8863L107.848 16.3508L108.274 16.7766L101.883 22.0993C100.818 23.1638 101.244 25.7187 102.309 26.7832C103.374 27.8477 105.931 28.6993 107.209 27.4219L112.535 20.8218L112.961 21.4605Z" fill="url(#paint3_linear_112_367)"/>
<defs>
<linearGradient id="paint0_linear_112_367" x1="63.3328" y1="0.523926" x2="63.3328" y2="129.65" gradientUnits="userSpaceOnUse">
<stop stop-color="#00679A"/>
<stop offset="1" stop-color="#004D74"/>
</linearGradient>
<linearGradient id="paint1_linear_112_367" x1="50.9686" y1="69.1511" x2="50.9686" y2="87.461" gradientUnits="userSpaceOnUse">
<stop stop-color="#00679A"/>
<stop offset="1" stop-color="#004D74"/>
</linearGradient>
<linearGradient id="paint2_linear_112_367" x1="26.6032" y1="76.1772" x2="26.6032" y2="128.978" gradientUnits="userSpaceOnUse">
<stop stop-color="#00679A"/>
<stop offset="1" stop-color="#004D74"/>
</linearGradient>
<linearGradient id="paint3_linear_112_367" x1="82.8168" y1="16.3508" x2="82.8168" y2="76.603" gradientUnits="userSpaceOnUse">
<stop stop-color="#00679A"/>
<stop offset="1" stop-color="#004D74"/>
</linearGradient>
</defs>
</svg>
