<svg width="110" height="110" viewBox="0 0 110 110" fill="none" xmlns="http://www.w3.org/2000/svg">
<circle cx="55" cy="55" r="55" fill="#515ACB"/>
<g filter="url(#filter0_d_112_229)">
<circle cx="55" cy="55" r="41" fill="white"/>
</g>
<path d="M43.0828 54.9721C43.0828 61.5336 48.4105 66.8613 54.972 66.8613C61.5334 66.8613 66.8611 61.5336 66.8611 54.9721C66.8611 48.4107 61.5334 43.083 54.972 43.083C48.4105 43.0269 43.0828 48.4107 43.0828 54.9721ZM63.272 54.243C63.6645 58.8417 60.2997 62.8795 55.701 63.2721C51.1024 63.6647 47.0646 60.2998 46.672 55.7012C46.2794 51.1025 49.6443 47.0647 54.2429 46.6721C58.8416 46.2795 62.8794 49.6444 63.272 54.243Z" fill="#515ACB"/>
<path d="M71.2915 61.5334L73.2544 61.4774C73.703 61.4774 74.2077 61.0848 74.3199 60.6361L74.9929 57.4956C75.0489 57.047 74.7685 56.4861 74.376 56.3179L72.5814 55.4767C72.1888 55.2524 71.8523 54.7477 71.7963 54.299C71.7963 54.299 71.7962 54.0747 71.7402 53.5139C71.7402 53.3456 71.7402 53.3456 71.7402 53.3456C71.7402 53.1213 72.0206 52.7848 72.4131 52.5605L74.0956 51.495C74.4881 51.2706 74.7125 50.7098 74.6003 50.2612L73.5908 47.2328C73.4226 46.7841 72.9179 46.5037 72.4692 46.5037L70.5064 46.672C70.0578 46.7281 69.4969 46.4477 69.2726 46.1112C69.0483 45.7747 68.6557 44.597 68.8801 44.2044L69.7773 42.4659C70.0017 42.0733 69.8895 41.4565 69.553 41.12L67.1976 38.9889C66.8611 38.7085 66.2442 38.7085 65.8517 38.9328L64.2253 40.0544C63.8328 40.3348 63.2719 40.3909 62.8794 40.1666C62.5429 39.9984 61.5895 39.1572 61.5334 38.7085L61.4774 36.7457C61.4774 36.297 61.0848 35.7923 60.6361 35.6801L57.4956 35.0071C57.047 34.9511 56.4861 35.2315 56.3179 35.6241L55.4767 37.4186C55.2524 37.8112 54.7477 38.1477 54.299 38.2038C54.299 38.2038 54.0747 38.2038 53.5139 38.2598C53.3456 38.2598 53.3456 38.2598 53.3456 38.2598C53.1213 38.2598 52.7848 37.9795 52.5605 37.5869L51.495 35.9045C51.2706 35.5119 50.7098 35.2876 50.2612 35.3997L47.2328 36.4092C46.7842 36.5774 46.5037 37.0821 46.5037 37.5308L46.672 39.4936C46.7281 39.9423 46.4477 40.5031 46.1112 40.7274C45.7747 40.9517 44.597 41.3443 44.2044 41.12L42.4659 40.2227C42.0734 39.9983 41.4565 40.1105 41.12 40.447L38.9889 42.8024C38.7085 43.1389 38.7085 43.7558 38.9328 44.1483L40.0544 45.7747C40.3348 46.1673 40.3909 46.7281 40.1666 47.1207C39.9984 47.4571 39.1571 48.4105 38.7085 48.4666L36.7457 48.5227C36.297 48.5227 35.7923 48.9152 35.6801 49.3639L35.0071 52.5044C34.9511 52.9531 35.2315 53.5139 35.624 53.6821L37.4186 54.5233C37.8112 54.7476 38.1477 55.2524 38.2038 55.701C38.2038 55.701 38.2038 55.9253 38.2599 56.4861C38.2599 56.6544 38.2599 56.6544 38.2599 56.6544C38.2599 56.8787 37.9794 57.2152 37.5869 57.4395L35.9044 58.5051C35.5119 58.7294 35.2876 59.2902 35.3997 59.7389L36.4092 62.7672C36.5774 63.2159 37.0821 63.4963 37.5308 63.4963L39.4936 63.328C39.9423 63.2719 40.5031 63.5523 40.7274 63.8888C40.9517 64.2253 41.3443 65.403 41.12 65.7956L40.2227 67.5341C39.9984 67.9267 40.1105 68.5436 40.447 68.8801L42.8024 71.0111C43.1389 71.2915 43.7558 71.2915 44.1484 71.0672L45.7747 69.9456C46.1673 69.6652 46.7281 69.6091 47.1206 69.8334C47.4571 70.0017 48.4105 70.8429 48.4666 71.2915L48.5227 73.2544C48.5227 73.703 48.9152 74.2077 49.3639 74.3199L52.5044 74.9929C52.9531 75.0489 53.5139 74.7685 53.6821 74.376L54.5233 72.5814C54.7477 72.1888 55.2524 71.8523 55.701 71.7963C55.701 71.7963 55.9254 71.7962 56.4862 71.7402C56.6544 71.7402 56.6544 71.7402 56.6544 71.7402C56.8787 71.7402 57.2152 72.0206 57.4395 72.4131L58.5051 74.0956C58.7294 74.4881 59.2902 74.7125 59.7388 74.6003L62.7672 73.5908C63.2159 73.4226 63.4963 72.9179 63.4963 72.4692L63.328 70.5064C63.2719 70.0577 63.5523 69.4969 63.8888 69.2726C64.2253 69.0483 65.403 68.6557 65.7956 68.8801L67.5341 69.7773C67.9267 70.0017 68.5436 69.8895 68.8801 69.553L71.0111 67.1976C71.2915 66.8611 71.2915 66.2442 71.0672 65.8517L69.9456 64.2253C69.6652 63.8328 69.6091 63.2719 69.8334 62.8794C70.0017 62.5429 70.8429 61.5334 71.2915 61.5334ZM54.972 68.5435C47.5132 68.5435 41.4004 62.4307 41.4004 54.972C41.4004 47.5132 47.5132 41.4004 54.972 41.4004C62.4307 41.4004 68.5436 47.5132 68.5436 54.972C68.5436 62.4307 62.4307 68.5435 54.972 68.5435Z" fill="#515ACB"/>
<defs>
<filter id="filter0_d_112_229" x="10" y="14" width="90" height="90" filterUnits="userSpaceOnUse" color-interpolation-filters="sRGB">
<feFlood flood-opacity="0" result="BackgroundImageFix"/>
<feColorMatrix in="SourceAlpha" type="matrix" values="0 0 0 0 0 0 0 0 0 0 0 0 0 0 0 0 0 0 127 0" result="hardAlpha"/>
<feOffset dy="4"/>
<feGaussianBlur stdDeviation="2"/>
<feComposite in2="hardAlpha" operator="out"/>
<feColorMatrix type="matrix" values="0 0 0 0 0 0 0 0 0 0 0 0 0 0 0 0 0 0 0.25 0"/>
<feBlend mode="normal" in2="BackgroundImageFix" result="effect1_dropShadow_112_229"/>
<feBlend mode="normal" in="SourceGraphic" in2="effect1_dropShadow_112_229" result="shape"/>
</filter>
</defs>
</svg>
