<svg width="122" height="129" viewBox="0 0 122 129" fill="none" xmlns="http://www.w3.org/2000/svg">
<path d="M116.821 21.0583C117.034 21.0583 117.247 21.0583 117.674 21.0583H116.821ZM117.248 23.1874H117.674V22.9745L117.248 23.1874Z" fill="url(#paint0_linear_112_523)"/>
<path d="M118.952 21.2713C118.739 21.2713 118.313 21.0583 118.1 21.0583H117.674C117.461 21.0583 117.248 21.0583 116.821 21.0583H73.7891C71.6588 21.0583 69.9546 22.7616 69.9546 24.8906V124.317C69.9546 126.446 71.6588 128.15 73.7891 128.15H118.1C118.313 128.15 118.739 128.15 118.952 128.15C120.656 127.724 121.934 126.234 121.934 124.53V24.8906C121.934 23.1874 120.656 21.6971 118.952 21.2713ZM103.401 23.1874H117.248L117.674 22.9745V23.1874H117.248L103.401 28.0842V23.1874ZM74.8543 23.1874H88.7013V28.0842L74.8543 23.1874ZM74.2152 25.9552L88.7013 31.0649V41.2844L74.2152 36.1746V25.9552ZM74.2152 39.3682L88.7013 44.4779V54.4845L74.2152 49.3748V39.3682ZM74.2152 52.3554L88.7013 57.4652V67.6846L74.2152 62.5749V52.3554ZM74.2152 65.5556L88.7013 70.6653V80.8848L74.2152 75.775V65.5556ZM74.2152 78.7557L88.7013 83.8654V94.0849L74.2152 88.9751V78.7557ZM74.2152 91.9558L88.7013 97.0656V107.285L74.2152 102.175V91.9558ZM74.2152 105.156L88.7013 110.266V120.485L74.2152 115.375V105.156ZM74.2152 125.595V118.356L88.7013 123.466V125.595H74.2152ZM91.4707 125.595V23.1874H94.8793V125.595H91.4707ZM100.418 125.595H97.0096V23.1874H100.418V125.595ZM117.674 125.595H103.187V123.466L117.674 118.356V125.595ZM117.674 115.375L103.187 120.485V110.266L117.674 105.156V115.375ZM117.674 102.175L103.187 107.285V97.0656L117.674 91.9558V102.175ZM117.674 88.9751L103.187 94.0849V83.8654L117.674 78.7557V88.9751ZM117.674 75.775L103.187 80.8848V70.6653L117.674 65.5556V75.775ZM117.674 62.5749L103.187 67.6846V57.4652L117.674 52.3554V62.5749ZM117.674 49.3748L103.187 54.4845V44.265L117.674 39.1553V49.3748ZM117.674 36.1746L103.187 41.2844V31.0649L117.674 25.9552V36.1746Z" fill="url(#paint1_linear_112_523)"/>
<path d="M67.8241 42.7749H64.2025V106.434H67.8241V42.7749Z" fill="url(#paint2_linear_112_523)"/>
<path d="M62.0721 66.1943V83.0139H0.932251V66.1943H27.5611C27.9872 67.4718 28.4132 68.5363 29.2654 69.3879C30.7566 71.0912 32.6739 72.1557 34.8042 72.1557C38.2127 72.1557 41.1951 69.6008 42.0472 66.1943H62.0721Z" fill="url(#paint3_linear_112_523)"/>
<path d="M40.5563 5.94228H29.4787C29.9047 2.7487 32.2481 0.406738 35.0175 0.406738C36.5087 0.406738 37.9999 1.25836 38.852 2.32289C39.9172 3.38742 40.3433 4.66485 40.5563 5.94228Z" fill="url(#paint4_linear_112_523)"/>
<path d="M40.5559 62.1492V63.4266C40.5559 67.046 37.9996 70.0267 35.0171 70.0267C33.5259 70.0267 32.0347 69.388 30.9695 68.1105C29.9044 66.8331 29.2653 65.3427 29.2653 63.4266V62.1492H40.5559Z" fill="url(#paint5_linear_112_523)"/>
<path d="M44.3907 19.5682H39.0649L44.8168 21.6972C45.0298 21.6972 45.0298 21.9101 45.2428 21.9101C46.0949 22.3359 46.7341 23.1876 46.7341 24.0392C46.7341 25.3166 45.6689 26.3811 44.3907 26.3811H39.0649L44.8168 28.5102C45.0298 28.5102 45.0298 28.7231 45.2428 28.7231C46.0949 29.1489 46.7341 29.7876 46.7341 30.8522C46.7341 32.1296 45.6689 33.1941 44.3907 33.1941H39.0649L44.8168 35.3232C45.0298 35.3232 45.2428 35.5361 45.2428 35.5361C46.0949 35.9619 46.7341 36.8135 46.7341 37.6651C46.7341 38.9426 45.6689 40.0071 44.3907 40.0071H39.0649L44.8168 42.1361C45.0298 42.1361 45.0298 42.349 45.2428 42.349C46.0949 42.5619 46.7341 43.6265 46.7341 44.4781C46.7341 45.7555 45.6689 46.8201 44.3907 46.8201H39.0649L44.8168 48.9491C45.0298 48.9491 45.0298 49.162 45.2428 49.162C46.0949 49.5878 46.7341 50.4394 46.7341 51.2911C46.7341 52.5685 45.6689 53.633 44.3907 53.633H39.0649L44.8168 55.7621C45.0298 55.7621 45.0298 55.975 45.2428 55.975C46.0949 56.4008 46.7341 57.2524 46.7341 58.104C46.7341 59.3815 45.6689 60.446 44.3907 60.446H25.0049C23.7267 60.446 22.6615 59.3815 22.6615 58.104C22.6615 56.8266 23.7267 55.7621 25.0049 55.7621H31.1827L25.2179 53.633H25.0049C23.7267 53.633 22.6615 52.5685 22.6615 51.2911C22.6615 50.0136 23.7267 48.9491 25.0049 48.9491H31.1827L25.4309 46.8201H25.2179C23.9397 46.8201 22.8745 45.7555 22.8745 44.4781C22.8745 43.2007 23.9397 42.1361 25.2179 42.1361H31.3958L25.4309 40.0071H25.2179C23.9397 40.0071 22.8745 38.9426 22.8745 37.6651C22.8745 36.3877 23.9397 35.3232 25.2179 35.3232H31.3958L25.644 33.1941H25.4309C24.1528 33.1941 23.0876 32.1296 23.0876 30.8522C23.0876 29.5747 24.1528 28.5102 25.4309 28.5102H31.6088L25.857 26.3811H25.644C24.3658 26.3811 23.3006 25.3166 23.3006 24.0392C23.3006 22.7618 24.3658 21.6972 25.644 21.6972H31.8219L25.857 19.5682H25.644C24.3658 19.5682 23.3006 18.5036 23.3006 17.2262C23.3006 15.9488 24.3658 14.8843 25.644 14.8843H31.8219L26.07 12.7552H25.857C24.5788 12.7552 23.5137 11.6907 23.5137 10.4132C23.5137 9.13581 24.5788 8.07129 25.857 8.07129H45.2428C46.521 8.07129 47.5862 9.13581 47.5862 10.4132C47.5862 11.6907 46.521 12.7552 45.2428 12.7552H39.0649L44.8168 14.8843C45.0298 14.8843 45.0298 15.0972 45.2428 15.0972C46.0949 15.523 46.7341 16.1617 46.7341 17.2262C46.7341 18.5036 45.6689 19.5682 44.3907 19.5682Z" fill="url(#paint6_linear_112_523)"/>
<path d="M74.6414 23.1863H74.2152V22.9744L74.6414 23.1863Z" fill="url(#paint7_linear_112_523)"/>
<path d="M117.673 22.9744V23.1863H117.247L117.673 22.9744Z" fill="url(#paint8_linear_112_523)"/>
<defs>
<linearGradient id="paint0_linear_112_523" x1="95.9444" y1="21.0583" x2="95.9444" y2="23.1874" gradientUnits="userSpaceOnUse">
<stop stop-color="#00679A"/>
<stop offset="1" stop-color="#004D74"/>
</linearGradient>
<linearGradient id="paint1_linear_112_523" x1="95.9444" y1="21.0583" x2="95.9444" y2="128.15" gradientUnits="userSpaceOnUse">
<stop stop-color="#00679A"/>
<stop offset="1" stop-color="#004D74"/>
</linearGradient>
<linearGradient id="paint2_linear_112_523" x1="66.0133" y1="42.7749" x2="66.0133" y2="106.434" gradientUnits="userSpaceOnUse">
<stop stop-color="#00679A"/>
<stop offset="1" stop-color="#004D74"/>
</linearGradient>
<linearGradient id="paint3_linear_112_523" x1="31.5022" y1="66.1943" x2="31.5022" y2="83.0139" gradientUnits="userSpaceOnUse">
<stop stop-color="#00679A"/>
<stop offset="1" stop-color="#004D74"/>
</linearGradient>
<linearGradient id="paint4_linear_112_523" x1="35.0175" y1="0.406738" x2="35.0175" y2="5.94228" gradientUnits="userSpaceOnUse">
<stop stop-color="#00679A"/>
<stop offset="1" stop-color="#004D74"/>
</linearGradient>
<linearGradient id="paint5_linear_112_523" x1="34.9106" y1="62.1492" x2="34.9106" y2="70.0267" gradientUnits="userSpaceOnUse">
<stop stop-color="#00679A"/>
<stop offset="1" stop-color="#004D74"/>
</linearGradient>
<linearGradient id="paint6_linear_112_523" x1="35.1238" y1="8.07129" x2="35.1238" y2="60.446" gradientUnits="userSpaceOnUse">
<stop stop-color="#00679A"/>
<stop offset="1" stop-color="#004D74"/>
</linearGradient>
<linearGradient id="paint7_linear_112_523" x1="74.4283" y1="22.9744" x2="74.4283" y2="23.1863" gradientUnits="userSpaceOnUse">
<stop stop-color="#00679A"/>
<stop offset="1" stop-color="#004D74"/>
</linearGradient>
<linearGradient id="paint8_linear_112_523" x1="117.46" y1="22.9744" x2="117.46" y2="23.1863" gradientUnits="userSpaceOnUse">
<stop stop-color="#00679A"/>
<stop offset="1" stop-color="#004D74"/>
</linearGradient>
</defs>
</svg>
