<svg width="90" height="142" viewBox="0 0 90 142" fill="none" xmlns="http://www.w3.org/2000/svg">
<path d="M67.4565 85.3303C64.4741 91.2917 55.5268 95.5498 45.0883 95.5498C34.2237 95.5498 25.0633 90.8659 22.507 84.6916L27.4067 82.9884V74.2593C32.7325 78.9432 39.1234 81.498 45.5144 81.498C51.6923 81.498 57.6571 79.369 62.7699 75.1109V83.4142L67.4565 85.3303Z" fill="url(#paint0_linear_112_372)"/>
<path d="M78.3212 37.0006L74.6997 35.9361H74.4867C74.0606 35.7232 73.4215 35.5103 71.7173 35.2974L69.5869 38.7039V38.9168L69.1609 39.5555C68.9479 39.7684 68.7348 40.1942 68.7348 40.4071C67.4566 42.3233 66.3915 43.3878 63.4091 43.3878H62.5569L62.1309 43.1749C61.2787 42.7491 55.5269 41.8974 45.7275 41.8974C36.3541 41.8974 30.3892 42.7491 29.3241 43.1749L28.898 43.3878H28.0459C25.0634 43.3878 23.9983 42.3233 22.7201 40.4071C22.5071 40.1942 22.5071 39.9813 22.2941 39.7684L22.081 39.3426V39.1297L19.9507 35.7232C18.4595 35.9361 17.6073 36.149 17.1813 36.3619H16.9683L13.5598 37.0006C12.7077 39.1297 12.2816 42.1103 12.7077 45.091C13.3468 49.1362 15.264 52.5427 17.3943 53.8202C17.6074 54.0331 17.8204 54.0331 18.0335 54.246C19.7377 61.2719 23.3592 67.4461 27.8328 71.9171C32.7325 76.8139 39.1235 79.7946 45.9405 79.7946C52.3314 79.7946 58.2963 77.2397 63.196 72.7687C68.3088 68.2977 71.9303 61.6977 73.8476 54.246C76.1909 53.3944 78.3212 49.775 79.1733 45.3039C79.3864 41.8975 79.1734 39.1297 78.3212 37.0006ZM77.043 44.6652C76.4039 48.7105 74.4867 51.4782 72.9955 52.1169L71.9303 52.5427L71.7173 53.6072C70.013 60.6331 66.3915 66.8074 61.4918 71.2784C56.8051 75.5365 51.2663 77.8784 45.5145 77.8784C39.3366 77.8784 33.5847 75.3236 28.685 70.4267C24.4244 66.1686 21.2289 60.2073 19.5246 53.6072L19.3116 52.5427L18.2464 52.1169C18.2464 52.1169 18.2465 52.1169 18.0335 51.904C16.5422 51.0524 14.838 48.4975 14.4119 44.6652C13.9858 42.3233 14.1989 40.1942 14.6249 38.4909L17.1813 38.0652H17.3943C17.6074 38.0652 17.8204 37.8523 18.4595 37.8523L19.9507 39.9813L20.1638 40.4071L20.3767 40.62L21.0159 41.4717C22.5071 43.6007 23.9983 45.5169 28.0459 45.5169H29.5371L30.3892 45.091C31.0283 44.8781 36.1411 44.0265 45.7275 44.0265C55.3139 44.0265 60.4266 44.8781 61.2787 45.091L62.1309 45.5169H63.6221C67.6697 45.5169 69.1609 43.8136 70.6521 41.6845L71.5042 40.4071L71.7173 39.9813L73.2085 37.8523C73.8476 38.0652 74.0606 38.0652 74.2737 38.0652H74.4867L77.043 38.7039C77.2561 40.4071 77.2561 42.5362 77.043 44.6652Z" fill="url(#paint1_linear_112_372)"/>
<path d="M0.777741 126.208H0.990786H17.8202V111.517H72.9953V126.208H89.8247V141.537H0.564697V126.208H0.777741Z" fill="url(#paint2_linear_112_372)"/>
<path d="M2.69507 87.6721V124.292H15.69V83.627L2.69507 87.6721ZM9.29905 122.163C6.9557 122.163 5.03842 120.247 5.03842 117.905C5.03842 115.563 6.9557 113.647 9.29905 113.647C11.6424 113.647 13.5597 115.563 13.5597 117.905C13.5597 120.247 11.6424 122.163 9.29905 122.163Z" fill="url(#paint3_linear_112_372)"/>
<path d="M75.1255 83.627V124.292H88.1204V87.6721L75.1255 83.627ZM81.7295 122.163C79.3861 122.163 77.4688 120.247 77.4688 117.905C77.4688 115.563 79.3861 113.647 81.7295 113.647C84.0728 113.647 85.9901 115.563 85.9901 117.905C85.9901 120.247 84.0728 122.163 81.7295 122.163Z" fill="url(#paint4_linear_112_372)"/>
<path d="M76.1907 22.7359V34.8715C76.1907 34.2328 74.4865 33.807 71.291 33.3812C71.078 33.3812 71.078 33.3812 70.865 33.3812L67.8825 37.8522C65.9653 40.62 65.7522 41.4716 63.4089 41.4716H62.9828C61.2785 40.62 54.2486 39.9812 45.7273 39.9812C37.2061 39.9812 30.176 40.62 28.4718 41.4716H28.0457C25.4893 41.4716 25.2763 40.8329 23.572 37.8522L20.5896 33.3812C20.3766 33.3812 20.3766 33.3812 20.1636 33.3812C17.1811 33.807 15.2638 34.2328 15.2638 34.8715V22.7359C15.2638 9.32286 28.8979 0.380834 45.7273 0.380834C62.5568 0.167929 76.1907 9.32286 76.1907 22.7359Z" fill="url(#paint5_linear_112_372)"/>
<defs>
<linearGradient id="paint0_linear_112_372" x1="44.9817" y1="74.2593" x2="44.9817" y2="95.5498" gradientUnits="userSpaceOnUse">
<stop stop-color="#00679A"/>
<stop offset="1" stop-color="#004D74"/>
</linearGradient>
<linearGradient id="paint1_linear_112_372" x1="45.8954" y1="35.2974" x2="45.8954" y2="79.7946" gradientUnits="userSpaceOnUse">
<stop stop-color="#00679A"/>
<stop offset="1" stop-color="#004D74"/>
</linearGradient>
<linearGradient id="paint2_linear_112_372" x1="45.1947" y1="111.517" x2="45.1947" y2="141.537" gradientUnits="userSpaceOnUse">
<stop stop-color="#00679A"/>
<stop offset="1" stop-color="#004D74"/>
</linearGradient>
<linearGradient id="paint3_linear_112_372" x1="9.19252" y1="83.627" x2="9.19252" y2="124.292" gradientUnits="userSpaceOnUse">
<stop stop-color="#00679A"/>
<stop offset="1" stop-color="#004D74"/>
</linearGradient>
<linearGradient id="paint4_linear_112_372" x1="81.6229" y1="83.627" x2="81.6229" y2="124.292" gradientUnits="userSpaceOnUse">
<stop stop-color="#00679A"/>
<stop offset="1" stop-color="#004D74"/>
</linearGradient>
<linearGradient id="paint5_linear_112_372" x1="45.7273" y1="0.377197" x2="45.7273" y2="41.4716" gradientUnits="userSpaceOnUse">
<stop stop-color="#00679A"/>
<stop offset="1" stop-color="#004D74"/>
</linearGradient>
</defs>
</svg>
