<svg width="130" height="70" viewBox="0 0 130 70" fill="none" xmlns="http://www.w3.org/2000/svg">
<path d="M48.0181 53.563C48.2515 53.563 48.3682 53.563 48.4849 52.5127H91.5455C90.7287 52.7461 89.7951 53.0962 89.0949 53.563H48.0181Z" fill="url(#paint0_linear_112_556)"/>
<path d="M99.131 53.5638H118.269C118.619 53.5638 118.852 54.7308 118.852 55.1975C118.852 55.6643 118.619 56.8313 118.269 56.8313H102.282C101.582 55.5477 100.415 54.3807 99.131 53.5638Z" fill="url(#paint1_linear_112_556)"/>
<path d="M0.0562999 50.7625L0.173038 51.5794C0.873211 55.7804 4.49073 59.0479 8.80846 59.0479H20.478C21.5283 55.0802 25.1458 52.1629 29.5802 52.1629C33.898 52.1629 37.5156 55.0802 38.6825 59.0479H40.1996C42.5335 59.0479 44.7507 57.9976 46.2677 56.8307H86.0609C86.8777 55.547 87.928 54.3801 89.2117 53.5632H48.1348C48.3682 53.5632 48.485 53.5632 48.6017 52.5129H91.6622C92.4791 52.2796 93.296 52.1629 94.2296 52.1629C95.1631 52.1629 95.98 52.2796 96.7969 52.5129H120.486V45.978H129.238V0H51.519V44.8111H49.3018V23.6892C49.3018 20.1883 46.9679 17.0375 43.9338 15.7539C39.6161 13.6534 29.2302 17.9711 17.3272 27.6568C5.19089 37.4592 -0.643873 45.978 0.0562999 50.7625ZM9.85875 35.4754C9.85875 35.4754 23.5121 21.5887 31.9141 18.9047C31.9141 18.9047 36.1152 18.3212 36.1152 23.8059L35.5317 39.093L9.62534 39.3264C9.62534 39.3264 7.05806 38.3928 9.85875 35.4754ZM0.873182 49.7122C0.873182 46.7948 2.39025 44.4609 4.25738 44.4609C6.12451 44.4609 7.6415 46.7948 7.6415 49.7122C7.6415 52.6296 6.12451 54.9635 4.25738 54.9635C2.39025 54.8468 0.873182 52.5129 0.873182 49.7122Z" fill="url(#paint2_linear_112_556)"/>
<path d="M85.7109 61.4978C85.7109 66.1656 89.4452 69.8999 94.113 69.8999C98.7808 69.8999 102.515 66.1656 102.515 61.4978C102.515 56.83 98.7808 53.0957 94.113 53.0957C89.5619 53.0957 85.7109 56.83 85.7109 61.4978ZM90.262 61.4978C90.262 59.3973 92.0125 57.6469 94.113 57.6469C96.2135 57.6469 97.9639 59.3973 97.9639 61.4978C97.9639 63.5983 96.2135 65.3487 94.113 65.3487C92.0125 65.3487 90.262 63.5983 90.262 61.4978Z" fill="url(#paint3_linear_112_556)"/>
<path d="M21.1782 61.4978C21.1782 66.1656 24.9124 69.8999 29.5802 69.8999C34.248 69.8999 37.9823 66.1656 37.9823 61.4978C37.9823 56.83 34.248 53.0957 29.5802 53.0957C24.9124 53.0957 21.1782 56.83 21.1782 61.4978ZM25.7293 61.4978C25.7293 59.3973 27.4797 57.6469 29.5802 57.6469C31.6807 57.6469 33.4312 59.3973 33.4312 61.4978C33.4312 63.5983 31.6807 65.3487 29.5802 65.3487C27.4797 65.3487 25.7293 63.5983 25.7293 61.4978Z" fill="url(#paint4_linear_112_556)"/>
<defs>
<linearGradient id="paint0_linear_112_556" x1="69.7818" y1="52.5127" x2="69.7818" y2="53.563" gradientUnits="userSpaceOnUse">
<stop stop-color="#00679A"/>
<stop offset="1" stop-color="#004D74"/>
</linearGradient>
<linearGradient id="paint1_linear_112_556" x1="108.992" y1="53.5638" x2="108.992" y2="56.8313" gradientUnits="userSpaceOnUse">
<stop stop-color="#00679A"/>
<stop offset="1" stop-color="#004D74"/>
</linearGradient>
<linearGradient id="paint2_linear_112_556" x1="64.6191" y1="0" x2="64.6191" y2="59.0479" gradientUnits="userSpaceOnUse">
<stop stop-color="#00679A"/>
<stop offset="1" stop-color="#004D74"/>
</linearGradient>
<linearGradient id="paint3_linear_112_556" x1="94.113" y1="53.0957" x2="94.113" y2="69.8999" gradientUnits="userSpaceOnUse">
<stop stop-color="#00679A"/>
<stop offset="1" stop-color="#004D74"/>
</linearGradient>
<linearGradient id="paint4_linear_112_556" x1="29.5802" y1="53.0957" x2="29.5802" y2="69.8999" gradientUnits="userSpaceOnUse">
<stop stop-color="#00679A"/>
<stop offset="1" stop-color="#004D74"/>
</linearGradient>
</defs>
</svg>
