<svg width="111" height="69" viewBox="0 0 111 69" fill="none" xmlns="http://www.w3.org/2000/svg">
<path d="M0 50.0329C0 60.0789 8.14535 68.2242 18.1913 68.2242C28.2372 68.2242 36.3826 60.0789 36.3826 50.0329C36.3826 44.1954 33.5317 38.9009 29.3233 35.6428L35.7038 23.0175C44.9352 27.3617 51.4515 36.7289 51.4515 47.5893C51.4515 48.2681 51.4515 48.6754 51.3157 49.3542C51.8588 49.4899 52.4018 49.3542 52.9448 49.3542H69.507C71.4076 49.3542 73.0367 48.6754 74.1228 47.3178C73.987 48.1324 73.8512 49.2184 73.8512 50.1687C73.8512 60.2146 81.9966 68.36 92.0425 68.36C102.088 68.36 110.234 60.2146 110.234 50.1687C110.234 40.1227 102.088 31.9774 92.0425 31.9774C85.3905 31.9774 79.553 35.5071 76.4306 40.8015L71.5434 38.3579L99.7806 23.832H105.754C107.926 23.832 109.555 22.0672 109.555 20.0309C109.555 17.8588 107.79 16.2297 105.754 16.2297H102.496C99.9164 20.0309 90.685 21.6599 79.553 21.6599C67.335 21.6599 57.4248 18.9448 56.0672 15.4152C54.4381 13.5146 51.9945 12.4285 49.2794 12.4285C46.157 12.4285 43.3061 13.6503 41.6771 16.2297H40.9983L46.9716 3.33288C47.5146 2.11108 46.9715 0.753514 45.7497 0.21049C44.5279 -0.332534 42.8989 0.210502 42.3558 1.43231L35.9753 15.2794L34.7535 16.2297H33.8032C31.7669 16.2297 29.5948 15.6867 27.4227 15.6867C18.1913 15.6867 10.1817 20.7096 5.70173 28.0405C10.5889 23.4248 17.1053 20.5739 24.4361 20.5739C27.1512 20.5739 29.8663 20.9812 32.3099 21.7957L26.2009 33.7422C23.7573 32.6562 21.1779 31.9774 18.3271 31.9774C8.14536 31.8416 0 39.987 0 50.0329ZM105.075 49.2184H98.6946C98.6946 47.8608 98.2873 46.7748 97.6085 45.8245L102.088 41.2088C103.853 43.5167 105.075 46.639 105.075 49.2184ZM101.681 58.4498L96.794 53.5626C97.6085 52.7481 98.1516 51.662 98.4231 50.4402H104.939C104.804 54.2414 103.582 56.4135 101.681 58.4498ZM92.3141 55.7347C93.5359 55.5989 94.6219 55.3274 95.4364 54.7844L100.324 59.8074C98.1516 61.708 96.1152 62.9298 92.3141 63.2013V55.7347ZM92.3141 36.8646C96.1152 37.1361 98.5588 38.4937 100.731 40.53L96.1152 45.01C95.1649 44.0597 94.7577 43.5166 92.1783 43.3809V36.8646H92.3141ZM82.2681 41.2088L86.3408 45.2815L81.0463 42.8379C81.4536 42.2949 81.8609 41.7518 82.2681 41.2088ZM91.0923 43.3809C89.8705 43.5166 88.6486 44.1954 87.8341 45.1457L82.8111 40.2585C85.119 38.2222 88.6486 37.0004 91.228 36.8646V43.3809H91.0923ZM83.2184 59.9431L88.5129 54.5129C89.3274 55.0559 91.0923 55.4632 91.0923 55.5989V63.0655C88.5129 63.0655 85.3905 61.8437 83.2184 59.9431ZM78.8742 50.4402H86.4765C86.748 51.662 87.2911 52.6123 87.9698 53.4268L82.5396 58.8571C80.5033 56.685 79.1457 54.2414 78.8742 50.4402ZM78.8742 49.2184C78.8742 47.9966 79.1457 47.0463 79.4172 45.9603L86.205 49.2184H78.8742ZM27.287 40.53L26.0651 41.7518L26.8797 40.2585C27.0154 40.3943 27.1512 40.53 27.287 40.53ZM31.2239 49.2184H24.8433C24.8433 47.9966 24.4361 47.0463 23.8931 46.096L24.3003 45.2815L28.2372 41.2088C30.0021 43.5167 31.2239 46.639 31.2239 49.2184ZM27.83 58.4498L22.9428 53.5626C23.7573 52.7481 24.3003 51.662 24.5718 50.4402H31.0881C30.9524 54.2414 29.7306 56.4135 27.83 58.4498ZM18.5985 55.7347C19.8203 55.5989 20.9064 55.3274 21.721 54.7844L26.6082 59.8074C24.4361 61.708 22.3997 62.9298 18.5985 63.2013V55.7347ZM18.5985 36.8646C21.1779 37.0004 21.9925 37.4076 23.4858 38.0864L20.4992 43.6524C19.9561 43.3809 19.9561 43.3809 18.5985 43.2451V36.8646ZM8.41685 40.9373L13.4398 45.9603C12.7611 46.9106 12.4895 47.8608 12.4895 49.2184H5.15871C5.15871 46.639 6.38051 43.1094 8.41685 40.9373ZM17.241 43.3809C16.0192 43.5166 14.7974 44.1954 13.8471 45.1457L8.82414 40.2585C11.132 38.2222 14.6616 37.0004 17.241 36.8646V43.3809ZM9.36715 59.9431L14.6616 54.5129C15.4762 55.0559 17.241 55.4632 17.241 55.5989V63.0655C14.7974 63.0655 11.675 61.8437 9.36715 59.9431ZM5.02295 50.4402H12.6253C12.8968 51.662 13.4398 52.6123 14.1186 53.4268L8.68837 58.8571C6.65203 56.685 5.29446 54.2414 5.02295 50.4402Z" fill="url(#paint0_linear_112_543)"/>
<defs>
<linearGradient id="paint0_linear_112_543" x1="55.1169" y1="0" x2="55.1169" y2="68.36" gradientUnits="userSpaceOnUse">
<stop stop-color="#00679A"/>
<stop offset="1" stop-color="#004D74"/>
</linearGradient>
</defs>
</svg>
