<svg width="145" height="45" viewBox="0 0 145 45" fill="none" xmlns="http://www.w3.org/2000/svg">
<path d="M136.839 34.5996C136.839 33.8906 137.406 33.3234 138.115 33.3234H144.354C144.638 32.0471 144.779 31.48 144.779 30.7709C144.779 28.5021 143.503 26.2333 141.66 25.2407C142.794 23.8227 143.503 21.6956 143.503 19.8522V19.1432C143.503 14.6055 139.816 12.0531 135.137 12.0531H127.48C120.673 6.80648 103.799 0.567198 103.799 0.567198L58.1387 0L40.2717 11.2023L10.0679 16.3072L9.50071 16.449C7.09008 17.158 5.24666 19.4268 5.24666 22.121C5.24666 22.83 5.38846 23.539 5.67207 24.1063C2.55243 24.2481 0 27.5095 0 30.6291C0 31.3381 0.141806 31.9054 0.425409 33.1816H6.66468C7.37369 33.1816 7.94089 33.7488 7.94089 34.4578C7.94089 35.1668 7.37369 35.734 6.66468 35.734H2.26883C3.26144 35.734 4.53765 37.0102 5.95567 37.0102H22.4047C22.2629 35.734 22.1211 34.8832 22.1211 34.0324C22.1211 27.3677 27.5095 21.6957 34.1742 21.6957C40.8389 21.6957 46.2273 27.5095 46.2273 34.1742C46.2273 35.025 46.0855 35.5922 45.9437 37.0102H96.7087C96.5669 35.734 96.4251 34.8832 96.4251 34.0324C96.4251 27.3677 101.814 21.6957 108.478 21.6957C115.143 21.6957 120.531 27.5095 120.531 34.1742C120.531 35.025 120.39 35.5922 120.248 37.0102H138.682C140.1 37.0102 141.376 35.734 142.369 35.734H137.973C137.548 36.0176 136.839 35.4504 136.839 34.5996ZM138.257 18.8596L142.794 19.0014C142.936 23.3973 141.518 24.8153 141.518 24.8153L138.257 24.6735V18.8596ZM9.78432 25.3825H6.23927C4.67946 18.7178 10.0679 18.2924 10.0679 18.2924L9.78432 25.3825ZM45.0929 11.2023C45.0929 11.2023 56.7207 1.2762 63.8107 1.5598H77.2819L77.1401 11.4859L45.0929 11.2023ZM93.7309 36.0176H48.4962C48.0708 36.0176 47.7872 35.5922 47.7872 35.3086C47.7872 35.025 48.0708 34.5996 48.4962 34.5996H93.7309C94.1563 34.5996 94.4399 35.025 94.4399 35.3086C94.2981 35.5922 94.0145 36.0176 93.7309 36.0176ZM79.5507 11.4859L79.4089 1.5598L97.1341 1.70161C103.515 2.12702 106.351 11.6277 106.351 11.6277L79.5507 11.4859ZM109.187 11.6277C109.187 11.6277 107.202 5.38847 101.814 1.84343C101.814 1.84343 114.718 4.11225 124.36 11.7695L109.187 11.6277Z" fill="url(#paint0_linear_112_547)"/>
<path d="M33.8904 23.397C28.0766 23.397 23.5389 28.0765 23.5389 33.7485C23.5389 39.5624 28.2184 44.1 33.8904 44.1C39.7043 44.1 44.2419 39.4206 44.2419 33.7485C44.2419 28.0765 39.5625 23.397 33.8904 23.397ZM33.8904 37.7189C31.6216 37.7189 29.92 35.8755 29.92 33.7485C29.92 31.4797 31.7634 29.778 33.8904 29.778C36.1592 29.778 37.8609 31.6215 37.8609 33.7485C37.8609 36.0173 36.0174 37.7189 33.8904 37.7189Z" fill="url(#paint1_linear_112_547)"/>
<path d="M108.336 23.397C102.522 23.397 97.9848 28.0765 97.9848 33.7485C97.9848 39.5624 102.664 44.1 108.336 44.1C114.15 44.1 118.688 39.4206 118.688 33.7485C118.688 28.0765 114.008 23.397 108.336 23.397ZM108.336 37.7189C106.067 37.7189 104.366 35.8755 104.366 33.7485C104.366 31.4797 106.209 29.778 108.336 29.778C110.605 29.778 112.307 31.6215 112.307 33.7485C112.307 36.0173 110.463 37.7189 108.336 37.7189Z" fill="url(#paint2_linear_112_547)"/>
<defs>
<linearGradient id="paint0_linear_112_547" x1="72.3897" y1="0" x2="72.3897" y2="37.0102" gradientUnits="userSpaceOnUse">
<stop stop-color="#00679A"/>
<stop offset="1" stop-color="#004D74"/>
</linearGradient>
<linearGradient id="paint1_linear_112_547" x1="33.8904" y1="23.397" x2="33.8904" y2="44.1" gradientUnits="userSpaceOnUse">
<stop stop-color="#00679A"/>
<stop offset="1" stop-color="#004D74"/>
</linearGradient>
<linearGradient id="paint2_linear_112_547" x1="108.336" y1="23.397" x2="108.336" y2="44.1" gradientUnits="userSpaceOnUse">
<stop stop-color="#00679A"/>
<stop offset="1" stop-color="#004D74"/>
</linearGradient>
</defs>
</svg>
