<svg width="95" height="76" viewBox="0 0 95 76" fill="none" xmlns="http://www.w3.org/2000/svg">
<path d="M72.7344 30.5115C77.871 30.5115 82.494 32.1552 86.3978 34.929C87.4251 35.8535 90.8153 39.0382 91.6371 43.0448H94.4109C94.4109 43.0448 94.3082 33.388 87.8361 28.5595H86.706V0L40.7847 0.308184L35.0317 32.0525L0 32.3607L5.03387 57.6328C7.29398 55.1672 10.4787 53.6262 14.0743 53.6262C19.6219 53.6262 24.2448 57.3246 25.7858 62.2557H50.5442C49.6196 59.6874 49.106 56.9137 49.106 54.0372C49.106 41.0929 59.6874 30.5115 72.7344 30.5115ZM16.3344 47.7705H14.3825V36.2645H16.3344V47.7705ZM19.2109 47.7705H17.259V36.2645H19.2109V47.7705ZM22.1902 47.7705H20.2383V36.2645H22.1902V47.7705ZM25.0667 47.7705H23.1148V36.2645H25.0667V47.7705ZM27.9431 47.7705H25.9913V36.2645H27.9431V47.7705ZM65.4404 2.56831H84.6514V28.5595H65.4404V2.56831ZM44.1749 2.87649L62.4612 2.67104L62.2557 28.8678L39.4492 29.0732L44.1749 2.87649ZM37.6 49.7224V32.3607H56.8109C56.8109 32.3607 48.6951 43.7639 45.8186 49.7224H37.6Z" fill="url(#paint0_linear_112_567)"/>
<path d="M91.9454 48.5923C91.4317 46.2294 90.5071 44.0721 89.2743 42.1202C89.8907 40.3737 89.4798 38.5245 88.1443 37.189C86.8088 35.8535 84.8569 35.5453 83.2131 36.059C81.2612 34.8262 79.1038 33.9016 76.741 33.3879C75.9191 31.7442 74.3782 30.6141 72.4263 30.6141C70.5771 30.6141 68.9333 31.7442 68.2142 33.2852C65.8514 33.7988 63.694 34.7234 61.7421 35.9562C59.9956 35.3398 58.1465 35.7508 56.811 37.0863C55.4754 38.4218 55.1672 40.271 55.6809 41.9147C54.3453 43.9693 53.318 46.2294 52.8044 48.695C51.2634 49.5169 50.3388 51.0579 50.3388 52.907C50.3388 54.6535 51.2634 56.1945 52.7017 57.0163C53.2153 59.5846 54.2426 62.0502 55.5782 64.1048C55.1672 65.7486 55.5782 67.3923 56.811 68.6251C58.0437 69.8578 59.7902 70.2688 61.3311 69.8579C63.4885 71.2961 65.8514 72.3234 68.4197 72.8371C69.2415 74.2753 70.7825 75.1999 72.529 75.1999C74.2754 75.1999 75.8164 74.2753 76.6383 72.8371C79.2066 72.3234 81.5694 71.2961 83.7268 69.8579C85.3705 70.2688 87.0142 69.8578 88.247 68.6251C89.4798 67.3923 89.8907 65.5431 89.4798 63.8994C90.8153 61.8448 91.7399 59.5846 92.2536 57.0163C93.7946 56.1945 94.8219 54.6535 94.8219 52.8043C94.7191 50.9551 93.5891 49.4141 91.9454 48.5923ZM72.4263 64.2076C66.1596 64.2076 61.1257 59.1737 61.1257 52.907C61.1257 46.6404 66.1596 41.6065 72.4263 41.6065C78.6929 41.6065 83.7268 46.6404 83.7268 52.907C83.7268 59.1737 78.6929 64.2076 72.4263 64.2076Z" fill="url(#paint1_linear_112_567)"/>
<path d="M72.2209 48.2842C69.6525 48.2842 67.5979 50.3388 67.5979 52.9071C67.5979 55.4754 69.6525 57.5301 72.2209 57.5301C74.7892 57.5301 76.8438 55.4754 76.8438 52.9071C76.8438 50.3388 74.7892 48.2842 72.2209 48.2842Z" fill="url(#paint2_linear_112_567)"/>
<path d="M72.4263 43.1475C66.9815 43.1475 62.6667 47.5649 62.6667 52.907C62.6667 58.3518 67.0842 62.6666 72.4263 62.6666C77.8711 62.6666 82.1858 58.2491 82.1858 52.907C82.2886 47.5649 77.8711 43.1475 72.4263 43.1475ZM72.4263 61.742C67.5979 61.742 63.5913 57.7354 63.5913 52.907C63.5913 48.0786 67.5979 44.072 72.4263 44.072C77.2547 44.072 81.2612 48.0786 81.2612 52.907C81.2612 57.8382 77.3574 61.742 72.4263 61.742Z" fill="url(#paint3_linear_112_567)"/>
<path d="M13.766 56.0918C8.5267 56.0918 4.3147 60.3038 4.3147 65.5431C4.3147 70.7825 8.5267 74.9945 13.766 74.9945C19.0054 74.9945 23.2174 70.7825 23.2174 65.5431C23.2174 60.3038 19.0054 56.0918 13.766 56.0918ZM13.766 71.9126C10.2731 71.9126 7.39666 69.036 7.39666 65.5431C7.39666 62.0502 10.2731 59.1738 13.766 59.1738C17.2589 59.1738 20.1355 62.0502 20.1355 65.5431C20.1355 69.036 17.2589 71.9126 13.766 71.9126Z" fill="url(#paint4_linear_112_567)"/>
<path d="M13.7662 62.4612C12.0197 62.4612 10.6842 63.8994 10.6842 65.5431C10.6842 67.2896 12.1225 68.6251 13.7662 68.6251C15.5126 68.6251 16.8481 67.1869 16.8481 65.5431C16.8481 63.7967 15.5126 62.4612 13.7662 62.4612Z" fill="url(#paint5_linear_112_567)"/>
<defs>
<linearGradient id="paint0_linear_112_567" x1="47.2055" y1="0" x2="47.2055" y2="62.2557" gradientUnits="userSpaceOnUse">
<stop stop-color="#00679A"/>
<stop offset="1" stop-color="#004D74"/>
</linearGradient>
<linearGradient id="paint1_linear_112_567" x1="72.5804" y1="30.6141" x2="72.5804" y2="75.1999" gradientUnits="userSpaceOnUse">
<stop stop-color="#00679A"/>
<stop offset="1" stop-color="#004D74"/>
</linearGradient>
<linearGradient id="paint2_linear_112_567" x1="72.2209" y1="48.2842" x2="72.2209" y2="57.5301" gradientUnits="userSpaceOnUse">
<stop stop-color="#00679A"/>
<stop offset="1" stop-color="#004D74"/>
</linearGradient>
<linearGradient id="paint3_linear_112_567" x1="72.4272" y1="43.1475" x2="72.4272" y2="62.6666" gradientUnits="userSpaceOnUse">
<stop stop-color="#00679A"/>
<stop offset="1" stop-color="#004D74"/>
</linearGradient>
<linearGradient id="paint4_linear_112_567" x1="13.7661" y1="56.0918" x2="13.7661" y2="74.9945" gradientUnits="userSpaceOnUse">
<stop stop-color="#00679A"/>
<stop offset="1" stop-color="#004D74"/>
</linearGradient>
<linearGradient id="paint5_linear_112_567" x1="13.7662" y1="62.4612" x2="13.7662" y2="68.6251" gradientUnits="userSpaceOnUse">
<stop stop-color="#00679A"/>
<stop offset="1" stop-color="#004D74"/>
</linearGradient>
</defs>
</svg>
