<svg width="40" height="37" viewBox="0 0 40 37" fill="none" xmlns="http://www.w3.org/2000/svg">
<path d="M34.6049 12.5349C35.1499 12.0444 35.0409 11.445 34.3324 11.227L31.8256 10.4096C31.1172 10.1916 30.7902 9.42864 31.0627 8.7202L32.0436 6.26788C32.3161 5.55944 31.9346 5.12347 31.2262 5.23246L28.6103 5.66843C27.9019 5.77742 27.1935 5.28695 27.139 4.52401L26.8665 1.90821C26.812 1.14527 26.2125 0.927284 25.6131 1.36325L23.4878 2.94363C22.8883 3.3796 22.0708 3.27061 21.6349 2.61665L20.1635 0.436818C19.7275 -0.162636 19.1281 -0.162634 18.8556 0.545813L17.7112 2.94363C17.3842 3.59758 16.6213 3.87006 15.9673 3.54309L13.624 2.28968C12.97 1.9627 12.4796 2.23519 12.4796 2.99813L12.5886 5.66843C12.6431 6.43137 12.0436 7.03082 11.2807 6.97633L8.61038 6.92183C7.84744 6.92183 7.57495 7.41229 7.95642 8.06624L9.26431 10.3551C9.64578 11.009 9.3733 11.8265 8.71935 12.1534L6.37603 13.3523C5.72208 13.6793 5.6676 14.2788 6.32155 14.7147L8.55587 16.1316C9.20982 16.5131 9.31881 17.3305 8.93734 17.9845L7.41147 20.1643C6.9755 20.7638 7.24798 21.3087 7.95642 21.3632L10.6267 21.5812C11.3896 21.6357 11.8801 22.2897 11.7711 23.0526L11.4441 25.6684C11.3351 26.4314 11.8256 26.7583 12.5341 26.4859L14.9864 25.4504C15.6948 25.178 16.4578 25.5049 16.6758 26.2134L17.6022 28.7202C17.8747 29.4286 18.4741 29.5376 18.9101 28.9382L20.5995 26.8673C21.0899 26.2679 21.9074 26.2134 22.4523 26.7038L24.4142 28.5022C24.9592 28.9927 25.5586 28.8292 25.6676 28.0662L26.2125 25.4504C26.376 24.742 27.0845 24.306 27.7929 24.4695L30.3542 25.1235C31.0627 25.2869 31.4986 24.9055 31.2807 24.1425L30.5177 21.5812C30.2997 20.8728 30.7357 20.1643 31.4441 20.0008L34.0055 19.4014C34.7139 19.2379 34.8774 18.6384 34.3869 18.0935L32.5341 16.1861C32.0436 15.6412 32.0436 14.8237 32.6431 14.3333L34.6049 12.5349Z" fill="url(#paint0_linear_112_630)" fill-opacity="0.7"/>
<path d="M31.3897 22.3988L32.1526 24.9601C32.3706 25.6685 31.9346 26.1045 31.2262 25.941L28.6649 25.287C27.9564 25.1235 27.248 25.5595 27.0845 26.268L26.6485 28.5023L34.1689 36.8402L34.7684 31.772L40 31.6086L31.3897 22.0718C31.3352 22.1263 31.3352 22.2353 31.3897 22.3988Z" fill="url(#paint1_linear_112_630)" fill-opacity="0.7"/>
<path d="M13.8965 26.3224L11.4441 27.3578C10.7357 27.6303 10.2997 27.3033 10.3542 26.5404L10.6812 23.9246C10.7902 23.1616 10.2452 22.5622 9.53678 22.4532L9.15534 22.3987L0 30.6276L5.06814 31.227L5.23163 36.4586L15.5858 27.1398L15.5313 27.0308C15.3678 26.3769 14.6049 26.0499 13.8965 26.3224Z" fill="url(#paint2_linear_112_630)" fill-opacity="0.7"/>
<defs>
<linearGradient id="paint0_linear_112_630" x1="7.52523" y1="0.366591" x2="27.8055" y2="32.1813" gradientUnits="userSpaceOnUse">
<stop stop-color="#0080C8"/>
<stop offset="1" stop-color="#005B78"/>
</linearGradient>
<linearGradient id="paint1_linear_112_630" x1="27.4139" y1="22.2564" x2="37.9961" y2="37.3858" gradientUnits="userSpaceOnUse">
<stop stop-color="#0080C8"/>
<stop offset="1" stop-color="#005B78"/>
</linearGradient>
<linearGradient id="paint2_linear_112_630" x1="0.893489" y1="22.5744" x2="10.1254" y2="38.7585" gradientUnits="userSpaceOnUse">
<stop stop-color="#0080C8"/>
<stop offset="1" stop-color="#005B78"/>
</linearGradient>
</defs>
</svg>
