<svg width="35" height="40" viewBox="0 0 35 40" fill="none" xmlns="http://www.w3.org/2000/svg">
<path d="M17.5301 0C17.4699 0 17.4699 0 17.5301 0C16.5677 0.120301 14.0414 0.781947 10.9135 1.98495C7.78571 3.18796 4.71805 3.60901 2.13158 4.27066C-0.394737 4.93232 0.0263158 7.99999 0.0263158 7.99999C0.0263158 7.99999 0.988722 20.391 1.34962 22.4361C3.21429 32.1804 17.2293 40 17.2293 40C17.2293 40 31.5451 32.421 33.4699 22.4962C33.891 20.391 34.8534 7.75938 34.8534 7.75938C34.8534 7.75938 35.3346 4.63155 32.688 4.03005C30.0414 3.42854 26.8534 3.0075 23.6654 1.86465C20.5977 0.661639 18.4925 0.0601504 17.5301 0ZM22.5827 4.51128C25.0489 5.41353 27.3947 5.83456 29.5 6.25562C29.5 6.25562 31.4248 6.73683 31.7256 6.79698C31.7256 6.79698 31.7857 6.79696 31.7857 7.33832C31.7857 7.39847 31.7857 7.45865 31.7857 7.5188C31.4248 12.3308 30.703 20.5113 30.4023 21.9549C29.5602 26.2256 25.7105 30.1955 22.6429 32.7218C20.5977 34.406 18.6128 35.7293 17.2895 36.5714C16.0263 35.7293 14.0414 34.406 12.0564 32.7218C8.98872 30.1353 5.19925 26.1654 4.35714 21.9549C4.11654 20.5714 3.39474 12.5714 3.03383 7.81955C3.03383 7.69925 3.03383 7.69922 3.03383 7.63907C3.03383 7.45862 3.03383 7.21802 3.09398 7.03756C3.75564 6.85711 4.47744 6.73682 5.2594 6.55637C7.30451 6.13532 9.65038 5.59398 12.0564 4.69172C14.7632 3.66917 16.688 3.1278 17.4699 2.94735C18.0113 3.0075 19.3346 3.36842 22.5827 4.51128Z" fill="url(#paint0_linear_112_625)" fill-opacity="0.7"/>
<path d="M17.4699 4.03003C17.4098 4.03003 17.4699 4.03003 17.4699 4.03003C16.7481 4.09018 14.8835 4.63156 12.5977 5.59396C10.2519 6.55637 7.96616 6.85712 6.1015 7.39847C4.17668 7.93983 4.53759 10.3458 4.53759 10.3458C4.53759 10.3458 5.25939 20.0902 5.56014 21.6541C6.9436 29.2932 17.3496 35.4285 17.3496 35.4285C17.3496 35.4285 27.9361 29.4737 29.3195 21.7143C29.6203 20.0902 30.3421 10.1654 30.3421 10.1654C30.3421 10.1654 30.703 7.69923 28.718 7.21803C26.7331 6.73683 24.4474 6.43604 22.0413 5.53379C19.7556 4.57138 18.1917 4.09018 17.4699 4.03003Z" fill="url(#paint1_linear_112_625)" fill-opacity="0.7"/>
<defs>
<linearGradient id="paint0_linear_112_625" x1="2" y1="0.500001" x2="31" y2="40.5" gradientUnits="userSpaceOnUse">
<stop stop-color="#0080C8"/>
<stop offset="1" stop-color="#005B78"/>
</linearGradient>
<linearGradient id="paint1_linear_112_625" x1="5.99305" y1="4.42251" x2="29.1322" y2="34.5573" gradientUnits="userSpaceOnUse">
<stop stop-color="#0080C8"/>
<stop offset="1" stop-color="#005B78"/>
</linearGradient>
</defs>
</svg>
