<svg width="40" height="37" viewBox="0 0 40 37" fill="none" xmlns="http://www.w3.org/2000/svg">
<path d="M10.3121 15.1887H1.82873C0.761965 15.1887 -2.48055e-05 16.0523 0.101572 17.1191L0 33.8317C0 33.8825 0 33.9334 0 33.9842C0.152396 35.1017 1.16837 36.0161 2.28593 36.0161H13.1568C14.2236 36.0161 14.9856 35.2033 14.884 34.1365L12.5472 16.7127C12.5472 16.7127 12.5472 16.7127 12.4964 16.7127C12.1408 15.8491 11.2773 15.1887 10.3121 15.1887Z" fill="url(#paint0_linear_112_636)" fill-opacity="0.7"/>
<path d="M39.9784 22.4021C39.8768 21.1322 39.2164 20.2178 38.4037 19.5574C39.0132 19.1002 39.4196 18.4399 39.4704 17.6271C39.572 16.5095 39.2672 14.8332 38.1497 13.5632C37.5909 12.9536 36.5241 12.1916 34.8478 12.1916H27.1264C27.1264 11.0741 27.1264 9.29612 27.1772 7.77217C27.2788 5.53703 26.0596 2.79391 24.7897 1.32075C24.1293 0.558771 23.4689 0.152383 22.8085 0.0507861C22.6053 -1.24027e-05 22.4021 0 22.1481 0C20.7258 0 19.0494 0.558771 18.6938 1.82873C18.5414 2.38752 18.6938 2.94631 18.8462 3.5559C19.0494 4.36867 19.2526 5.38464 19.0494 6.7562C18.643 9.14372 15.0363 14.884 13.868 15.9507L16.3063 33.8826C17.8811 34.4922 21.5894 35.8637 23.5197 35.8637H33.2222C33.8826 35.8637 36.0669 35.7113 36.7273 33.8826C37.0321 32.9682 36.9305 32.1555 36.6257 31.4443C36.6257 31.3935 36.6257 31.2919 36.6257 31.2919V31.2411C37.8449 30.9363 38.6068 30.1235 38.81 28.9044C39.064 27.482 38.6068 26.466 38.2004 25.8565C39.4704 25.1961 40.1308 24.0277 39.9784 22.4021Z" fill="url(#paint1_linear_112_636)" fill-opacity="0.7"/>
<defs>
<linearGradient id="paint0_linear_112_636" x1="0.853772" y1="15.4491" x2="16.6218" y2="33.2801" gradientUnits="userSpaceOnUse">
<stop stop-color="#0080C8"/>
<stop offset="1" stop-color="#005B78"/>
</linearGradient>
<linearGradient id="paint1_linear_112_636" x1="15.366" y1="0.448297" x2="42.4507" y2="31.6582" gradientUnits="userSpaceOnUse">
<stop stop-color="#0080C8"/>
<stop offset="1" stop-color="#005B78"/>
</linearGradient>
</defs>
</svg>
